<svg id="Layer_1" data-name="Layer 1" xmlns="http://www.w3.org/2000/svg" xmlns:xlink="http://www.w3.org/1999/xlink" width="472.31" height="1090.05" viewBox="0 0 472.31 1090.05">
  <defs>
    <clipPath id="clip-path">
      <rect x="-5466.05" y="-1140.07" width="1920" height="1080" style="fill: none"/>
    </clipPath>
    <clipPath id="clip-path-3">
      <rect x="-3944.4" y="1059.93" width="1917.34" height="1080" style="fill: none"/>
    </clipPath>
  </defs>
  <g style="clip-path: url(#clip-path)">
    <g style="clip-path: url(#clip-path)">
      <g style="clip-path: url(#clip-path-3)">
        <path d="M-3628.35,813.23c34,40,105,37,156.93,45.17,164.81,26,259.83,45.66,424.64,71.64,17,2.67,27.73,13.33,37.25,27.61,42.92,64.44-56.36,324.57-141.74,426,78.37,64.94,231.12,130.71,355.43,168,47.25,14.18,36.93,83.78-12.4,83.42-87-.62-182.8-4.39-213.37,50.38-24.71,44.28,27.15,143.36,77.84,141.94,394-11.07,243.27,703.95,848.15,661.43,249.69-17.56,599.09-148.92,1035.62-443.28L811,4615.85C-129.47,2647.27,233.55,1540.51,197.41,854.53c-17.58-333.7-57.87-632.08-104.51-963C17-647.11-201.12-1266.95-581.41-1655.93c-401.6-410.79-341.91-817.93-910.71-898.46C-3818.22-2883.71-3628.35,813.23-3628.35,813.23" style="fill: #f26539"/>
        <path d="M1433.13,2918.58l-2290.22-3122C-1878-761-1986.42-2104.69-1986.42-2104.69-2331.17-1531-4011-1374-4011-1374c35.89-412.38,324.91-1100.1,899-1573.69h0C-1482-4152.15-222-3722,788.55-2334.39l4094.2,5622L2400.44,3385a1144,1144,0,0,1-967.31-466.46" style="fill: #1e3ba7"/>
      </g>
    </g>
  </g>
  <path d="M.08,0C72.45,11.58,165.13,54.46,205,136.72s52,189.48,32.55,287c-8.43,42.23-22.61,84.81-17.91,127.53,5.89,53.5,39.88,91.49,74.73,115.9s82,47.78,111.26,83.18c51.6,62.44,71.61,158.17,63.72,253.83a356.91,356.91,0,0,0,3,85.85L0,1089.88Z" style="fill: #efead0"/>
</svg>
