<svg id="Layer_1" data-name="Layer 1" xmlns="http://www.w3.org/2000/svg" xmlns:xlink="http://www.w3.org/1999/xlink" width="899" height="671" viewBox="0 0 899 671">
  <defs>
    <clipPath id="clip-path">
      <rect x="6487.61" y="1013.27" width="1920" height="1080" style="fill: none"/>
    </clipPath>
    <clipPath id="clip-path-3">
      <rect x="249.26" y="3213.27" width="1917.34" height="1080" style="fill: none"/>
    </clipPath>
  </defs>
  <g style="clip-path: url(#clip-path)">
    <g style="clip-path: url(#clip-path)">
      <g style="clip-path: url(#clip-path-3)">
        <path d="M5626.79,5071.92l-2290.22-3122C2315.62,1392.29,2207.24,48.65,2207.24,48.65,1862.49,622.32,182.64,779.31,182.64,779.31c35.89-412.38,324.91-1100.09,899-1573.69h0c1630-1204.44,2890-774.29,3900.56,613.32l4094.2,5622L6594.1,5538.37a1144,1144,0,0,1-967.31-466.45" style="fill: #1e3ba7"/>
      </g>
    </g>
  </g>
  <path d="M556.81,231.83c-13.25-28.6-32.33-56.42-57.38-82.87L449.48,90.91l-50,58.05c-23,25.73-40.89,52.33-53.92,79.34-28.52,13.25-56.26,32.29-82.64,57.27l-58,50,58,50c25.73,23,52.33,40.89,79.34,53.92C355.63,468.2,374.74,496,399.52,522l50,58.05L499.43,522c22.69-25.56,40.63-52.13,53.74-79.23,28.88-13.34,56.72-32.49,82.87-57.33l58.05-50-58.05-50C610.48,262.88,583.91,244.94,556.81,231.83Z" style="fill: none"/>
  <path d="M0,0V671H899V0ZM636,385.48c-26.15,24.84-54,44-82.87,57.33-13.11,27.1-31,53.67-53.74,79.23l-49.95,58.05-50-58.05C374.74,496,355.63,468.2,342.3,439.4c-27-13-53.61-31-79.34-53.92l-58-50,58-50c26.38-25,54.12-44,82.64-57.27,13-27,31-53.61,53.92-79.34l50-58.05L499.43,149c25.05,26.45,44.13,54.27,57.38,82.87,27.1,13.11,53.67,31,79.23,53.74l58.05,50Z" style="fill: #edd1e6"/>
</svg>
