<svg id="Layer_1" data-name="Layer 1" xmlns="http://www.w3.org/2000/svg" xmlns:xlink="http://www.w3.org/1999/xlink" width="899" height="671" viewBox="0 0 899 671">
  <defs>
    <clipPath id="clip-path">
      <rect x="5491.61" y="1013.27" width="1920" height="1080" style="fill: none"/>
    </clipPath>
    <clipPath id="clip-path-3">
      <rect x="-746.74" y="3213.27" width="1917.34" height="1080" style="fill: none"/>
    </clipPath>
  </defs>
  <g style="clip-path: url(#clip-path)">
    <g style="clip-path: url(#clip-path)">
      <g style="clip-path: url(#clip-path-3)">
        <path d="M4630.79,5071.92l-2290.22-3122C1319.62,1392.29,1211.24,48.65,1211.24,48.65,866.49,622.32-813.36,779.31-813.36,779.31c35.89-412.38,324.91-1100.09,899-1573.69h0c1630-1204.44,2890-774.29,3900.56,613.32l4094.2,5622L5598.1,5538.37a1144,1144,0,0,1-967.31-466.45" style="fill: #1e3ba7"/>
      </g>
    </g>
  </g>
  <path d="M229.19,3V674m1.95-335.91" style="fill: #edd1d1"/>
  <path d="M0,0V671H899V0ZM643,336c-24-3-36,0-64,0-1,90-56.88,160.48-79.57,186l-49.95,58.05-50-58.05C374.74,496,320,434,319,338c0-6-15-11-56-2l-58.09-.47L263,336c44,0,56,11,56-1,3-97,57.56-160.31,80.52-186l50-58.05L499.43,149C524.48,175.41,581,243,579,336c15-1,53,3.43,59,3l56.09-3.47Z" style="fill: #edd1e6"/>
  <rect x="253" y="336" width="66" height="11" style="fill: none;stroke: #edd1e6;stroke-miterlimit: 10;stroke-width: 0.25px"/>
</svg>
