<svg id="Layer_1" data-name="Layer 1" xmlns="http://www.w3.org/2000/svg" xmlns:xlink="http://www.w3.org/1999/xlink" width="946.61" height="696.42" viewBox="0 0 946.61 696.42">
  <defs>
    <clipPath id="clip-path">
      <rect x="-4421.62" y="-1239.72" width="1920" height="1080" style="fill: none"/>
    </clipPath>
    <clipPath id="clip-path-3">
      <rect x="-4839.96" y="960.28" width="1917.34" height="1080" style="fill: none"/>
    </clipPath>
    <clipPath id="clip-path-4">
      <rect x="-8719.96" y="960.28" width="1917.34" height="1080" style="fill: none"/>
    </clipPath>
    <clipPath id="clip-path-5">
      <rect x="-1946.36" y="-1320.33" width="1920" height="1080" style="fill: none"/>
    </clipPath>
    <clipPath id="clip-path-7">
      <rect x="-424.7" y="879.67" width="1917.34" height="1080" style="fill: none"/>
    </clipPath>
    <clipPath id="clip-path-8">
      <rect x="-4901.69" y="1775.05" width="1920" height="1080" style="fill: none"/>
    </clipPath>
  </defs>
  <g style="clip-path: url(#clip-path)">
    <g style="clip-path: url(#clip-path)">
      <g style="clip-path: url(#clip-path-3)">
        <path d="M-429.82,4215.48l-2086.92-2805C-3442,913.21-3548-299.33-3548-299.33c-307.78,520.08-1823.61,672.07-1823.61,672.07C-5341.75.17-5085-622.54-4569.49-1053.67h0c1464.45-1097.45,2604.77-716.73,3525.66,530l3731,5051.28L446.43,4630.76a1033,1033,0,0,1-876.25-415.28" style="fill: #1e3ba7"/>
      </g>
      <g style="clip-path: url(#clip-path-4)">
        <path d="M-3342.43,2818.93l-2290.23-3122C-6653.61-860.7-6762-2204.34-6762-2204.34c-344.74,573.68-2024.59,730.67-2024.59,730.67,35.88-412.38,324.9-1100.1,899-1573.69h0c1630-1204.44,2890-774.29,3900.56,613.32l4094.2,5622-2482.31,97.47a1144,1144,0,0,1-967.3-466.46" style="fill: #1e3ba7"/>
      </g>
    </g>
  </g>
  <g style="clip-path: url(#clip-path-5)">
    <g style="clip-path: url(#clip-path-5)">
      <g style="clip-path: url(#clip-path-7)">
        <path d="M1552,2309.64C661.53,2515-84.95,1627.28-267.46,1108c-311.5-886.25-365-2143.14-223.86-2662.3l804.4-301.83L1679.52,1027.24Z" style="fill: #1d1d1d"/>
        <path d="M-108.66,633c34,40,105,37,156.93,45.16,164.81,26,259.84,45.66,424.65,71.64,16.95,2.67,27.73,13.33,37.25,27.61,42.92,64.44-56.36,324.57-141.74,426,78.36,64.94,231.11,130.71,355.43,168,47.25,14.18,36.92,83.78-12.41,83.42-87-.62-182.8-4.39-213.36,50.38-24.72,44.28,27.14,143.36,77.84,141.94,394-11.07,243.26,703.95,848.15,661.43,249.68-17.56,599.09-148.92,1035.62-443.28l1871,2570.26C3390.22,2467,3753.25,1360.24,3717.1,674.26c-17.58-333.7-57.86-632.08-104.51-963-75.93-538.67-294-1158.5-674.3-1547.49-401.6-410.79-341.92-817.93-910.72-898.46C-298.52-3064-108.66,633-108.66,633" style="fill: #f26539"/>
        <path d="M185.78,437a104.63,104.63,0,0,0,70.92,4.1c113-33.33,517.47-135.12,470.5,132.36C672.69,883.9-81.71,705.21-108.66,633c-37.5-61.17-16.24-1444.58,388.35-2344.34,0,0-569.16,1943.91-93.91,2148.34" style="fill: #e5542e"/>
        <path d="M4952.83,2738.31l-2290.22-3122C1641.65-941.32,1533.28-2285,1533.28-2285c-344.75,573.68-2024.6,730.67-2024.6,730.67,35.89-412.38,324.9-1100.1,899-1573.69h0c1630-1204.44,2890-774.29,3900.55,613.32l4094.21,5622-2482.31,97.47a1144,1144,0,0,1-967.31-466.46" style="fill: #1e3ba7"/>
      </g>
    </g>
  </g>
  <path d="M889.7,341.78l-148-78L723,256.36,765.7,72.78l6-22-204,148-14.11,9.58-6.89-17.58-83-140-82,141-7,15.28-13-9.28-209-147,5,19L208.29,262,77.7,332.78l-17,9,132,90,14.38,9.56-2.38,12.44-45,197,217-162,0-.73,6,13.73,78,149,87-145,7.86-16.43,12.14,8.43,211,153-51-186-3.25-16.16,12.25-5.84Z" style="fill: #1d1d1d"/>
</svg>
