<svg id="Layer_1" data-name="Layer 1" xmlns="http://www.w3.org/2000/svg" xmlns:xlink="http://www.w3.org/1999/xlink" width="603.36" height="937.11" viewBox="0 0 603.36 937.11">
  <defs>
    <clipPath id="clip-path">
      <rect x="-5559.85" y="-1119.37" width="1920" height="1080" style="fill: none"/>
    </clipPath>
    <clipPath id="clip-path-3">
      <rect x="-5978.19" y="1080.63" width="1917.34" height="1080" style="fill: none"/>
    </clipPath>
    <clipPath id="clip-path-4">
      <rect x="-3084.58" y="-1199.99" width="1920" height="1080" style="fill: none"/>
    </clipPath>
    <clipPath id="clip-path-6">
      <rect x="-1562.93" y="1000.01" width="1917.34" height="1080" style="fill: none"/>
    </clipPath>
  </defs>
  <g style="clip-path: url(#clip-path)">
    <g style="clip-path: url(#clip-path)">
      <g style="clip-path: url(#clip-path-3)">
        <path d="M-1568,4335.82-3655,1530.82C-4580.22,1033.56-4686.26-179-4686.26-179-4994,341.1-6509.87,493.08-6509.87,493.08c29.89-372.56,286.66-995.28,802.15-1426.4h0c1464.45-1097.45,2604.77-716.74,3525.66,530L1549,4648-691.8,4751.11A1033,1033,0,0,1-1568,4335.82" style="fill: #1e3ba7"/>
      </g>
    </g>
  </g>
  <g style="clip-path: url(#clip-path-4)">
    <g style="clip-path: url(#clip-path-4)">
      <g style="clip-path: url(#clip-path-6)">
        <path d="M413.76,2430c-890.46,205.35-1636.94-682.36-1819.45-1201.63-311.5-886.25-365-2143.14-223.86-2662.31l804.41-301.82L541.3,1147.59Z" style="fill: #1d1d1d"/>
        <path d="M-1246.89,753.31c34,40,105,37,156.94,45.17,164.8,26,259.83,45.65,424.64,71.64,16.95,2.67,27.73,13.33,37.25,27.61,42.92,64.44-56.36,324.56-141.74,426,78.36,65,231.11,130.72,355.43,168,47.25,14.19,36.93,83.78-12.4,83.43-87-.63-182.8-4.4-213.37,50.37-24.72,44.29,27.15,143.37,77.84,141.94,394-11.07,243.27,704,848.15,661.43,249.69-17.55,599.09-148.92,1035.62-443.27l1871,2570.25C2252,2587.34,2615,1480.59,2578.88,794.61c-17.59-333.7-57.87-632.08-104.51-963-75.94-538.67-294-1158.51-674.31-1547.5-401.6-410.78-341.91-817.92-910.72-898.45C-1436.75-2943.63-1246.89,753.31-1246.89,753.31" style="fill: #f26539"/>
        <path d="M3814.6,2858.66l-2290.22-3122C503.42-821,395.05-2164.61,395.05-2164.61c-344.75,573.67-2024.6,730.66-2024.6,730.66,35.89-412.38,324.91-1100.09,899-1573.69h0c1630-1204.43,2890-774.29,3900.56,613.32l4094.2,5622-2482.31,97.47a1144,1144,0,0,1-967.31-466.46" style="fill: #1e3ba7"/>
      </g>
    </g>
  </g>
  <path d="M0,0C59.73,18.06,116.14,47.57,150.15,91.1,207.76,164.83,217,261.21,215,355.67c-.6,28.31,5.7,56,15.93,83.94-16.53,23.14-26.48,46.24-25.93,88.61,1.2,93.56-7.28,190.84-64.89,264.57C108.21,833.68,56.07,862.43.42,880.7Z" style="fill: #1d1d1d"/>
  <path d="M231.3,439.34c-16.53,23.14-26.81,46.5-26.26,88.88,1.2,93.56-7.28,190.84-64.89,264.57C108.21,833.68,56.07,862.43.42,880.7c-.13,0-.07,55.87-.07,55.87l603,.54a250.24,250.24,0,0,1-5.09-57.8c2.32-89.47-42.4-182.73-113.38-237.23-40.24-30.89-91-43.74-137.5-64s-93-53.28-104.88-102.61" style="fill: #1e3ba7"/>
</svg>
