<?xml version="1.0" encoding="utf-8"?>
<!-- Generator: Adobe Illustrator 24.3.0, SVG Export Plug-In . SVG Version: 6.00 Build 0)  -->
<svg version="1.1" id="Layer_1" xmlns="http://www.w3.org/2000/svg" xmlns:xlink="http://www.w3.org/1999/xlink" x="0px" y="0px"
	 viewBox="0 0 1200 1200" style="enable-background:new 0 0 1200 1200;" xml:space="preserve">
<style type="text/css">
	.st0{fill:#FF0000;}
</style>
<path class="st0" d="M180.3,156.9c1.1-0.7,2.2-1.1,3.3-1.8c3.3-1.9,6.6-4.1,9.6-5.9c5.2-3.3,11.1-5.5,15.9-9.6
	c3.7-1.5,6.6-4.4,9.2-7.4c0.4-0.4,0.4-0.7,0.7-1.5c-1.9-1.9-4.1-2.2-5.9-2.9c-2.9-0.7-5.9-1.1-8.9-1.8c-2.9-1.1-5.9-0.7-8.8-1.5
	c-3.3-0.7-7-0.7-10.7-0.7c-2.2,0-4.4,0.4-6.6,0.4c-2.2,0-4.4,0-6.6,0.4c-2.2,0.4-4.4,1.1-6.6,1.1c-2.2,0-4.4,0.7-6.6,0.7
	c-1.1,0-2.2,1.1-3.7,1.5c0.7,2.2,1.8,4.1,3.3,5.9c1.8,2.2,2.9,4.4,4.1,6.6c2.2,5.2,4.1,10.7,6.3,15.9c0.7,1.9,1.1,4.1,1.9,6.3
	C173.7,160.6,177,158.7,180.3,156.9 M243,162.1c-1.9,1.5-2.9,2.6-4.4,4.1v0.4c0.4,0.4,0.7,0.7,1.5,1.1c-1.1,1.5-2.6,2.9-3.7,4.8
	c0.4,0.4,1.1,0.4,1.5,0.7v0.4c-0.7,0.4-1.5,0.7-2.6,1.1c0,1.5,0,2.9-0.4,4.4c-3.7,4.4-7.4,8.9-9.2,14c-2.2,1.9-4.4,2.6-5.9,5.2
	c-0.4,0.7-1.9,1.5-3,1.9c-1.5,0.7-3.3,1.1-4.8,1.8c0.4,0.4,0.4,0.7,0.4,1.5c-2.6,1.8-5.2,3.3-7.8,5.2c-1.5,0.7-2.6,1.8-3.7,3.3
	c-0.4,0.4-1.1,0.4-1.8,0.7c-1.5,1.8-2.6,4.1-5.2,5.5c-2.2,0.7-4.4,1.1-7,1.5c0.4-0.7,0.4-1.1,0.4-1.9h-2.2c-0.4,0.7-0.7,1.1-1.1,1.9
	c-3.7,0.4-9.6,2.6-12.5,4.8c0.4,0.7,0.4,1.8,0.7,2.9c0,2.2-0.4,4.4,0,6.6c0,1.1-0.7,2.2,0.4,2.9v0.7c-1.1,1.9-0.7,4.1-1.1,5.9
	c0,1.8,1.1,3.7,0,5.5c0,2.9,0.7,6.3,0.4,9.6c-0.7,3-0.7,6.3-0.7,9.6c0.4,3,0.4,6.3,0,9.2c-0.7,3.3,0,7,0,10.3v1.8
	c-0.7,2.2-2.2,3-4.1,4.1v3.7c-1.5,2.2-4.4,1.8-6.3,3.3c-1.8,1.8-4.4,2.6-6.6,3.7c-2.2,1.5-4.4,2.6-7,4.1c-1.1,0-2.6-0.4-4.4-0.4
	c-1.5-0.4-3-0.4-4.4,0c-1.9,0-9.6,0.4-11.4-0.4c-3-0.7-5.5-1.5-8.1-2.6c-0.7,0-1.1-0.7-1.8-1.1c0.7-0.7,1.1-1.1,1.5-1.5
	c-0.7-3.3-1.8-6.3-3-8.9c-1.1-2.2-1.5-4.8-2.2-7c-0.4-2.6-0.7-5.2-1.1-7.7c0,0-0.4-0.4-0.7-0.4c0.4-5.9,0-11.4-0.7-18.4
	c0-0.4,0.4-1.9,1.1-3.3c0-3-0.7-5.9,0.4-8.5v-0.7c-1.5-3.7,0.7-7.7-1.1-11.4c1.1-1.5-1.1-3.3-0.4-4.8c1.1-1.5-0.7-3.3,0.4-4.8
	c-0.4-3.3-0.4-6.3-0.4-9.6c0-3.3-0.7-6.6,0.4-9.9c-0.4-4.8-0.7-9.2-1.1-13.6c0-0.7-0.4-1.5-0.7-1.8c0.7-1.9,1.1-3.3,1.8-5.2
	c-1.1-2.6-2.2-5.5-0.7-8.5c0-2.9,0-5.9-0.4-8.5c0-2.9-0.4-5.5,0.7-8.5c0-0.7-0.4-1.8-0.7-2.9c0.4-2.2,1.1-4.8,1.1-7.4
	c0.4-2.6,0-5.2,0-7.7c-0.4-2.6-0.4-5.2,0-8.1c0.7-1.9,0.4-4.4,0.4-6.6c-0.4-4.1,0.4-7.7,0.7-11.8c0.4-2.2,0.4-4.8,0-7.4
	c-0.4-0.4-1.1-1.1-1.8-2.2c1.5-2.2,1.5-5.9,4.8-7.4c5.9,0.7,11.8,1.1,17.3,2.6c1.9-0.7,3.7-1.5,5.5-2.6c5.9-2.6,11.8-3.7,18.1-4.8
	c5.9-1.1,12.2-1.8,18.4-1.8c4.1,0,8.5,0.4,12.5,0.7c7.7,0.4,14.8,2.9,22.1,4.4c9.2,1.5,17.3,5.9,25.8,9.6c2.2,0.7,5.2,4.1,7.4,7
	c0.4-0.4,0.7-0.4,1.5-0.7c2.6,1.8,4.1,4.4,4.1,7.7c0.7,0.7,1.8,1.8,3.3,2.9c0.7,1.8,1.9,4.1,2.6,6.3c0.4,0.4,0.4,1.1,0.4,1.5
	c0,1.5-0.7,3,0,4.4c-0.4,2.6-0.7,5.2-1.5,7.7c-0.4,1.1-0.7,2.6-1.1,3.7c-0.4,0.4-0.7,0.7-1.1,1.5l0.4-0.4c-2.2,1.1-2.6,3.3-3.3,4.8
	c-0.7,0-1.1,0.7-1.1,1.5l0.4-0.4c-2.2,0.4-2.2,0.4-2.6,2.6h0.4c-0.4,0-0.7,0.4-0.7,0.7c0,0,0.4,0.4,0.7,0.4
	C243.8,159.9,243.4,160.9,243,162.1"/>
<path class="st0" d="M624,332.4c0-0.7,0.4-1.1-0.4-1.5C623.2,331.7,623.6,332.1,624,332.4 M623.2,211.1v-0.4V211.1z M623.2,210.7
	c-0.4,0-0.7-0.4-0.7-0.4v-4.1C623.2,208.2,623.2,209.6,623.2,210.7 M619.6,336.1c0.4,0,0.4,0,0.7,0.4
	C619.6,336.9,619.6,336.5,619.6,336.1 M616.6,215.9v-0.4V215.9z M615.9,332.8h-0.4H615.9z M616.6,224c-0.4,0.7-0.7,1.1-1.1,1.5
	c0.4,0.7,0.7,1.1,1.1,2.2V224z M615.5,218.5h0.4v-0.4L615.5,218.5z M613.7,335h-0.4H613.7z M612.9,334.6c0.4-0.4,0.4,0,0.4,0.4
	L612.9,334.6z M559.1,141.8l-0.4,0.4h0.4V141.8z M555.4,246.1c-0.4-0.4-0.4-0.4-1.5,0H555.4z M551,99c2.2,0,4.4,0.4,5.9-0.4
	c1.1-0.4,1.8,0.4,2.6-0.4c0-0.4-0.4-0.7-0.4-1.5c-1.5,0-2.6,0.4-3.7,0.4c-0.4-0.4-0.7-0.7-1.5-1.1c-0.4,0.4-1.5,0.7-1.8,1.1
	C551.3,97.5,550.6,97.9,551,99 M583.4,220.7c-0.4-1.9-0.7-3.3-1.1-4.8c-0.7-3.3-1.5-6.6-2.6-9.6c-1.8-6.3-3.7-12.5-5.5-18.4
	c-0.7-2.6-1.5-5.2-2.2-7.7c-1.8-4.4-3.3-8.5-5.5-12.5c-0.4-0.7-0.7-1.5-0.7-2.6c-1.8-7-4.4-13.6-5.5-20.6c-0.4-0.4-0.7-0.7-1.1-1.1
	c-1.8,1.1-2.2,3.3-3,4.8c-1.1,1.8-1.8,3.7-2.6,5.9c-0.4-1.1-0.4-2.2-0.7-3.7c-1.1,2.2-3,3.7-3.3,5.5v4.4c0,1.1,0,1.8,0.4,2.6
	c0.7,2.6,0.4,4.8,0.7,7c0,1.9,0.4,3.3,0.4,5.2c-0.7,2.6-1.1,7-0.7,9.6v4.1c-0.4,2.6-0.7,4.8,0,7.4c0.4,1.8,0.4,3.7,0,5.5
	c-1.1,3.3-0.4,6.6-0.7,10c1.1,2.6,0.7,5.5,1.1,8.5c0,0.4,0.4,0.7,0.7,1.5c1.5-1.1,2.6,0,4.1-0.4c1.8-0.4,4.1-0.4,6.3-0.4H583.4z
	 M532.2,119.7c0,0.4,0,0.4-0.4,0.7C532.2,120.4,532.5,120.4,532.2,119.7 M531.8,120.4c-2.2,1.1-3,3-3.3,5.2c1.8-1.1,2.6-2.9,3.3-4.8
	V120.4z M528.1,125.9c-0.4-0.4-0.7,0-0.7,0.7c-0.4,0-0.4,0-0.7,0.4c0,0,0.4,0,0.4,0.4c0-0.4,0.4-0.4,0.4-0.7
	C528.1,126.7,528.1,126.3,528.1,125.9 M514.1,309.2v0.4h-0.4C514.1,309.6,514.1,309.2,514.1,309.2 M513.7,309.9c0,0-0.4,0-0.4-0.4
	h0.4V309.9z M511.9,168l-0.4-0.4L511.9,168z M646.8,304.4c-0.4,1.9-1.5,3.3-1.5,5.2c0,1.1-0.7,1.8-2.2,3.7c-0.4,0.7-0.4,1.5-0.7,2.6
	l-0.4,0.4c-1.5,0-2.2,0.7-3.7,1.5c-0.4,1.1-0.7,2.6-1.5,4.1c-0.4-0.4-0.7-0.4-1.1-0.4c-1.8-2.2-2.2-2.2-4.8-2.2
	c-0.7,0.7-0.4,1.1,0,2.2c-0.4,0.4-0.7,1.5-1.1,2.2c-0.7,0.4-1.5,1.1-2.2,1.5c-0.4,1.1,0,2.2-0.7,3.3c0,0.4,0.4,1.1,0,1.5
	c-0.7,0.4-1.1,0.4-1.8,0.4c-0.4,0.7,0,1.8-1.1,2.2v1.1c-2.6,0.4-3-2.6-4.8-2.6c-0.7,0.4-1.5,1.1-2.2,1.9v1.9
	c0.7,0.4,1.1,0.4,1.5,0.4c0.7,0,1.1,0.4,1.1,1.1v-0.4v0.4c-0.7,0.7-1.5,1.5-1.8,2.6c-1.5-0.4-2.6-0.4-4.1-0.4V335
	c0.4,0,0.7,0,1.1-0.4c-0.7-1.5-2.2-2.2-3-3.3c0-0.4,0.4-0.7,0.4-1.1c-1.5-3.3-3.7-5.9-5.5-8.9c0-0.4,0-0.4,0.4-0.7
	c-0.4-0.4-0.7-0.7-1.1-1.1c0.4-0.4,0.4-0.4,1.1-0.7c-0.7-0.4-1.5-1.1-2.2-1.5c0-0.4,0-0.7,0.4-1.5c-1.5-2.2-2.6-4.4-3-7
	c-0.4-1.9-1.8-3-1.8-4.8c0-1.5-0.7-3.3-1.1-5.2c-0.4-1.5-1.1-3.3-1.1-5.2c0-0.4-0.4-1.1-0.4-1.5c-1.1-3-1.5-6.3-2.2-9.6
	c-0.7-3-1.1-6.6-2.2-9.6c-0.4-1.9,0-3.7-1.1-5.2c-1.1-1.5-0.7-3.3-1.1-5.2c0-1.1-0.4-2.2-0.7-3.3c-1.5-1.8-0.7-4.1-0.4-5.9
	c0-1.1-0.4-2.2-0.7-3.3c-0.7-0.4-2.2-0.4-5.2,0.4c-1.1-0.4-1.8-0.7-2.6-0.7c-1.8,0-3.7,0.4-5.2,0.4c-1.8,0-3.3,0-4.8-0.4
	c-0.7,0.7-1.5,1.1-1.8,1.5c-1.1,0-1.8,0.4-3,0.4c-0.7,0-1.8,0-2.6-0.4c-1.1,0-1.8-0.4-3-0.4c-3.3-0.4-6.3-1.1-9.6-1.1
	c-1.5,3.7-1.1,7-1.5,10.7v7.4c0.4,2.2,0,4.4,0.7,6.6c0.4,1.5,0.4,3,0,4.8c-0.4,1.1-0.4,2.6-0.7,3.3c-0.7,1.9-1.5,3-1.8,4.4
	c-1.1,2.2-1.8,4.1-2.6,6.6c-1.1,3.7-3.3,7-5.9,10c-0.7,0.4-1.8,0.7-2.6,1.1c-0.7,0-1.5,0-2.6,0.4c-0.4,1.1-1.1,2.2-1.5,3.3
	c-1.1,0.7-2.6,1.5-3.7,2.2c-3.3,0.7-6.6,0.4-10,0.4c-0.7-0.4-1.5-0.7-2.2-1.5c-0.4-0.4-1.1,0.7-1.8,0c-0.4-0.4-0.7-0.4-1.5-0.4v-1.1
	c-1.8-0.7-2.6-2.6-4.8-2.6c-0.7-1.5-1.5-3-1.9-4.4c-1.1-5.5-1.8-11.1-3-17c0.7-1.9,0.7-4.8,0.7-7.7v-13.3c0-1.8,0-4.1,0.7-5.9
	c0.4-2.2,0-4.4,0.4-6.6c0-1.8-0.4-3.3,0.4-4.8c0.4-0.4,0-0.7,0-1.5c0.4-5.9,0.4-11.8,0.4-17.7c-0.7-0.7-1.1-0.7-1.9-1.1
	c1.9-3.3,0.4-7,1.5-10.7c-1.1-1.8-0.7-4.4-0.4-6.3c0-1.5,0-3,0.4-4.4c0.4-1.1,0-2.6,0.4-4.1c0-1.5-0.4-2.9,0.4-4.8
	c0.4-0.7,0.4-1.5,0.4-2.6c0-1.1,0-2.6,0.4-3.7c0.7-2.2,0.4-4.1,0-6.3c0.4-0.4,0.7-0.7,1.1-1.1c-0.4-2.2-0.4-4.1-0.7-5.9
	c-0.7,0-1.1,0.4-2.2,0.4c0.4-0.7,0.4-1.5,0.7-1.9v-1.8h1.5c2.2-2.6,1.9-6.3,3.3-8.9c0.4,0.4,0.7,0.4,1.1,1.1
	c0.4-1.9,1.1-3.3,1.5-5.2c0-1.1,1.1-2.2,1.1-3.3c0-1.1,0.4-1.9,0.7-2.6c0.4-1.1,1.1-2.2,0.7-3.3c0.4-0.4,0.7-0.7,1.1-1.1
	c0-0.4,0.4-0.7,0.4-1.1c1.1-2.2,0.7-4.4,1.5-6.6c0.4-1.1,0-2.2-0.4-3.3c0.4-0.7,0.7-1.8,1.1-2.9c1.5-0.4,0.7-2.2,1.5-2.9
	c0.7-0.7,1.1-1.9,1.8-3c0.4-1.1,0.4-2.2,0.7-3.3c1.1-2.2,2.6-4.4,4.1-6.3c1.1-1.8,1.8-3.7,2.6-5.5c2.2-2.6,5.2-4.4,6.7-7.4
	c0.7-0.4,1.5-0.4,2.2-0.7c-0.4-0.4-0.4-0.4-0.4-0.7c-1.1-0.4-2.2-0.7-3-1.5c3.3-1.1,7-2.6,11.1-4.1c1.5-1.8,3-3.7,4.4-5.9
	c4.4-0.4,8.5-0.4,12.5,1.5c1.1,0.4,2.2,0.7,3.3,1.1c0.7,0.4,1.8,0.4,3,0.7c0,0.4,0.4,1.1,0.7,1.8c1.5,0,3,0.4,4.4,0.4
	c2.2,1.1,4.8,1.8,7,3.3c2.2,1.1,4.4,2.6,7,3.7c1.8,1.1,3,2.6,4.1,4.1c2.6,2.2,4.4,4.4,6.6,7c2.6,3.3,4.1,7.4,4.1,11.8l-0.4,0.4
	c1.1,1.1,0.4,2.9,1.1,4.4c0.4,0.7,0.4,1.5,0.4,2.6c-0.4,3,0.7,6.3,0.7,9.6c0.4,0.7,0.7,1.9,0.7,2.9c1.5,5.2,3,10.3,3,15.9
	c0.4,0.7,0.7,1.5,0.7,2.2c0.4,1.1,0.4,2.2-0.4,2.9c0.7,3.7,1.1,6.6,0,10c0.4,1.5,0.4,2.6,0.7,4.1c-0.4,1.1-0.7,1.8-1.1,2.2
	c0.7,3.3,1.5,5.9,1.8,8.9c0.7,2.6,1.5,5.5,1.8,8.1c0.4,2.9,1.1,5.9,0.7,8.9c0.4,0,0.7,0,0.7-0.4c0.4-0.4,0.4-0.4,0.4-0.7v-1.5
	c0.4-0.7,0.7-1.1,1.1-1.8c0.7,0.4,0.4,1.1,0.4,1.8c0.4,0.7,0,1.5,0,2.2c0.4,1.5,0,3.3,0.4,5.2c0.4,1.8,0,3.3,0.4,5.2
	c0.4,2.2,0,4.4-0.4,6.3c0,1.5-0.4,2.9,0,4.1c0.7,2.6,0.7,4.8,0.7,7.4c0,1.1,0.4,2.2,0.7,3.7c-0.4,1.1-1.1,2.6-0.4,4.8
	c0.4,0,0.7,0.4,1.1,0.7c0.7-1.1,1.1-2.2,1.8-3.3c-0.4-1.5-0.7-3-0.4-4.8c0.7-1.9,0.4-3.7,0.4-5.5c0-2.2,0-4.4,0.7-6.6
	c0.4-1.1,0-2.2,0-3.7c0-0.7-0.7-1.9-0.4-2.6c1.1-2.6,0.4-5.5,0.7-8.5v-2.9c1.8,1.5,2.2,3.7,2.2,5.5c0.4,1.8,0.7,3.3,0.4,5.5
	c-1.8,3.7-0.7,7.4,0.4,11.1c0,1.5-0.4,3.3-0.7,5.5c0,0.4-0.7,1.5-1.1,2.6c1.5,1.8,0,4.4,1.1,6.3c-0.4,0.7-0.4,1.5,0,2.6
	c0,0.4-0.4,1.1-0.7,1.9c0.4,0.7,0.7,1.5,1.1,2.2c-0.4,0.7-0.7,1.5-0.7,2.2c0.4,1.8,0.7,3.7,1.5,5.5c-0.4,1.9-0.7,3.3-1.1,5.5
	c0,0.4-0.7,1.5-1.1,2.2c0.4,2.2,1.5,4.1,0.7,6.6c0.7,0.7,1.1,2.2,1.8,3.3c1.1-0.4,1.8-0.4,3-0.7c0.7-1.5,1.8-3,3-5.5
	c0.7-1.5-0.7-4.4,1.5-6.6c1.1,3,1.1,3,1.5,6.3c0.4,1.8,1.5,3.3,1.5,5.2c0.7,1.9,1.8,4.1,2.6,5.9c1.5,2.6,3,5.5,4.4,8.1
	c0,0.4,0,0.7,0.4,1.5C645.4,297,646.1,300.7,646.8,304.4"/>
<path class="st0" d="M1013,156.9c1.1-0.7,2.2-1.1,3.3-1.8c3.3-1.9,6.6-4.1,9.6-5.9c5.2-3.3,11.1-5.5,15.9-9.6
	c3.7-1.5,6.7-4.4,9.2-7.4c0.4-0.4,0.4-0.7,0.7-1.5c-1.8-1.9-4.1-2.2-5.9-2.9c-2.9-0.7-5.9-1.1-8.8-1.8c-2.9-1.1-5.9-0.7-8.8-1.5
	c-3.3-0.7-7-0.7-10.7-0.7c-2.2,0-4.4,0.4-6.6,0.4c-2.2,0-4.4,0-6.6,0.4c-2.2,0.4-4.4,1.1-6.7,1.1c-2.2,0-4.4,0.7-6.6,0.7
	c-1.1,0-2.2,1.1-3.7,1.5c0.7,2.2,1.8,4.1,3.3,5.9c1.8,2.2,3,4.4,4.1,6.6c2.2,5.2,4.1,10.7,6.3,15.9c0.7,1.9,1.1,4.1,1.8,6.3
	C1006.4,160.6,1009.7,158.7,1013,156.9 M1075.7,162.1c-1.8,1.5-2.9,2.6-4.4,4.1v0.4c0.4,0.4,0.7,0.7,1.5,1.1
	c-1.1,1.5-2.6,2.9-3.7,4.8c0.4,0.4,1.1,0.4,1.5,0.7v0.4c-0.7,0.4-1.5,0.7-2.6,1.1c0,1.5,0,2.9-0.4,4.4c-3.7,4.4-7.4,8.9-9.2,14
	c-2.2,1.9-4.4,2.6-5.9,5.2c-0.4,0.7-1.8,1.5-2.9,1.9c-1.5,0.7-3.3,1.1-4.8,1.8c0.4,0.4,0.4,0.7,0.4,1.5c-2.6,1.8-5.2,3.3-7.7,5.2
	c-1.5,0.7-2.6,1.8-3.7,3.3c-0.4,0.4-1.1,0.4-1.8,0.7c-1.5,1.8-2.6,4.1-5.2,5.5c-2.2,0.7-4.4,1.1-7,1.5c0.4-0.7,0.4-1.1,0.4-1.9h-2.2
	c-0.4,0.7-0.7,1.1-1.1,1.9c-3.7,0.4-9.6,2.6-12.5,4.8c0.4,0.7,0.4,1.8,0.7,2.9c0,2.2-0.4,4.4,0,6.6c0,1.1-0.7,2.2,0.4,2.9v0.7
	c-1.1,1.9-0.7,4.1-1.1,5.9c0,1.8,1.1,3.7,0,5.5c0,2.9,0.7,6.3,0.4,9.6c-0.7,3-0.7,6.3-0.7,9.6c0.4,3,0.4,6.3,0,9.2
	c-0.7,3.3,0,7,0,10.3v1.8c-0.7,2.2-2.2,3-4.1,4.1v3.7c-1.5,2.2-4.4,1.8-6.3,3.3c-1.8,1.8-4.4,2.6-6.6,3.7c-2.2,1.5-4.4,2.6-7,4.1
	c-1.1,0-2.6-0.4-4.4-0.4c-1.5-0.4-3-0.4-4.4,0c-1.8,0-9.6,0.4-11.4-0.4c-3-0.7-5.5-1.5-8.1-2.6c-0.7,0-1.1-0.7-1.8-1.1
	c0.7-0.7,1.1-1.1,1.5-1.5c-0.7-3.3-1.8-6.3-3-8.9c-1.1-2.2-1.5-4.8-2.2-7c-0.4-2.6-0.7-5.2-1.1-7.7c0,0-0.4-0.4-0.7-0.4
	c0.4-5.9,0-11.4-0.7-18.4c0-0.4,0.4-1.9,1.1-3.3c0-3-0.7-5.9,0.4-8.5v-0.7c-1.5-3.7,0.7-7.7-1.1-11.4c1.1-1.5-1.1-3.3-0.4-4.8
	c1.1-1.5-0.7-3.3,0.4-4.8c-0.4-3.3-0.4-6.3-0.4-9.6c0-3.3-0.7-6.6,0.4-9.9c-0.4-4.8-0.7-9.2-1.1-13.6c0-0.7-0.4-1.5-0.7-1.8
	c0.7-1.9,1.1-3.3,1.8-5.2c-1.1-2.6-2.2-5.5-0.7-8.5c0-2.9,0-5.9-0.4-8.5c0-2.9-0.4-5.5,0.7-8.5c0-0.7-0.4-1.8-0.7-2.9
	c0.4-2.2,1.1-4.8,1.1-7.4c0.4-2.6,0-5.2,0-7.7c-0.4-2.6-0.4-5.2,0-8.1c0.7-1.9,0.4-4.4,0.4-6.6c-0.4-4.1,0.4-7.7,0.7-11.8
	c0.4-2.2,0.4-4.8,0-7.4c-0.4-0.4-1.1-1.1-1.8-2.2c1.5-2.2,1.5-5.9,4.8-7.4c5.9,0.7,11.8,1.1,17.3,2.6c1.8-0.7,3.7-1.5,5.5-2.6
	c5.9-2.6,11.8-3.7,18.1-4.8c5.9-1.1,12.2-1.8,18.5-1.8c4.1,0,8.5,0.4,12.5,0.7c7.7,0.4,14.8,2.9,22.1,4.4c9.2,1.5,17.3,5.9,25.8,9.6
	c2.2,0.7,5.2,4.1,7.4,7c0.4-0.4,0.7-0.4,1.5-0.7c2.6,1.8,4.1,4.4,4.1,7.7c0.7,0.7,1.8,1.8,3.3,2.9c0.7,1.8,1.8,4.1,2.6,6.3
	c0.4,0.4,0.4,1.1,0.4,1.5c0,1.5-0.7,3,0,4.4c-0.4,2.6-0.7,5.2-1.5,7.7c-0.4,1.1-0.7,2.6-1.1,3.7c-0.4,0.4-0.7,0.7-1.1,1.5l0.4-0.4
	c-2.2,1.1-2.6,3.3-3.3,4.8c-0.7,0-1.1,0.7-1.1,1.5l0.4-0.4c-2.2,0.4-2.2,0.4-2.6,2.6h0.4c-0.4,0-0.7,0.4-0.7,0.7
	c0,0,0.4,0.4,0.7,0.4C1076.5,159.9,1076.1,160.9,1075.7,162.1"/>
<path class="st0" d="M199.9,485.9h-1.1c0,0.4,0.4,0.7,0.4,1.1C199.5,486.6,199.5,486.3,199.9,485.9 M198,665.5c0,0.4,0,0.7,0.4,1.5
	c-0.7,0.4-1.1,0.4-1.9,0.7c0-0.4,0.4-1.1,0.4-1.5C196.9,665.9,197.3,665.9,198,665.5 M196.6,667.7h-0.4H196.6z M195.1,521.3
	c0,0-0.4,0-0.4-0.4h0.4V521.3z M194.4,520.9l0.4-0.4v0.4H194.4z M194.7,577.4v-0.7C194.4,576.6,194,576.6,194.7,577.4 M191,668.1
	c0,0,0-0.4-0.4-0.4h0.7C191.4,667.7,191.4,668.1,191,668.1 M190.7,667.3v0.4V667.3z M189.6,478.2l0.4,0.4c0,0,0,0.4-0.4,0.4
	c0,0,0-0.4-0.4-0.4L189.6,478.2z M184.8,526.5h-0.4v-0.4L184.8,526.5z M184,524.3l-0.4-0.4h0.7C184.4,524.3,184,524.3,184,524.3
	 M196.2,667.7c0,1.8-2.2,2.6-2.9,4.1c-0.7,1.5-1.9,3-3.3,4.8c0,0.4,0,1.1-0.4,1.8c-0.7,2.6-3.3,3.7-4.8,5.9
	c-1.1-0.7-1.9-1.5-2.2-1.8c-0.4,0-0.4,0-0.4,0.4v-0.4h0.4c0.4-1.8,1.5-3.7,2.9-4.4c1.8-1.5,2.9-3.3,4.4-5.2
	C191.8,670.7,193.2,668.5,196.2,667.7 M182.2,683.2h-0.4c0-0.4,0.4-0.4,0.4-0.4V683.2z M181.8,525.7l0.4-0.4v0.4H181.8z
	 M180.3,524.3H180H180.3z M180,524.3c-1.1,2.2-2.9,2.6-5.2,3C175.9,525.4,177.8,524.3,180,524.3 M174.8,527.2h-0.4H174.8z
	 M172.6,528c0.7-0.4,1.5-0.4,1.8-0.7C174.4,528.3,173.7,528.3,172.6,528 M171.1,529.4v0.4l-0.4-0.4H171.1z M169.6,526.5
	c0,0-0.4,0-0.4,0.4v-0.7C169.6,526.1,169.6,526.5,169.6,526.5 M168.9,683.6c0,0.4,0,0.4,0.4,0.4h1.1v-0.4H168.9z M168.9,527.2v-0.4
	h0.4C169.3,526.8,168.9,526.8,168.9,527.2 M155.2,605.4h-0.4H155.2z M154.5,638.6l0.4-0.4h-0.4V638.6z M150.1,610.9v-0.4V610.9z
	 M152.3,606.9c1.1,0,1.8-0.7,2.6-1.5c0.4,1.1,0.4,1.8-0.7,2.6c-0.4,0.4-0.7,0.7-0.7,1.1c-1.5,0-2.2,0.7-3.3,1.5
	C149.7,608.7,150.5,607.2,152.3,606.9 M143.1,694.3h-0.4c-0.7,0-2.2-0.4-2.6,1.1C141.2,695.4,142.3,695.4,143.1,694.3 M133.9,693.5
	c-1.5-1.5-3-3-5.2-3.3c-0.4,0.4-1.1,1.1-1.8,1.8c2.2,0.4,0.4,1.8,1.5,2.6C130.2,695,132,694.6,133.9,693.5 M124.7,692.1
	c-1.5,0.7-1.8-1.1-2.9,0v1.5C122.4,693.2,123.5,693.5,124.7,692.1 M109.5,670.7l-0.4-0.4h0.4V670.7z M106.6,663.7
	c0,0.7,0.4,1.1,0.4,1.8C105.5,665.5,106.2,664.4,106.6,663.7 M100.7,620.2h-0.4H100.7z M222.8,487.8c0.7,1.1,1.1,1.9,1.8,2.6
	c-0.4,0.4-0.4,1.1-1.1,1.9c-2.6,3-4.8,6.3-6.3,10c-1.8,4.1-4.1,7.4-7.4,10.3c-3,2.6-6.3,4.1-8.5,6.6c-0.7,0.7-1.5,0.7-2.2,1.1
	c-1.5,0.7-3.3,1.5-4.8,2.6c-1.1,0.7-1.9,1.5-3,1.1c-1.8,1.1,7.4-5.2,5.5-4.1c-0.7-0.4-1.9-0.4-2.6,1.1c-1.9,0.4-3.3,1.8-4.8,3.3
	c-1.1,0.7-1.9,1.1-2.9,0.7c0.4-0.4,0.7-1.1,1.1-1.5c-1.1-0.4-2.2-0.7-3.3-1.1c-0.4,0.4-0.7,0.7-1.1,1.1c0.4,0,0.4,0.4,0.4,0.4h-0.4
	v-0.4l-2.9,0.7v-1.1c1.1-0.7,2.6-1.5,3.7-2.2c0-0.7-0.4-1.1-0.4-1.5c-3.7,0.7-6.3,3.3-9.6,3.3c-0.7,1.1-1.1,1.8-1.9,3
	c-0.7-0.7-1.1-1.1-1.5-1.5h-2.6c-0.7,0.4-1.8,1.1-2.6,1.5c0,0.4,0,0.7,0.4,1.1c0.7,0.4,1.8,0.4,2.9,0.4c-0.4,1.1-1.5,1.5-2.2,1.8
	c-0.7,0.4-1.1,0.7-1.5,0.7c0.7,1.1,1.8,2.2,2.6,3.3c0.4,1.8,0.7,3.7,0.7,5.5c-0.7,3-1.9,5.5-2.9,8.8c0.4,1.8,0.7,4.4,0.7,6.7
	c0,3-1.5,5.2-1.5,7.7s-2.2,4.4-1.9,7c6.3-2.2,12.5-3.7,19.2-4.4c2.6-0.4,4.8-1.8,7.4-1.8c1.1,2.2,1.8,4.1,2.9,6.6
	c-0.4,0-0.4,0.7-0.7,1.5c0.4,1.1,0.7,2.2,1.5,3.3c0,0.4,0.7,0.7,1.5,0.7c0,0.7,0,1.1,0.4,1.8c1.1,0.4,2.2,1.1,3.7,1.8
	c1.1-0.4,2.6-0.7,4.1-1.1c0.7,0.4,1.5,0.7,2.2,1.5c0,0.4,0,0.7-0.4,0.7c-3.3,2.6-6.6,5.2-7.7,9.6c-3.7,3.3-7.4,6.3-11.4,9.2
	c-1.1,1.1-2.6,2.2-4.4,2.2c-1.1,0-1.9,0.7-2.6,1.1c-3-0.4-6.3-0.7-8.9,0.7c-3.3,1.8-7,1.8-10.3,1.8c-1.1-0.4-1.8-0.4-2.2-0.4
	c-0.7,0.4-1.5,1.1-1.9,1.5c-0.4-0.4-0.7-0.7-1.1-1.1c-0.7,0.4-1.5,0.7-1.8,1.1c-1.1,0-2.2-0.4-3.3-0.4c-0.7,1.1-1.5,2.2-2.6,3.3
	c1.1,3.7-1.8,7-1.8,10.7c1.8-0.4,2.6-1.5,2.6-2.6c0.4-2.6,1.5-4.1,3-5.5c0,0.7,0.4,1.1,0.4,2.2c1.5-1.5,2.2-2.6,2.9-4.1
	c0.4,0.4,0.4,0.4,0.7,0.4c0,1.5-0.4,3,0,4.4c0.4,1.8-0.7,3.3,0.4,5.2c-0.7,1.5-0.4,3-0.4,4.4c0,1.8-0.4,3.3,0,5.2
	c0.4,1.8,0.4,3.7,0.4,5.2s0.4,2.6,2.2,3.7c2.2-1.1,4.4-2.2,6.6-3.3c2.6-1.1,4.8-2.2,7.4-3.7c0-0.4,0.4-0.7,0.7-1.5
	c2.6-1.1,4.8-2.2,7-3.3c4.8-1.5,9.6-2.6,14-3.7c0.4-0.4,0.7-0.7,1.1-1.1c0.7-0.4,1.1-1.1,1.5-1.5c7-1.1,14-1.8,20.6-3
	c1.9-1.8,3.7-3.7,6.3-4.8c1.5,0.4,2.9,0.7,4.4,1.1c2.6,1.8,4.1,3.7,2.9,6.7c0.4,0.7,0.7,1.5,1.1,2.2c0,1.1,0,2.2,0.7,2.6
	c1.1,0,1.8-0.4,2.6-0.4c0.4,1.1-1.1,1.5-1.5,2.6c0,1.1,0,2.6,0.4,4.4c-0.4,0.4-0.7,1.1-1.1,1.8c-2.9,1.8-4.8,4.8-7,7.4
	c-2.6,4.1-5.9,7.4-9.6,10.7c-2.6,1.8-5.2,4.4-8.1,5.9c-4.4,2.2-8.1,5.2-11.4,8.5c-0.4,0-0.7-0.4-1.1-0.4c-0.7,1.5-3.3,0.7-3.7,2.6
	c-3,1.8-5.9,4.1-8.1,7c-0.7,1.1-2.2,1.8-3.7,3c-2.6,4.4-4.4,9.6-9.2,12.5c-1.5,0.4-3,0.4-5.2,0.7c-0.4,1.1-1.5,2.2-2.2,3.3
	c0.7,0.7,1.1,1.5,1.8,2.2c-2.9,1.5-5.5,1.5-8.9-0.4c0-1.1,0.4-1.8,0.4-3.3h-1.1c-1.5,1.8-3.3,3-5.2,4.1c-0.7,0-1.9-0.4-2.6-0.4
	c-1.8,0.4-3.7,0.7-5.2,1.5c-1.1-0.7-1.1-1.5-1.5-2.2c-1.1,0-2.6-0.4-3.7-0.4c-0.7,0.7-1.5,1.1-2.2,1.8c-3.3-0.4-6.6-1.1-10.3-1.5
	c-0.7-0.4-1.8-0.7-2.6-1.8c-1.5,0.4-2.2-0.4-3.3-1.5c0-0.7,0.7-1.5,1.1-1.8c0-0.4,0.4-0.4,0-0.7c-1.1-1.1-2.6-2.6-4.1-3.7
	c-0.4-1.5-0.7-3-1.1-4.4c-0.4-1.5-1.5-2.6-1.8-4.1c-0.4-1.5-1.8-2.2-2.2-3.7c0.4-0.4,0.7-0.7,1.5-1.1c0.4-2.2-1.1-4.1-1.8-5.5
	c-0.7-0.7-2.2-0.4-2.6-1.5c0.4-0.7,0.7-1.1,1.5-1.8c-1.1-1.1-2.2-2.2-2.9-3c0-0.7,0.4-1.1,0.4-1.8c-0.4-0.4-0.7-1.1-1.5-1.5
	c0,0-0.4-0.4-0.4-0.7c0.4-2.6,0.4-4.8-1.5-6.6c1.5-1.8,0.7-4.4,0.7-6.6c0.4-1.8-0.4-3.7-0.4-5.9c0-2.2-1.1-4.1-1.1-6.3
	c-0.4-0.4-1.1-0.7-1.5-1.1c0.4-0.4,0.7-1.1,1.5-1.8c-0.4-0.7-1.1-1.8-1.5-2.6c0.4-1.8,0.4-3.7,0.4-5.5c0.7-0.4,0.7-1.1,0.7-1.8
	c-0.4-1.1-0.7-2.6-1.5-4.1c0-0.4,0.4-1.5,1.1-2.6c0-3-0.7-6.6,1.5-10c-0.4-1.8,0.4-3.7,0.4-5.5c-0.4-2.2,0.4-4.1,0.4-6.3
	c-0.4-1.8,0.7-3.7,1.1-5.5c0.4-2.6,0.7-5.2,0.7-7.7c0.4-5.2,2.6-10,1.5-15.1c1.1-5.2,1.8-10.3,2.6-15.5c0.4-2.6,0.7-5.2,0.4-8.1
	c0-1.1,0-2.6,0.4-3.7c0.4-5.5,1.1-10.7,1.8-15.9c0-1.1,0.4-1.8,0.4-3c1.5-3.7,1.1-7.7,1.8-11.4v-1.5c-0.4,0.4-0.7,0.4-0.7,0.4
	c-1.5-0.7-1.5-1.8-1.5-3.3l0.4-0.4c-0.7-0.4-1.5-0.7-2.2-1.5c0.4-0.7,1.1-1.5,1.5-2.2c0-0.7-0.4-1.1-0.4-1.5v-1.1
	c1.5-0.7,2.6,1.8,4.4,1.1v-0.7h0.4c0-1.5-1.8-2.2-1.5-3.7c0.7-1.1,1.8,0.4,2.6,0s1.5-1.1,2.6-1.5c0.4,0.4,0.4,0.7,1.1,1.5
	c1.1,1.1,2.6,1.5,4.4,0.7c0.7-0.7,1.1-1.5,1.5-2.2c0.7,0,1.1-0.4,1.5-0.4c1.9,0.7,3.7,0.7,5.5,0.4c4.1-1.1,7.4,0.4,10.3,3
	c0.4,0,1.1,0,1.5-0.4c6.6-2.6,17.7-3.7,18.1-1.5c0.4,0,0.4,0.4,0.7,0.4c7.4-3.3,14.8-6.3,22.5-9.2c-0.4,0-0.4,0-0.4-0.4
	c0.4-0.4,0.4,0,0.7,0c0.4,0,1.1-0.4,1.9-0.7c0.4,0.4,0.4,0.7,0.7,0.7c0.4,0,1.1,0,1.5-0.4c0.7-0.7,1.1-1.9,1.9-3
	c5.9-1.9,0.4,2.2,7.4,2.6c-0.4,1.9-1.1,3.3-1.5,5.2c3.3-0.4,6.3-0.7,9.6-2.2c0,0,0.4-0.4,0.7-0.4c3.3-0.4,6.3-1.9,9.2-3.7
	c1.5,0.4,2.9,0.4,4.4,0.7c1.1,1.5,2.2,3,3.7,4.8C224.9,485.2,223.9,486.6,222.8,487.8 M99.9,617.9c0.4,0.7,0.4,1.5,0.4,2.2
	C99.6,619.8,99.2,619.4,99.9,617.9"/>
<path class="st0" d="M638.2,650h0.4H638.2z M637.1,647.4h0.4H637.1z M630.1,688h-1.8C628.6,688.7,629.3,688.7,630.1,688 M628.2,688
	c0-0.7-0.4-0.7-0.7-0.7C627.5,687.6,627.8,688,628.2,688 M625.6,689.8c0.4,0,0.4,0.4,0.4,0.4h-0.4V689.8z M624.5,644.8
	c1.5,2.2,3.3,4.1,3.7,7c0.4,0.7,0.7,1.8,1.5,2.2c1.1,0.4,1.1,1.1,1.8,1.8c0.4,0.7,1.1,1.5,1.8,1.8c0.7,0.4,1.8,0.7,2.6,1.1
	c0-0.7,0-1.1-0.4-1.5c-0.7-1.5-1.8-2.2-2.6-3.7s-1.5-2.6-2.2-3.7c-0.7-0.7-1.5-1.8-1.8-2.6v-1.1c-1.5-1.1-2.6-3-4.1-4.4
	C624.2,643,624.5,643.8,624.5,644.8 M624.2,690.6c0.4-0.7,1.1-0.4,1.5-0.4c0.4,0.4,0.7,0.7,0.7,1.1
	C625.3,692,624.9,691.3,624.2,690.6 M623,686.9h-0.4v-0.4C622.7,686.5,622.7,686.9,623,686.9 M620.5,687.6c0.7,0.7,1.1,1.1,1.5,1.5
	C620.8,689.5,620.5,689.1,620.5,687.6 M618.6,683.6c1.5,0.7,3,1.5,4.1,3h-1.5c-0.7-0.7-1.8-1.5-3-2.6L618.6,683.6z M617.9,629.4
	c-0.4,1.8,0.4,3,1.8,4.1c0.4-0.7,0.4-1.1,0.4-1.5C619.4,630.8,619.4,629.7,617.9,629.4 M615.7,678.4c0,0.4,0,0.7,0.4,0.4
	L615.7,678.4z M614.2,681.4h1.5C614.9,682.1,614.6,682.1,614.2,681.4 M614.2,681.4h-0.4V681C613.8,681.4,613.8,681.4,614.2,681.4
	 M613.5,681c0.4-0.4,0.4,0,0.4,0H613.5z M613.5,667.3c0.7,1.5,2.2,2.2,3.7,3.3C616,668.1,614.9,667.3,613.5,667.3 M612.7,676.9
	c-0.4,0-0.4,0-0.4-0.4C612.4,676.6,612.4,676.9,612.7,676.9 M612.4,594v-0.4V594z M612,676.6l-0.4-0.4v-0.4
	C611.6,676.2,612,676.2,612,676.6 M611.6,675.8c-0.7,0.4-0.7,0-1.1-0.4C611.2,675.5,611.2,675.5,611.6,675.8 M610.5,675.1v0.4
	c0-0.4,0-0.4-0.4-0.7L610.5,675.1z M610.2,674.7h-0.7v-0.4h0.4C609.8,674.4,609.8,674.7,610.2,674.7 M609.4,674.4c0,0-0.4,0-0.4-0.4
	C609.4,674,609.4,674,609.4,674.4 M608.7,660.7c0.4,0.7,0.7,1.1,1.5,1.8c0.7,0,0.7-0.7,0.7-1.5C609.4,660,609.4,660,608.7,660.7
	 M607.6,676.6l0.4,0.4h-0.4V676.6z M606.5,675.5v-0.4V675.5z M607.2,672.9c-0.4-0.7-0.4-1.1-0.7-1.5
	C607.2,671.4,607.6,671.8,607.2,672.9 M606.5,671.4V671V671.4z M605.4,657c0,1.1,0,1.1,1.5,1.1C606.5,657.8,606.1,657.4,605.4,657
	 M606.5,671c-1.1,0-1.5-0.4-1.8-1.5C606.1,669.6,606.1,669.6,606.5,671 M605,665.1l-0.4,0.4c0,0,0-0.4,0.4-0.7V665.1z M604.6,669.6
	c-1.5-0.7-2.2-1.5-2.2-3C604.2,667,604.6,668.1,604.6,669.6 M600.9,669.2c0.4,0,0.4,0,0.4,0.4C600.9,669.6,600.9,669.6,600.9,669.2
	 M600.9,668.8v0.4c-0.4,0-0.4-0.4-0.4-0.4H600.9z M600.9,666.2c-0.4-0.7-0.4-1.1-0.4-1.5C601.3,664.8,601.3,665.1,600.9,666.2
	 M600.2,668.8c0.4-0.4,0.4,0,0.4,0H600.2z M600.2,664.4h0.4v0.4h-0.4V664.4z M600.2,664.4c-0.7,0-0.7-0.7-0.7-1.5
	C600.6,662.9,600.2,663.7,600.2,664.4 M599.5,662.9h-0.4v-0.4C599.1,662.6,599.1,662.9,599.5,662.9 M598.7,662.6v-0.4
	c0,0.4,0.4,0.4,0.4,0.4H598.7z M596.1,662.6v0.4h-0.4L596.1,662.6z M596.1,655.9c0.7,1.1,1.5,3.7,1.8,5.2c-2.2-1.1-2.6-3-3.7-4.4
	c0.4-0.4,0.4-0.7,0.7-1.5C595.4,655.5,595.8,655.5,596.1,655.9 M593.6,655.2c-1.1-1.5-0.7-3-1.1-4.4c0.4,0.4,0.7,0.4,0.7,0.4
	C593.6,652.2,593.9,653.7,593.6,655.2 M591.3,649.3c1.1,0,1.1,0.7,1.1,1.5C591.7,650.8,591.7,650,591.3,649.3 M591.3,648.9v0.4
	V648.9z M591,644.5v0.4V644.5z M598.7,643.4c0-1.1,0-1.8-0.4-2.6c-0.7-2.2-1.8-4.1-3-5.9c-1.1-1.5-2.6-2.6-1.8-4.4
	c-1.1-2.6-1.5-4.8-2.2-7.4c-0.4,1.8-0.4,4.1-0.7,5.9c0.4,0.4,0.4,0.7,0.4,1.1c0.4,2.6,1.8,4.4,3,6.3c0.7,1.8,1.8,3.7,3,5.5
	C597.2,642.3,598,643,598.7,643.4 M590.6,653c0.4,0.4,0.7,0.7,1.1,1.1C590.6,654.4,590.2,654.4,590.6,653 M590.2,644.8h0.7
	c0,1.5,0.4,2.6,0.4,4.1c-0.4,0-0.7-0.4-0.7-0.7C590.2,647.1,590.2,646,590.2,644.8 M590.2,644.8h-0.4v-0.4h0.4V644.8z M621.2,527.6
	c-5.5-2.6-11.4-3-17.7-4.1c-2.2-0.4-4.8-0.7-7-1.1c-4.8-0.7-9.6-1.1-14.4-1.5c-1.8,0-3.7,0.4-5.5,0c-2.2-0.7-4.4,0.4-6.3,0
	c-1.5-0.4-2.6-0.7-4.1-0.7c-1.5-0.4-3-0.7-4.1,0.4c0.4,3.3,1.1,6.6,2.6,9.2c0.4,1.8,0.4,3.7,0.7,5.5c0.7,1.8,0.7,3.7,1.1,5.5
	c0,1.8,0.4,3.7,0.7,5.2c0.4,1.8,0.4,3.7,0.7,5.2c0.4,2.2,0.4,4.1,0.7,5.9c0.4,1.5,0.7,3.3,0.4,4.8c0.7,0.4,1.1,0.4,1.5,0.7
	c1.1-0.4,1.8-0.7,3-1.1c10-7.7,20.7-14.8,31.7-21c4.8-3,9.2-6.3,14-9.2c0.4-0.7,1.1-1.1,1.5-1.8C621.6,529.1,622,528.3,621.2,527.6
	 M652.9,532.4c-0.4,0.7-0.7,1.5-1.1,2.2c0.4,0.7,1.1,0.7,1.8,0.7c-1.1,1.5-1.5,3.3-1.8,4.8c-1.5,3.7-3.7,6.6-5.5,10.3
	c-0.4,1.1-1.1,1.8-1.8,2.6c-3,2.6-5.2,5.5-8.5,7.4c-5.9,3.7-11.4,8.5-17.7,11.4c-4.4,1.8-8.8,4.4-12.9,6.7c0,0.4,0.4,0.7,0.7,1.1
	c0.4,8.5,1.8,16.6,5.9,24.7c0,0.4-0.4,0.7-0.4,1.1c1.5,2.6,2.6,5.5,4.1,8.1c0,0.4,0.4,0.7,0.4,1.1c0.4,5.2,2.6,9.6,5.5,13.6
	c0.4,0,0.4,0,0.4,0.4c0,0.7,0,1.5,0.4,2.2c0.7,2.2,3,4.1,3,7c0.7,0.7,1.5,1.8,2.2,2.6c0,0,0.4-0.4,0.7-0.4c0.4,1.1,1.1,2.2,1.8,3.3
	c0.4,1.1,1.5,1.8,1.8,3c0.4,1.5,1.1,2.6,1.8,3.7c1.1,1.1,1.8,2.2,2.2,4.1c1.1,0.7,1.8,1.8,3.3,3c1.5,1.1,2.2,2.6,2.2,4.4
	c-0.4,0.4-0.7,0.7-1.1,0.7c0,0.4,0,0.4,0.4,3c1.1,1.5,2.2,3,3.7,4.1c0.7,1.1,1.1,2.2,1.8,3.3c3,1.1,4.1,3.7,6.3,5.5
	c-0.4,0.7-0.7,1.5-1.1,2.6c-0.4,0.4-0.4,1.1-0.7,2.2v6.3c-0.4,0.4-1.1,1.1-1.8,1.1c-1.1,0.7-2.2,0.7-3.3,1.1s-2.6,0.4-3.7,0.7
	c-1.1,0-2.2,0-3.3-0.4h-1.8c-2.2,0.4-4.1,0-5.9-0.4c-1.5,0-2.6-0.4-3.7-1.1c-0.4-0.4-0.7-0.4-1.5-0.4c-0.4-0.4-0.7-0.7-1.1-1.1
	c-0.7-0.7-1.1-1.5-1.5-1.8c0.7-0.4,1.8,0,2.6,0.4h1.5c0-1.1-0.7-1.5-1.5-1.5c-1.1-0.4-1.8-1.5-2.6-2.2c-3-1.1-5.9-2.6-8.8-4.1
	c-0.4-0.4-1.1-0.7-1.5-1.1V677c1.1,0.4,1.5,1.5,2.6,1.5v-1.1c-0.7-0.7-1.5-1.5-2.2-2.2c-1.1-1.1-1.5-2.6-3-3.7
	c-1.1-0.7-2.2-2.2-3.3-3.3V667c-0.7-0.7-0.7-1.8-1.8-2.2c0-0.4-0.4-1.1-0.4-1.8c-1.1-1.5-2.2-3-3.3-4.4c-2.2-3.3-4.8-6.6-7-10
	c-0.7-1.1-1.1-1.8-1.8-3c-0.4-0.4-0.7-1.1-1.5-1.1c-0.4-1.1-0.7-2.2-1.1-3.3c-0.4,1.1-0.4,2.2-0.4,3.3c0.4-0.4,0.4,0,0.4,0h-0.4
	c0,3.3,0,6.7,0.4,9.6c-0.7-0.4-1.1-1.1-1.8-1.8c-1.1-0.7-1.8-1.8-3-3c0,0.7-0.4,1.1-0.4,1.5c0.4,1.5,0.7,2.6,0.7,4.1
	c0,0.7-0.4,1.8-0.7,3c0.4,0.7,0.7,1.8,1.1,3c-0.7,1.8-1.5,4.4,0,6.7c-1.8,6.3-4.1,12.9-6.7,18.8c-0.7,1.8-1.5,3.7-2.6,5.5
	c-1.5,3-1.8,6.6-3.3,9.6c-1.5,3-1.5,5.9-2.6,8.8c-0.7,1.8-0.7,3.7-1.1,5.9h-1.8c-0.4,0.7-1.1,1.5-2.2,2.6c0,0-0.4,0.4-0.7,0.4
	c-0.7,0-1.5,0-1.8,0.4c-3.7,2.2-6.6,0.4-9.2-1.8c-2.2-1.8-4.1-4.1-5.5-7c-1.1-3.3-2.6-6.3-5.2-8.8c-0.7-0.7-0.7-1.8-1.1-2.6
	c0.7-0.7,1.5-1.1,2.2-1.5c-1.1-5.5-3-10.7-5.2-15.9l-0.4-0.4c-0.7-3.3-1.5-6.6-3.7-9.2c1.1-2.2,1.8-3.7,2.6-5.5
	c0.4-3.3-0.7-6.3-1.5-9.2c-1.1-3.3-0.7-6.6,0-10c0.4-3,0.7-5.9,0-8.8c-0.4-1.5-0.7-3-0.7-4.4v-19.9v-7.4c-0.7-1.8-1.5-3.3-2.2-4.8
	V594c0-1.8,0-3.7,0.4-5.5c0-1.8,0-3.7,0.4-5.5c0.4-0.4,0-1.1,0.4-1.8c0-2.2-0.7-4.4-0.4-6.6c0.4-2.6,0.4-4.8,0.4-7v-6.6v-7
	c0.4-3.3-0.7-6.7-2.2-10.3c0-10.7,0-21.8-0.4-33.2c0-1.8,0.4-4.1-0.7-6.3c0-0.4,0.7-1.5,0.4-2.2c-0.7-2.6,1.1-4.8,0.4-7.4
	c-1.1-2.2-1.1-4.8-2.2-7c0-0.7,0-1.1,0.4-2.2h3.3c1.8,0.4,3-0.4,4.4-0.4h3.7c3-1.1,5.9-2.2,8.8-3.3h29.5c4.4,1.1,9.2,0.7,14,1.5
	c6.3,1.1,12.5,2.6,18.4,1.9c2.2,0.7,4.1,1.5,5.9,1.8c4.1,0.7,7.7,3,11.4,5.2c4.1,3,7.7,5.9,11.8,8.9c3,2.6,4.8,5.5,6.6,8.9
	c1.5,1.8,2.6,3.7,4.1,5.5c2.6,3.3,4.1,7.4,3,11.4C654.4,528.7,653.7,530.5,652.9,532.4"/>
<path class="st0" d="M1098.2,518.7V518v0.4V518.7z M1097.5,543.4h0.4v0.4L1097.5,543.4z M1097.9,516.5c-0.4-0.7-0.7-1.5-1.1-2.2
	c0.7,0,1.5-0.4,2.2,0C1098.6,515,1098.2,515.8,1097.9,516.5 M1096.8,523.9c-0.7-0.4-0.7-1.1-0.4-1.5
	C1097.1,522.8,1097.5,523.2,1096.8,523.9 M1096.8,514.3c-0.4-0.4-0.7-0.4-1.1-0.4c-0.4-1.5-0.7-3-0.4-4.1c0.7-1.5-0.4-2.6-0.4-3.7
	h1.1C1097.5,508.8,1097.9,511.4,1096.8,514.3 M1092.7,542.7c-1.1,1.1-1.8,1.8-0.7,3.3C1093.1,545.3,1093.8,544.2,1092.7,542.7
	 M1091.2,502.1c-0.4-1.8-0.4-2.6-0.7-3.7C1092,499.2,1091.6,500.3,1091.2,502.1 M1087.2,565.2c-2.2,0-2.2,0-1.5,2.2
	C1086.1,566.7,1086.8,565.9,1087.2,565.2 M1083.8,588.4c-0.4,0.4-0.4,0.4-0.7,0.4c0,0,0-0.4,0.4-0.7
	C1083.5,588.4,1083.5,588.4,1083.8,588.4 M1083.1,589.2h-0.4c0,0,0.4,0,0.4-0.4V589.2z M1080.2,591.8c0.4-0.7,0.4-1.5,0.4-2.2
	c0.7,0,1.5,0,2.2-0.4c0.4,1.1,0,1.8-0.4,3c-0.7,0.7-1.5,1.1-2.2,1.1V591.8z M1079.8,593.2h0.4v0.4c-0.4,0.4-0.7,0.7-1.1,1.5h-0.4
	v-0.4C1079.1,594.3,1079.4,594,1079.8,593.2 M1077.9,595.4c0.4,0,0.7,0,0.7-0.4v0.7C1078.3,595.8,1078.3,595.8,1077.9,595.4
	 M1076.1,597.6c0-0.4,0-0.4-0.4-0.7h0.7C1076.5,597.3,1076.5,597.3,1076.1,597.6 M1075.4,596.5h0.4v0.4h-0.4V596.5z M1073.5,484.1
	c0,0.4-0.4,0.4-0.4,0.7v-0.7H1073.5z M1072.8,485.2v-0.4h0.4C1073.2,484.8,1072.8,484.8,1072.8,485.2 M1061.7,611.3h-0.4v1.1h0.4
	V611.3z M1057.3,623.5c-0.4,0-0.4-0.4-0.7-0.7h2.9C1058,623.1,1057.7,623.5,1057.3,623.5 M1051,588.1l-0.4-0.4v0.7
	C1050.7,588.4,1051,588.4,1051,588.1 M1050.3,589.9v-0.7c-0.4,0-0.4,0-0.7,0.4C1049.9,589.5,1049.9,589.5,1050.3,589.9
	 M1042.6,588.8c0.4,0,0.7-0.4,1.1-0.4c0-0.4-0.4-0.4-0.4-0.4c-0.4,0-0.7,0.4-1.1,0.4C1042.2,588.4,1042.2,588.8,1042.6,588.8
	 M1040,580.7h0.4H1040z M1047,593.6c-1.1-0.7-1.8,0-1.8,1.1c-0.7-0.4-1.1-0.4-1.8-0.7c-0.7,0.7-1.5,1.5-2.6,2.2
	c0.4,0.4,0.4,1.1,0.7,1.5c-0.7,0.4-1.1,0.4-1.8,0.7c0.4,0.7,0.4,1.5,0.4,2.2c2.2-1.5,4.8-3,5.5-5.9
	C1046.2,594.7,1047,594.7,1047,593.6 M1039.6,598c-0.4-0.4-0.4-0.7-1.1,0H1039.6z M1037,581.8c1.1-0.4,1.8-0.7,3-1.1
	c-0.4,1.5-1.8,2.2-3,3V581.8z M1036.6,584.4c0,0,0-0.4,0.4-0.7C1037,584,1036.6,584.4,1036.6,584.4 M1035.2,597.3
	c-0.7,0-1.8-0.4-1.8,0.7C1034.1,597.6,1034.8,597.6,1035.2,597.3 M1032.9,599.1c0-0.4,0-0.7,0.4-0.7
	C1032.9,598.4,1032.2,598.4,1032.9,599.1 M1028.9,616.5c-1.5,0.4-2.6,0.4-3.3,0.7c-0.4,1.1-1.1,1.1-2.2,1.5c0,0.4,0,0.7,0.4,1.1
	c0.7,0,1.8,0,2.6-0.4s1.1-0.7,1.5-1.5C1028.2,617.9,1028.5,617.2,1028.9,616.5 M1023,617.2h0.4v0.4h-0.4V617.2z M1023.4,615.3
	c0,0.7,0,1.5-0.4,1.8c-0.4,0-0.7-0.4-1.1-0.7C1021.9,615.3,1022.6,615.3,1023.4,615.3 M1020.8,602.1l0.4,0.4h-0.4V602.1z
	 M1017.1,606.5c0,0.4,0,0.7-0.4,0.7l-0.4-0.4c0-0.4,0.4-0.4,0.4-0.4H1017.1z M1014.5,608.3h0.4l-0.4,0.4V608.3z M1038.5,603.9
	c0.4-1.1,1.1-2.2,1.5-3c-1.1,0.4-2.2,0.4-3,0.7c-0.4-0.4-1.1-0.7-1.5-1.1c-1.1,1.5-2.2,2.6-2.9,3.7c-3,1.1-5.9,0.4-8.8,2.2
	c1.1,0.7,1.5,1.1,2.2,1.1c1.1,0,1.5-0.4,1.5,0.7c-2.2,2.6-4.8,3.7-8.1,2.6c-2.2,1.5-4.1,3.3-5.9,4.8c-0.7,1.8-1.5,3.7-1.8,4.8
	c0,1.5,0.4,2.6,0.4,3.7c1.1-0.7,1.8-1.1,3-1.5c0.7-0.4,1.8-0.7,2.6-0.7c0.7-1.5,1.1-2.2,1.5-3.3c0.4,0,0.7,0.4,1.1,0.4
	c0.4,0.4,0.7,1.1,1.1,1.8c-1.1,0.7-2.2,1.5-3.3,2.6c-0.4,0.4-0.7,0.7-1.1,1.5c-1.5-0.4-3,0.7-4.4,2.2c1.1,1.1-1.5,2.6,0,4.1
	c3-1.1,4.4-3.3,4.8-6.3c2.6-0.4,4.8-1.5,6.7-3.3c0-0.7-0.4-1.1-0.4-1.8c-1.1-0.4-1.1-0.4,0-1.1v-1.1c0.7-0.4,1.5-0.4,2.2-0.7v-1.5
	c0.7-0.7,1.5-1.1,2.6-1.8c-1.1-0.7-2.2,0.4-2.9-1.1c1.1-0.7,1.8-1.5,2.9-2.2c1.1,0.7,2.2,1.1,3.3,1.5v-1.1c-0.4-0.7-0.4-1.1-0.7-1.8
	C1033.3,607.2,1035.9,605.4,1038.5,603.9 M1064.3,518.4c-2.2-4.1-4.8-7.4-8.1-10.3c-3-1.9-5.5-3.3-8.5-4.8h-10
	c-2.9-0.4-5.5,0-7.7,1.1c-1.1,0.7-2.2,1.1-3.7,0.7c-0.7,0-1.5,0.4-2.2,0.4c-2.2,0.7-4.8,1.5-7,2.2s-4.4,1.5-7,2.2
	c-3.3,0.7-6.6,2.6-10.3,3.7c-1.1,0.4-1.8,1.1-3,1.8c0.7,4.1,5.5,4.8,6.7,8.1c0.7,5.5,3.3,10.3,6.3,15.1c1.1,2.2,1.5,4.1,0.7,6.6
	c0,0.4-0.4,1.1,0,1.8c0,2.6-0.4,5.2,0,7.7c0.4,3,0.4,5.5,0.4,8.5c0.4,3,1.1,5.5,1.5,8.5c0,1.1,0.4,1.8,0.4,3c-0.4,4.8-0.7,10,0,14.8
	c0.4,0.4,0.4,1.1,0.4,1.8c-1.1,6.7,0,13.3-0.4,20.7c1.1-0.4,1.8-0.7,2.6-1.1c1.5-1.8,3-3.7,4.8-5.2c1.5-1.5,3.7-2.6,5.2-4.4
	c1.5-1.5,2.9-3,4.1-4.8c-0.4-0.4-0.7-0.4-0.7-0.4c0-0.4,0.4-0.7,0.4-1.1c0.4,0.4,0.4,0.7,0.4,1.1c1.1,0,2.2,0,2.2-1.5
	c-0.7,0.4-1.5,0.4-2.2,0.4c0.7-1.5,1.1-1.5,2.2-0.4c0.4,0,1.5,0,1.5-0.4c1.5-1.8,2.2-3.3,3.7-5.5c1.8-1.5,4.8-3,6.7-5.5
	c-0.4-1.1-0.7-1.8-1.1-2.6h-1.8c0.7-1.8,1.1-3.3,2.2-4.8c1.1-1.8,0.7-4.1,1.1-5.5c2.2-2.2,4.1-4.1,5.5-6.3c1.5-1.5,3-3.3,4.1-5.2
	c1.1-1.8,1.1-4.4,0.7-6.3c1.5-2.2,2.9-4.4,4.4-6.7c2.9-4.8,5.2-10.3,7-15.9C1066.9,526.1,1066.5,522,1064.3,518.4 M981.3,490.7H981
	c-0.4,0-0.4,0-0.4,0.4h0.4L981.3,490.7z M1099.3,522.4c0.7,2.6,0.4,5.2-0.4,7.7c-0.4,1.1-0.7,2.2-1.1,3.7c0.4,0.7,0.7,1.8,1.1,3
	c-0.7,1.1-1.8,2.6-2.2,4.1c-0.7,1.1-1.1,2.6-1.5,4.1c0.4,0.7,0.7,1.1,1.1,2.2c-0.4,0.7-1.1,1.5-1.8,2.2c0,0.7,0,1.5,0.4,2.6
	c0.7-0.4,1.5-0.4,2.2-0.7c0.4,2.2-2.2,2.2-2.6,4.1c0.7,0.4,1.5,0.7,1.8,0.7c0.7,1.5-0.4,2.2-0.7,3.3c-0.4,3.3-0.4,6.3-0.4,9.6
	c-1.1,2.2-2.6,4.8-3.7,7.4v1.8c-1.1,3.7-4.4,5.5-6.6,8.5c-0.7-0.4-1.1-0.4-1.8-0.7c-1.5,1.1-2.2,2.2-2.6,3.7c-2.2,1.8-3.7,4.4-5.2,7
	c-0.7,0.7-1.8,1.5-2.9,2.6c0.7,0.4,1.5,0.7,2.2,1.1c-4.4,0.7-7,3.3-8.8,6.6c-0.7,1.1-1.8,1.8-2.6,2.6c0.7,0.4,1.1,0.7,2.2,1.1
	c-1.1,1.8-2.2,3-3.3,4.4c-1.8,1.8-3.3,3.7-4.8,5.5c-0.4,0.7-0.7,1.5-0.7,2.2c-1.8,1.1-1.1,3.3-2.6,4.4c-1.1,1.1-2.2,2.6-2.9,4.1
	c-1.5,3-3.3,5.5-2.9,9.2c-3.7,1.5-5.5,4.4-8.1,7.7c0.4,0.7,0.4,1.8,0.4,3c-0.7,1.1-1.5,2.6-2.2,4.4c-2.2,1.8-3.7,4.4-5.5,7
	c-1.1,1.8-2.6,4.1-4.1,5.9c-1.1,1.5-2.2,3.3-4.1,3.7l-0.4,0.4c-1.8,1.5-3,3.3-4.8,4.8c-1.8,1.1-3,3.3-4.4,4.8h-4.1
	c-1.1,1.5-2.6,2.2-3.3,3.7c-1.1,1.5-2.2,2.6-3.7,3.3c-0.7,0.4-1.5,0.4-2.2,0.4c-0.4,0.4-0.4,1.1-0.7,1.5c-0.7-0.4-1.1-0.7-1.8-1.5
	c-0.7,0.4-1.8,1.1-3,1.5c-1.1,0.4-1.8,1.5-3,2.2c-3,2.2-5.9,4.1-8.5,5.9c-5.5,1.8-9.6-0.4-14.4-2.2c-0.4-1.1-0.7-2.6-1.5-4.4
	c-0.7-2.2-4.1-3-5.2-5.5c-0.4-0.4,0-0.4,0-0.7c0.4,0,1.1,0,1.8,0.4c0-2.2-3-4.1-1.1-6.7c-0.7-0.4-1.5-0.7-2.2-1.1
	c0,1.8,0.4,3.7,0.4,5.5h-0.7c-0.4-1.8-1.1-3.7-1.5-5.9c1.1-1.1,1.8-2.2,2.6-3.7c0.4-1.8,0.4-4.1,0.4-6.6c-3-4.4-1.8-10.7-4.4-15.5
	c0-3.7,0.4-6.6,0-10c-0.7-9.2-1.1-18.1-0.4-27.3c0-2.6,0-5.2-1.5-7.7c1.1-4.1-0.4-8.8,0.7-13.3c-0.4-0.7-0.7-1.5-1.5-2.6
	c0.4-0.4,0.7-1.1,1.1-1.5c-0.4-1.5-1.1-3-0.7-4.1c0.4-2.6,0-5.2-0.4-7.4c-0.4-3.3,0-7,0-10.3c0-2.6-0.4-5.2,0.4-7.7
	c0.4-1.8-0.4-3.7-0.7-5.9c0-1.1,0.4-2.6,0.4-3.7c0-1.5,0.4-3,0.4-4.4c-0.4-4.4-0.7-8.8-1.1-13.3c-0.4-3-0.4-6.3-0.7-9.2
	c-0.4-3,0.4-5.5,0.7-8.5c0.7-4.1,0.4-8.1,0.7-12.2c0.4-2.6,0.4-5.2,0.4-7.4c-1.1-1.1-1.5-1.8-2.2-3c0.4-1.1,1.5,0,2.2-0.7
	c0-0.4,0-1.1,0.4-2.6c0.7-0.4,1.5-1.1,2.2-1.8c2.6-0.4,5.2-1.1,7.4-1.5c1.8,0.7,3.7,1.1,5.5,1.5c1.5,0.4,3,0.7,4.4,1.1
	c2.2-1.1,4.8-1.8,7-1.8c2.6,0.7,3,3,3.7,4.8v1.9c0.4,0.4,0.7,1.1,1.1,1.9c0.7,0,1.1,0,1.5-0.4c6.6-4.1,14-7.4,21-10.3
	c0.4,0,0.4-0.4,0.7-0.4c8.1-1.8,15.9-5.2,24.3-5.5c5.5,0,11.1-1.1,16.2,0.7c2.2,0.4,4.1,0,6.6,0.4c1.8,0.7,4.1,1.1,5.9,3.3
	c1.1-0.4,1.8-0.4,3-0.4c1.8,0.7,3.3,1.1,5.2,1.5c0.7,1.5,2.6,1.5,3.7,2.6c1.1,1.1,2.6,1.8,4.1,2.6c1.5,0.7,3.3,1.9,4.4,3
	c1.1,1.5,2.2,3.3,2.6,4.8c0.4,2.2,2.2,4.1,1.8,6.3c1.1,0.4,1.8,0.4,3,0.4v1.5c-1.1,0.4-1.8,1.1-2.6,1.5c1.1,1.8,1.8,3.7,3.3,6.3
	c0.4,1.5,0.4,4.1,0.4,6.3c0.4,0.4,0,0.4,0,0.7c0.7,1.1,1.5,2.2,1.5,3.7c0,1.1-0.4,3,0,3.7c1.1,1.5-0.4,2.6,0,4.1
	c0.4,0.4,0,1.5,1.5,1.8c0.7-4.4,2.2-8.5,1.8-12.9C1099.7,520.6,1099.3,521.7,1099.3,522.4"/>
<path class="st0" d="M207.2,873.6h-1.1c0,0.4,0.4,0.7,0.4,1.1C206.9,874.3,206.9,873.9,207.2,873.6 M205.4,1053.2
	c0,0.4,0,0.7,0.4,1.5c-0.7,0.4-1.1,0.4-1.9,0.7c0-0.4,0.4-1.1,0.4-1.5C204.3,1053.5,204.7,1053.5,205.4,1053.2 M203.9,1055.4h-0.4
	H203.9z M202.5,909c0,0-0.4,0-0.4-0.4h0.4V909z M201.7,908.6l0.4-0.4v0.4H201.7z M202.1,965v-0.7C201.7,964.3,201.4,964.3,202.1,965
	 M198.4,1055.7c0,0,0-0.4-0.4-0.4h0.7C198.8,1055.4,198.8,1055.7,198.4,1055.7 M198,1055v0.4V1055z M196.9,865.8l0.4,0.4
	c0,0,0,0.4-0.4,0.4c0,0,0-0.4-0.4-0.4L196.9,865.8z M192.1,914.1h-0.4v-0.4L192.1,914.1z M191.4,911.9l-0.4-0.4h0.7
	C191.8,911.9,191.4,911.9,191.4,911.9 M203.6,1055.4c0,1.8-2.2,2.6-2.9,4.1c-0.7,1.5-1.9,2.9-3.3,4.8c0,0.4,0,1.1-0.4,1.8
	c-0.7,2.6-3.3,3.7-4.8,5.9c-1.1-0.7-1.8-1.5-2.2-1.8c-0.4,0-0.4,0-0.4,0.4v-0.4h0.4c0.4-1.8,1.5-3.7,2.9-4.4
	c1.8-1.5,2.9-3.3,4.4-5.2C199.1,1058.3,200.6,1056.1,203.6,1055.4 M189.6,1070.9h-0.4c0-0.4,0.4-0.4,0.4-0.4V1070.9z M189.2,913.4
	l0.4-0.4v0.4H189.2z M187.7,911.9h-0.4H187.7z M187.3,911.9c-1.1,2.2-2.9,2.6-5.2,3C183.3,913,185.1,911.9,187.3,911.9 M182.2,914.9
	h-0.4H182.2z M180,915.6c0.7-0.4,1.5-0.4,1.9-0.7C181.8,916,181.1,916,180,915.6 M178.5,917.1v0.4l-0.4-0.4H178.5z M177,914.1
	c0,0-0.4,0-0.4,0.4v-0.7C177,913.8,177,914.1,177,914.1 M176.3,1071.2c0,0.4,0,0.4,0.4,0.4h1.1v-0.4H176.3z M176.3,914.9v-0.4h0.4
	C176.6,914.5,176.3,914.5,176.3,914.9 M162.6,993h-0.4H162.6z M161.9,1026.2l0.4-0.4h-0.4V1026.2z M157.5,998.6v-0.4V998.6z
	 M159.7,994.5c1.1,0,1.9-0.7,2.6-1.5c0.4,1.1,0.4,1.8-0.7,2.6c-0.4,0.4-0.7,0.7-0.7,1.1c-1.5,0-2.2,0.7-3.3,1.5
	C157.1,996.4,157.8,994.9,159.7,994.5 M150.5,1081.9h-0.4c-0.7,0-2.2-0.4-2.6,1.1C148.6,1083,149.7,1083,150.5,1081.9 M141.2,1081.2
	c-1.5-1.5-3-2.9-5.2-3.3c-0.4,0.4-1.1,1.1-1.9,1.8c2.2,0.4,0.4,1.8,1.5,2.6C137.6,1082.7,139.4,1082.3,141.2,1081.2 M132,1079.7
	c-1.5,0.7-1.9-1.1-2.9,0v1.5C129.8,1080.8,130.9,1081.2,132,1079.7 M116.9,1058.3l-0.4-0.4h0.4V1058.3z M113.9,1051.3
	c0,0.7,0.4,1.1,0.4,1.8C112.8,1053.2,113.6,1052.1,113.9,1051.3 M108.1,1007.8h-0.4H108.1z M230.1,875.4c0.7,1.1,1.1,1.8,1.8,2.6
	c-0.4,0.4-0.4,1.1-1.1,1.8c-2.6,3-4.8,6.3-6.3,10c-1.8,4.1-4.1,7.4-7.4,10.3c-2.9,2.6-6.3,4.1-8.5,6.7c-0.7,0.7-1.5,0.7-2.2,1.1
	c-1.5,0.7-3.3,1.5-4.8,2.6c-1.1,0.7-1.9,1.5-3,1.1c-1.8,1.1,7.4-5.2,5.5-4.1c-0.7-0.4-1.8-0.4-2.6,1.1c-1.9,0.4-3.3,1.8-4.8,3.3
	c-1.1,0.7-1.9,1.1-2.9,0.7c0.4-0.4,0.7-1.1,1.1-1.5c-1.1-0.4-2.2-0.7-3.3-1.1c-0.4,0.4-0.7,0.7-1.1,1.1c0.4,0,0.4,0.4,0.4,0.4h-0.4
	v-0.4l-2.9,0.7v-1.1c1.1-0.7,2.6-1.5,3.7-2.2c0-0.7-0.4-1.1-0.4-1.5c-3.7,0.7-6.3,3.3-9.6,3.3c-0.7,1.1-1.1,1.8-1.9,3
	c-0.7-0.7-1.1-1.1-1.5-1.5h-2.6c-0.7,0.4-1.8,1.1-2.6,1.5c0,0.4,0,0.7,0.4,1.1c0.7,0.4,1.8,0.4,2.9,0.4c-0.4,1.1-1.5,1.5-2.2,1.8
	c-0.7,0.4-1.1,0.7-1.5,0.7c0.7,1.1,1.8,2.2,2.6,3.3c0.4,1.8,0.7,3.7,0.7,5.5c-0.7,3-1.9,5.5-2.9,8.8c0.4,1.8,0.7,4.4,0.7,6.7
	c0,3-1.5,5.2-1.5,7.7s-2.2,4.4-1.9,7c6.3-2.2,12.5-3.7,19.2-4.4c2.6-0.4,4.8-1.8,7.4-1.8c1.1,2.2,1.8,4.1,2.9,6.6
	c-0.4,0-0.4,0.7-0.7,1.5c0.4,1.1,0.7,2.2,1.5,3.3c0,0.4,0.7,0.7,1.5,0.7c0,0.7,0,1.1,0.4,1.8c1.1,0.4,2.2,1.1,3.7,1.8
	c1.1-0.4,2.6-0.7,4.1-1.1c0.7,0.4,1.5,0.7,2.2,1.5c0,0.4,0,0.7-0.4,0.7c-3.3,2.6-6.6,5.2-7.7,9.6c-3.7,3.3-7.4,6.3-11.4,9.2
	c-1.1,1.1-2.6,2.2-4.4,2.2c-1.1,0-1.9,0.7-2.6,1.1c-3-0.4-6.3-0.7-8.9,0.7c-3.3,1.8-7,1.8-10.3,1.8c-1.1-0.4-1.8-0.4-2.2-0.4
	c-0.7,0.4-1.5,1.1-1.9,1.5c-0.4-0.4-0.7-0.7-1.1-1.1c-0.7,0.4-1.5,0.7-1.9,1.1c-1.1,0-2.2-0.4-3.3-0.4c-0.7,1.1-1.5,2.2-2.6,3.3
	c1.1,3.7-1.8,7-1.8,10.7c1.8-0.4,2.6-1.5,2.6-2.6c0.4-2.6,1.5-4.1,3-5.5c0,0.7,0.4,1.1,0.4,2.2c1.5-1.5,2.2-2.6,2.9-4.1
	c0.4,0.4,0.4,0.4,0.7,0.4c0,1.5-0.4,3,0,4.4c0.4,1.8-0.7,3.3,0.4,5.2c-0.7,1.5-0.4,3-0.4,4.4c0,1.8-0.4,3.3,0,5.2
	c0.4,1.8,0.4,3.7,0.4,5.2s0.4,2.6,2.2,3.7c2.2-1.1,4.4-2.2,6.6-3.3c2.6-1.1,4.8-2.2,7.4-3.7c0-0.4,0.4-0.7,0.7-1.5
	c2.6-1.1,4.8-2.2,7-3.3c4.8-1.5,9.6-2.6,14-3.7c0.4-0.4,0.7-0.7,1.1-1.1c0.7-0.4,1.1-1.1,1.5-1.5c7-1.1,14-1.8,20.6-3
	c1.9-1.8,3.7-3.7,6.3-4.8c1.5,0.4,2.9,0.7,4.4,1.1c2.6,1.8,4.1,3.7,2.9,6.7c0.4,0.7,0.7,1.5,1.1,2.2c0,1.1,0,2.2,0.7,2.6
	c1.1,0,1.8-0.4,2.6-0.4c0.4,1.1-1.1,1.5-1.5,2.6c0,1.1,0,2.6,0.4,4.4c-0.4,0.4-0.7,1.1-1.1,1.8c-2.9,1.8-4.8,4.8-7,7.4
	c-2.6,4.1-5.9,7.4-9.6,10.7c-2.6,1.8-5.2,4.4-8.1,5.9c-4.4,2.2-8.1,5.2-11.4,8.5c-0.4,0-0.7-0.4-1.1-0.4c-0.7,1.5-3.3,0.7-3.7,2.6
	c-3,1.8-5.9,4.1-8.1,7c-0.7,1.1-2.2,1.8-3.7,2.9c-2.6,4.4-4.4,9.6-9.2,12.5c-1.5,0.4-3,0.4-5.2,0.7c-0.4,1.1-1.5,2.2-2.2,3.3
	c0.7,0.7,1.1,1.5,1.8,2.2c-2.9,1.5-5.5,1.5-8.9-0.4c0-1.1,0.4-1.8,0.4-3.3h-1.1c-1.5,1.8-3.3,2.9-5.2,4.1c-0.7,0-1.9-0.4-2.6-0.4
	c-1.8,0.4-3.7,0.7-5.2,1.5c-1.1-0.7-1.1-1.5-1.5-2.2c-1.1,0-2.6-0.4-3.7-0.4c-0.7,0.7-1.5,1.1-2.2,1.8c-3.3-0.4-6.6-1.1-10.3-1.5
	c-0.7-0.4-1.8-0.7-2.6-1.8c-1.5,0.4-2.2-0.4-3.3-1.5c0-0.7,0.7-1.5,1.1-1.8c0-0.4,0.4-0.4,0-0.7c-1.1-1.1-2.6-2.6-4.1-3.7
	c-0.4-1.5-0.7-2.9-1.1-4.4c-0.4-1.5-1.5-2.6-1.8-4.1c-0.4-1.5-1.8-2.2-2.2-3.7c0.4-0.4,0.7-0.7,1.5-1.1c0.4-2.2-1.1-4.1-1.8-5.5
	c-0.7-0.7-2.2-0.4-2.6-1.5c0.4-0.7,0.7-1.1,1.5-1.8c-1.1-1.1-2.2-2.2-2.9-2.9c0-0.7,0.4-1.1,0.4-1.8c-0.4-0.4-0.7-1.1-1.5-1.5
	c0,0-0.4-0.4-0.4-0.7c0.4-2.6,0.4-4.8-1.5-6.7c1.5-1.8,0.7-4.4,0.7-6.6c0.4-1.8-0.4-3.7-0.4-5.9c0-2.2-1.1-4.1-1.1-6.3
	c-0.4-0.4-1.1-0.7-1.5-1.1c0.4-0.4,0.7-1.1,1.5-1.8c-0.4-0.7-1.1-1.8-1.5-2.6c0.4-1.8,0.4-3.7,0.4-5.5c0.7-0.4,0.7-1.1,0.7-1.8
	c-0.4-1.1-0.7-2.6-1.5-4.1c0-0.4,0.4-1.5,1.1-2.6c0-3-0.7-6.7,1.5-10c-0.4-1.8,0.4-3.7,0.4-5.5c-0.4-2.2,0.4-4.1,0.4-6.3
	c-0.4-1.8,0.7-3.7,1.1-5.5c0.4-2.6,0.7-5.2,0.7-7.7c0.4-5.2,2.6-10,1.5-15.1c1.1-5.2,1.8-10.3,2.6-15.5c0.4-2.6,0.7-5.2,0.4-8.1
	c0-1.1,0-2.6,0.4-3.7c0.4-5.5,1.1-10.7,1.8-15.9c0-1.1,0.4-1.8,0.4-3c1.5-3.7,1.1-7.7,1.8-11.4v-1.5c-0.4,0.4-0.7,0.4-0.7,0.4
	c-1.5-0.7-1.5-1.8-1.5-3.3l0.4-0.4c-0.7-0.4-1.5-0.7-2.2-1.5c0.4-0.7,1.1-1.5,1.5-2.2c0-0.7-0.4-1.1-0.4-1.5v-1.1
	c1.5-0.7,2.6,1.8,4.4,1.1v-0.7h0.4c0-1.5-1.8-2.2-1.5-3.7c0.7-1.1,1.8,0.4,2.6,0s1.5-1.1,2.6-1.5c0.4,0.4,0.4,0.7,1.1,1.5
	c1.1,1.1,2.6,1.5,4.4,0.7c0.7-0.7,1.1-1.5,1.5-2.2c0.7,0,1.1-0.4,1.5-0.4c1.9,0.7,3.7,0.7,5.5,0.4c4.1-1.1,7.4,0.4,10.3,3
	c0.4,0,1.1,0,1.5-0.4c6.6-2.6,17.7-3.7,18.1-1.5c0.4,0,0.4,0.4,0.7,0.4c7.4-3.3,14.8-6.3,22.5-9.2c-0.4,0-0.4,0-0.4-0.4
	c0.4-0.4,0.4,0,0.7,0c0.4,0,1.1-0.4,1.9-0.7c0.4,0.4,0.4,0.7,0.7,0.7c0.4,0,1.1,0,1.5-0.4c0.7-0.7,1.1-1.8,1.9-3
	c5.9-1.8,0.4,2.2,7.4,2.6c-0.4,1.8-1.1,3.3-1.5,5.2c3.3-0.4,6.3-0.7,9.6-2.2c0,0,0.4-0.4,0.7-0.4c3.3-0.4,6.3-1.8,9.2-3.7
	c1.5,0.4,2.9,0.4,4.4,0.7c1.1,1.5,2.2,3,3.7,4.8C232.3,872.8,231.2,874.3,230.1,875.4 M107.3,1005.6c0.4,0.7,0.4,1.5,0.4,2.2
	C106.9,1007.4,106.6,1007.1,107.3,1005.6"/>
<path class="st0" d="M635,873.6h-1.1c0,0.4,0.4,0.7,0.4,1.1C634.7,874.3,634.7,873.9,635,873.6 M633.2,1053.2c0,0.4,0,0.7,0.4,1.5
	c-0.7,0.4-1.1,0.4-1.8,0.7c0-0.4,0.4-1.1,0.4-1.5S632.5,1053.5,633.2,1053.2 M631.7,1055.4h-0.4H631.7z M630.2,909
	c0,0-0.4,0-0.4-0.4h0.4V909z M629.5,908.6l0.4-0.4v0.4H629.5z M629.9,965v-0.7C629.5,964.3,629.2,964.3,629.9,965 M626.2,1055.7
	c0,0,0-0.4-0.4-0.4h0.7C626.6,1055.4,626.6,1055.7,626.2,1055.7 M625.8,1055v0.4V1055z M624.7,865.8l0.4,0.4c0,0,0,0.4-0.4,0.4
	c0,0,0-0.4-0.4-0.4L624.7,865.8z M619.9,914.1h-0.4v-0.4L619.9,914.1z M619.2,911.9l-0.4-0.4h0.7
	C619.5,911.9,619.2,911.9,619.2,911.9 M631.3,1055.4c0,1.8-2.2,2.6-3,4.1c-0.7,1.5-1.8,2.9-3.3,4.8c0,0.4,0,1.1-0.4,1.8
	c-0.7,2.6-3.3,3.7-4.8,5.9c-1.1-0.7-1.8-1.5-2.2-1.8c-0.4,0-0.4,0-0.4,0.4v-0.4h0.4c0.4-1.8,1.5-3.7,3-4.4c1.8-1.5,3-3.3,4.4-5.2
	C626.9,1058.3,628.4,1056.1,631.3,1055.4 M617.3,1070.9H617c0-0.4,0.4-0.4,0.4-0.4V1070.9z M617,913.4l0.4-0.4v0.4H617z
	 M615.5,911.9h-0.4H615.5z M615.1,911.9c-1.1,2.2-3,2.6-5.2,3C611.1,913,612.9,911.9,615.1,911.9 M610,914.9h-0.4H610z M607.8,915.6
	c0.7-0.4,1.5-0.4,1.8-0.7C609.6,916,608.9,916,607.8,915.6 M606.3,917.1v0.4l-0.4-0.4H606.3z M604.8,914.1c0,0-0.4,0-0.4,0.4v-0.7
	C604.8,913.8,604.8,914.1,604.8,914.1 M604.1,1071.2c0,0.4,0,0.4,0.4,0.4h1.1v-0.4H604.1z M604.1,914.9v-0.4h0.4
	C604.4,914.5,604.1,914.5,604.1,914.9 M590.4,993H590H590.4z M589.7,1026.2l0.4-0.4h-0.4V1026.2z M585.3,998.6v-0.4V998.6z
	 M587.5,994.5c1.1,0,1.8-0.7,2.6-1.5c0.4,1.1,0.4,1.8-0.7,2.6c-0.4,0.4-0.7,0.7-0.7,1.1c-1.5,0-2.2,0.7-3.3,1.5
	C584.9,996.4,585.6,994.9,587.5,994.5 M578.2,1081.9h-0.4c-0.7,0-2.2-0.4-2.6,1.1C576.4,1083,577.5,1083,578.2,1081.9 M569,1081.2
	c-1.5-1.5-3-2.9-5.2-3.3c-0.4,0.4-1.1,1.1-1.8,1.8c2.2,0.4,0.4,1.8,1.5,2.6C565.3,1082.7,567.2,1082.3,569,1081.2 M559.8,1079.7
	c-1.5,0.7-1.8-1.1-3,0v1.5C557.6,1080.8,558.7,1081.2,559.8,1079.7 M544.7,1058.3l-0.4-0.4h0.4V1058.3z M541.7,1051.3
	c0,0.7,0.4,1.1,0.4,1.8C540.6,1053.2,541.4,1052.1,541.7,1051.3 M535.8,1007.8h-0.4H535.8z M657.9,875.4c0.7,1.1,1.1,1.8,1.8,2.6
	c-0.4,0.4-0.4,1.1-1.1,1.8c-2.6,3-4.8,6.3-6.3,10c-1.8,4.1-4.1,7.4-7.4,10.3c-3,2.6-6.3,4.1-8.5,6.7c-0.7,0.7-1.5,0.7-2.2,1.1
	c-1.5,0.7-3.3,1.5-4.8,2.6c-1.1,0.7-1.8,1.5-3,1.1c-1.8,1.1,7.4-5.2,5.5-4.1c-0.7-0.4-1.8-0.4-2.6,1.1c-1.8,0.4-3.3,1.8-4.8,3.3
	c-1.1,0.7-1.8,1.1-3,0.7c0.4-0.4,0.7-1.1,1.1-1.5c-1.1-0.4-2.2-0.7-3.3-1.1c-0.4,0.4-0.7,0.7-1.1,1.1c0.4,0,0.4,0.4,0.4,0.4h-0.4
	v-0.4l-3,0.7v-1.1c1.1-0.7,2.6-1.5,3.7-2.2c0-0.7-0.4-1.1-0.4-1.5c-3.7,0.7-6.3,3.3-9.6,3.3c-0.7,1.1-1.1,1.8-1.8,3
	c-0.7-0.7-1.1-1.1-1.5-1.5h-2.6c-0.7,0.4-1.8,1.1-2.6,1.5c0,0.4,0,0.7,0.4,1.1c0.7,0.4,1.8,0.4,3,0.4c-0.4,1.1-1.5,1.5-2.2,1.8
	c-0.7,0.4-1.1,0.7-1.5,0.7c0.7,1.1,1.8,2.2,2.6,3.3c0.4,1.8,0.7,3.7,0.7,5.5c-0.7,3-1.8,5.5-3,8.8c0.4,1.8,0.7,4.4,0.7,6.7
	c0,3-1.5,5.2-1.5,7.7s-2.2,4.4-1.8,7c6.3-2.2,12.5-3.7,19.2-4.4c2.6-0.4,4.8-1.8,7.4-1.8c1.1,2.2,1.8,4.1,3,6.6
	c-0.4,0-0.4,0.7-0.7,1.5c0.4,1.1,0.7,2.2,1.5,3.3c0,0.4,0.7,0.7,1.5,0.7c0,0.7,0,1.1,0.4,1.8c1.1,0.4,2.2,1.1,3.7,1.8
	c1.1-0.4,2.6-0.7,4.1-1.1c0.7,0.4,1.5,0.7,2.2,1.5c0,0.4,0,0.7-0.4,0.7c-3.3,2.6-6.6,5.2-7.7,9.6c-3.7,3.3-7.4,6.3-11.4,9.2
	c-1.1,1.1-2.6,2.2-4.4,2.2c-1.1,0-1.8,0.7-2.6,1.1c-3-0.4-6.3-0.7-8.8,0.7c-3.3,1.8-7,1.8-10.3,1.8c-1.1-0.4-1.8-0.4-2.2-0.4
	c-0.7,0.4-1.5,1.1-1.8,1.5c-0.4-0.4-0.7-0.7-1.1-1.1c-0.7,0.4-1.5,0.7-1.8,1.1c-1.1,0-2.2-0.4-3.3-0.4c-0.7,1.1-1.5,2.2-2.6,3.3
	c1.1,3.7-1.8,7-1.8,10.7c1.8-0.4,2.6-1.5,2.6-2.6c0.4-2.6,1.5-4.1,3-5.5c0,0.7,0.4,1.1,0.4,2.2c1.5-1.5,2.2-2.6,3-4.1
	c0.4,0.4,0.4,0.4,0.7,0.4c0,1.5-0.4,3,0,4.4c0.4,1.8-0.7,3.3,0.4,5.2c-0.7,1.5-0.4,3-0.4,4.4c0,1.8-0.4,3.3,0,5.2
	c0.4,1.8,0.4,3.7,0.4,5.2s0.4,2.6,2.2,3.7c2.2-1.1,4.4-2.2,6.6-3.3c2.6-1.1,4.8-2.2,7.4-3.7c0-0.4,0.4-0.7,0.7-1.5
	c2.6-1.1,4.8-2.2,7-3.3c4.8-1.5,9.6-2.6,14-3.7c0.4-0.4,0.7-0.7,1.1-1.1c0.7-0.4,1.1-1.1,1.5-1.5c7-1.1,14-1.8,20.6-3
	c1.8-1.8,3.7-3.7,6.3-4.8c1.5,0.4,3,0.7,4.4,1.1c2.6,1.8,4.1,3.7,3,6.7c0.4,0.7,0.7,1.5,1.1,2.2c0,1.1,0,2.2,0.7,2.6
	c1.1,0,1.8-0.4,2.6-0.4c0.4,1.1-1.1,1.5-1.5,2.6c0,1.1,0,2.6,0.4,4.4c-0.4,0.4-0.7,1.1-1.1,1.8c-3,1.8-4.8,4.8-7,7.4
	c-2.6,4.1-5.9,7.4-9.6,10.7c-2.6,1.8-5.2,4.4-8.1,5.9c-4.4,2.2-8.1,5.2-11.4,8.5c-0.4,0-0.7-0.4-1.1-0.4c-0.7,1.5-3.3,0.7-3.7,2.6
	c-3,1.8-5.9,4.1-8.1,7c-0.7,1.1-2.2,1.8-3.7,2.9c-2.6,4.4-4.4,9.6-9.2,12.5c-1.5,0.4-3,0.4-5.2,0.7c-0.4,1.1-1.5,2.2-2.2,3.3
	c0.7,0.7,1.1,1.5,1.8,2.2c-3,1.5-5.5,1.5-8.8-0.4c0-1.1,0.4-1.8,0.4-3.3h-1.1c-1.5,1.8-3.3,2.9-5.2,4.1c-0.7,0-1.8-0.4-2.6-0.4
	c-1.8,0.4-3.7,0.7-5.2,1.5c-1.1-0.7-1.1-1.5-1.5-2.2c-1.1,0-2.6-0.4-3.7-0.4c-0.7,0.7-1.5,1.1-2.2,1.8c-3.3-0.4-6.7-1.1-10.3-1.5
	c-0.7-0.4-1.8-0.7-2.6-1.8c-1.5,0.4-2.2-0.4-3.3-1.5c0-0.7,0.7-1.5,1.1-1.8c0-0.4,0.4-0.4,0-0.7c-1.1-1.1-2.6-2.6-4.1-3.7
	c-0.4-1.5-0.7-2.9-1.1-4.4c-0.4-1.5-1.5-2.6-1.8-4.1c-0.4-1.5-1.8-2.2-2.2-3.7c0.4-0.4,0.7-0.7,1.5-1.1c0.4-2.2-1.1-4.1-1.8-5.5
	c-0.7-0.7-2.2-0.4-2.6-1.5c0.4-0.7,0.7-1.1,1.5-1.8c-1.1-1.1-2.2-2.2-3-2.9c0-0.7,0.4-1.1,0.4-1.8c-0.4-0.4-0.7-1.1-1.5-1.5
	c0,0-0.4-0.4-0.4-0.7c0.4-2.6,0.4-4.8-1.5-6.7c1.5-1.8,0.7-4.4,0.7-6.6c0.4-1.8-0.4-3.7-0.4-5.9c0-2.2-1.1-4.1-1.1-6.3
	c-0.4-0.4-1.1-0.7-1.5-1.1c0.4-0.4,0.7-1.1,1.5-1.8c-0.4-0.7-1.1-1.8-1.5-2.6c0.4-1.8,0.4-3.7,0.4-5.5c0.7-0.4,0.7-1.1,0.7-1.8
	c-0.4-1.1-0.7-2.6-1.5-4.1c0-0.4,0.4-1.5,1.1-2.6c0-3-0.7-6.7,1.5-10c-0.4-1.8,0.4-3.7,0.4-5.5c-0.4-2.2,0.4-4.1,0.4-6.3
	c-0.4-1.8,0.7-3.7,1.1-5.5c0.4-2.6,0.7-5.2,0.7-7.7c0.4-5.2,2.6-10,1.5-15.1c1.1-5.2,1.8-10.3,2.6-15.5c0.4-2.6,0.7-5.2,0.4-8.1
	c0-1.1,0-2.6,0.4-3.7c0.4-5.5,1.1-10.7,1.8-15.9c0-1.1,0.4-1.8,0.4-3c1.5-3.7,1.1-7.7,1.8-11.4v-1.5c-0.4,0.4-0.7,0.4-0.7,0.4
	c-1.5-0.7-1.5-1.8-1.5-3.3l0.4-0.4c-0.7-0.4-1.5-0.7-2.2-1.5c0.4-0.7,1.1-1.5,1.5-2.2c0-0.7-0.4-1.1-0.4-1.5v-1.1
	c1.5-0.7,2.6,1.8,4.4,1.1v-0.7h0.4c0-1.5-1.8-2.2-1.5-3.7c0.7-1.1,1.8,0.4,2.6,0c0.7-0.4,1.5-1.1,2.6-1.5c0.4,0.4,0.4,0.7,1.1,1.5
	c1.1,1.1,2.6,1.5,4.4,0.7c0.7-0.7,1.1-1.5,1.5-2.2c0.7,0,1.1-0.4,1.5-0.4c1.8,0.7,3.7,0.7,5.5,0.4c4.1-1.1,7.4,0.4,10.3,3
	c0.4,0,1.1,0,1.5-0.4c6.6-2.6,17.7-3.7,18.1-1.5c0.4,0,0.4,0.4,0.7,0.4c7.4-3.3,14.8-6.3,22.5-9.2c-0.4,0-0.4,0-0.4-0.4
	c0.4-0.4,0.4,0,0.7,0c0.4,0,1.1-0.4,1.8-0.7c0.4,0.4,0.4,0.7,0.7,0.7s1.1,0,1.5-0.4c0.7-0.7,1.1-1.8,1.8-3c5.9-1.8,0.4,2.2,7.4,2.6
	c-0.4,1.8-1.1,3.3-1.5,5.2c3.3-0.4,6.3-0.7,9.6-2.2c0,0,0.4-0.4,0.7-0.4c3.3-0.4,6.3-1.8,9.2-3.7c1.5,0.4,3,0.4,4.4,0.7
	c1.1,1.5,2.2,3,3.7,4.8C660.1,872.8,659,874.3,657.9,875.4 M535.1,1005.6c0.4,0.7,0.4,1.5,0.4,2.2
	C534.7,1007.4,534.4,1007.1,535.1,1005.6"/>
<path class="st0" d="M1075,1037.7h0.4H1075z M1073.9,1035.1h0.4H1073.9z M1066.9,1075.7h-1.8
	C1065.4,1076.4,1066.2,1076.4,1066.9,1075.7 M1065,1075.7c0-0.7-0.4-0.7-0.7-0.7C1064.3,1075.3,1064.7,1075.7,1065,1075.7
	 M1062.5,1077.5c0.4,0,0.4,0.4,0.4,0.4h-0.4V1077.5z M1061.3,1032.5c1.5,2.2,3.3,4.1,3.7,7c0.4,0.7,0.7,1.8,1.5,2.2
	c1.1,0.4,1.1,1.1,1.8,1.8c0.4,0.7,1.1,1.5,1.8,1.8s1.8,0.7,2.6,1.1c0-0.7,0-1.1-0.4-1.5c-0.7-1.5-1.8-2.2-2.6-3.7
	c-0.7-1.5-1.5-2.6-2.2-3.7c-0.7-0.7-1.5-1.8-1.8-2.6v-1.1c-1.5-1.1-2.6-3-4.1-4.4C1061,1030.7,1061.3,1031.4,1061.3,1032.5
	 M1061,1078.2c0.4-0.7,1.1-0.4,1.5-0.4c0.4,0.4,0.7,0.7,0.7,1.1C1062.1,1079.7,1061.7,1079,1061,1078.2 M1059.9,1074.6h-0.4v-0.4
	C1059.5,1074.2,1059.5,1074.6,1059.9,1074.6 M1057.3,1075.3c0.7,0.7,1.1,1.1,1.5,1.5C1057.7,1077.1,1057.3,1076.8,1057.3,1075.3
	 M1055.5,1071.2c1.5,0.7,2.9,1.5,4.1,2.9h-1.5c-0.7-0.7-1.8-1.5-2.9-2.6L1055.5,1071.2z M1054.7,1017c-0.4,1.8,0.4,3,1.8,4.1
	c0.4-0.7,0.4-1.1,0.4-1.5C1056.2,1018.5,1056.2,1017.4,1054.7,1017 M1052.5,1066.1c0,0.4,0,0.7,0.4,0.4L1052.5,1066.1z M1051,1069
	h1.5C1051.8,1069.8,1051.4,1069.8,1051,1069 M1051,1069h-0.4v-0.4C1050.7,1069,1050.7,1069,1051,1069 M1050.3,1068.6
	c0.4-0.4,0.4,0,0.4,0H1050.3z M1050.3,1055c0.7,1.5,2.2,2.2,3.7,3.3C1052.9,1055.7,1051.8,1055,1050.3,1055 M1049.6,1064.6
	c-0.4,0-0.4,0-0.4-0.4C1049.2,1064.2,1049.2,1064.6,1049.6,1064.6 M1049.2,981.6v-0.4V981.6z M1048.8,1064.2l-0.4-0.4v-0.4
	C1048.4,1063.9,1048.8,1063.9,1048.8,1064.2 M1048.4,1063.5c-0.7,0.4-0.7,0-1.1-0.4C1048.1,1063.1,1048.1,1063.1,1048.4,1063.5
	 M1047.3,1062.8v0.4c0-0.4,0-0.4-0.4-0.7L1047.3,1062.8z M1047,1062.4h-0.7v-0.4h0.4C1046.6,1062,1046.6,1062.4,1047,1062.4
	 M1046.2,1062c0,0-0.4,0-0.4-0.4C1046.2,1061.6,1046.2,1061.6,1046.2,1062 M1045.5,1048.4c0.4,0.7,0.7,1.1,1.5,1.8
	c0.7,0,0.7-0.7,0.7-1.5C1046.2,1047.6,1046.2,1047.6,1045.5,1048.4 M1044.4,1064.2l0.4,0.4h-0.4V1064.2z M1043.3,1063.1v-0.4V1063.1
	z M1044,1060.5c-0.4-0.7-0.4-1.1-0.7-1.5C1044,1059.1,1044.4,1059.4,1044,1060.5 M1043.3,1059.1v-0.4V1059.1z M1042.2,1044.7
	c0,1.1,0,1.1,1.5,1.1C1043.3,1045.4,1042.9,1045,1042.2,1044.7 M1043.3,1058.7c-1.1,0-1.5-0.4-1.8-1.5
	C1042.9,1057.2,1042.9,1057.2,1043.3,1058.7 M1041.8,1052.8l-0.4,0.4c0,0,0-0.4,0.4-0.7V1052.8z M1041.4,1057.2
	c-1.5-0.7-2.2-1.5-2.2-2.9C1041.1,1054.6,1041.4,1055.7,1041.4,1057.2 M1037.8,1056.8c0.4,0,0.4,0,0.4,0.4
	C1037.8,1057.2,1037.8,1057.2,1037.8,1056.8 M1037.8,1056.5v0.4c-0.4,0-0.4-0.4-0.4-0.4H1037.8z M1037.8,1053.9
	c-0.4-0.7-0.4-1.1-0.4-1.5C1038.1,1052.4,1038.1,1052.8,1037.8,1053.9 M1037,1056.5c0.4-0.4,0.4,0,0.4,0H1037z M1037,1052.1h0.4v0.4
	h-0.4V1052.1z M1037,1052.1c-0.7,0-0.7-0.7-0.7-1.5C1037.4,1050.6,1037,1051.3,1037,1052.1 M1036.3,1050.6h-0.4v-0.4
	C1035.9,1050.2,1035.9,1050.6,1036.3,1050.6 M1035.5,1050.2v-0.4c0,0.4,0.4,0.4,0.4,0.4H1035.5z M1033,1050.2v0.4h-0.4L1033,1050.2z
	 M1033,1043.6c0.7,1.1,1.5,3.7,1.8,5.2c-2.2-1.1-2.6-2.9-3.7-4.4c0.4-0.4,0.4-0.7,0.7-1.5C1032.2,1043.2,1032.6,1043.2,1033,1043.6
	 M1030.4,1042.8c-1.1-1.5-0.7-2.9-1.1-4.4c0.4,0.4,0.7,0.4,0.7,0.4C1030.4,1039.9,1030.8,1041.4,1030.4,1042.8 M1028.2,1036.9
	c1.1,0,1.1,0.7,1.1,1.5C1028.5,1038.4,1028.5,1037.7,1028.2,1036.9 M1028.2,1036.6v0.4V1036.6z M1027.8,1032.1v0.4V1032.1z
	 M1035.5,1031c0-1.1,0-1.8-0.4-2.6c-0.7-2.2-1.8-4.1-3-5.9c-1.1-1.5-2.6-2.6-1.8-4.4c-1.1-2.6-1.5-4.8-2.2-7.4
	c-0.4,1.8-0.4,4.1-0.7,5.9c0.4,0.4,0.4,0.7,0.4,1.1c0.4,2.6,1.8,4.4,3,6.3c0.7,1.8,1.8,3.7,2.9,5.5
	C1034.1,1029.9,1034.8,1030.7,1035.5,1031 M1027.4,1040.6c0.4,0.4,0.7,0.7,1.1,1.1C1027.4,1042.1,1027.1,1042.1,1027.4,1040.6
	 M1027.1,1032.5h0.7c0,1.5,0.4,2.6,0.4,4.1c-0.4,0-0.7-0.4-0.7-0.7C1027.1,1034.7,1027.1,1033.6,1027.1,1032.5 M1027.1,1032.5h-0.4
	v-0.4h0.4V1032.5z M1058,915.2c-5.5-2.6-11.4-3-17.7-4.1c-2.2-0.4-4.8-0.7-7-1.1c-4.8-0.7-9.6-1.1-14.4-1.5c-1.8,0-3.7,0.4-5.5,0
	c-2.2-0.7-4.4,0.4-6.3,0c-1.5-0.4-2.6-0.7-4.1-0.7c-1.5-0.4-3-0.7-4,0.4c0.4,3.3,1.1,6.6,2.6,9.2c0.4,1.8,0.4,3.7,0.7,5.5
	c0.7,1.8,0.7,3.7,1.1,5.5c0,1.8,0.4,3.7,0.7,5.2c0.4,1.8,0.4,3.7,0.7,5.2c0.4,2.2,0.4,4.1,0.7,5.9c0.4,1.5,0.7,3.3,0.4,4.8
	c0.7,0.4,1.1,0.4,1.5,0.7c1.1-0.4,1.8-0.7,3-1.1c10-7.7,20.6-14.8,31.7-21c4.8-3,9.2-6.3,14-9.2c0.4-0.7,1.1-1.1,1.5-1.8
	C1058.4,916.7,1058.8,916,1058,915.2 M1089.8,920c-0.4,0.7-0.7,1.5-1.1,2.2c0.4,0.7,1.1,0.7,1.8,0.7c-1.1,1.5-1.5,3.3-1.8,4.8
	c-1.5,3.7-3.7,6.6-5.5,10.3c-0.4,1.1-1.1,1.8-1.8,2.6c-2.9,2.6-5.2,5.5-8.5,7.4c-5.9,3.7-11.4,8.5-17.7,11.4
	c-4.4,1.8-8.8,4.4-12.9,6.7c0,0.4,0.4,0.7,0.7,1.1c0.4,8.5,1.8,16.6,5.9,24.7c0,0.4-0.4,0.7-0.4,1.1c1.5,2.6,2.6,5.5,4.1,8.1
	c0,0.4,0.4,0.7,0.4,1.1c0.4,5.2,2.6,9.6,5.5,13.6c0.4,0,0.4,0,0.4,0.4c0,0.7,0,1.5,0.4,2.2c0.7,2.2,2.9,4.1,2.9,7
	c0.7,0.7,1.5,1.8,2.2,2.6c0,0,0.4-0.4,0.7-0.4c0.4,1.1,1.1,2.2,1.8,3.3c0.4,1.1,1.5,1.8,1.8,3c0.4,1.5,1.1,2.6,1.8,3.7
	c1.1,1.1,1.8,2.2,2.2,4.1c1.1,0.7,1.8,1.8,3.3,2.9c1.5,1.1,2.2,2.6,2.2,4.4c-0.4,0.4-0.7,0.7-1.1,0.7c0,0.4,0,0.4,0.4,2.9
	c1.1,1.5,2.2,2.9,3.7,4.1c0.7,1.1,1.1,2.2,1.8,3.3c2.9,1.1,4.1,3.7,6.3,5.5c-0.4,0.7-0.7,1.5-1.1,2.6c-0.4,0.4-0.4,1.1-0.7,2.2v6.3
	c-0.4,0.4-1.1,1.1-1.8,1.1c-1.1,0.7-2.2,0.7-3.3,1.1c-1.1,0.4-2.6,0.4-3.7,0.7c-1.1,0-2.2,0-3.3-0.4h-1.8c-2.2,0.4-4.1,0-5.9-0.4
	c-1.5,0-2.6-0.4-3.7-1.1c-0.4-0.4-0.7-0.4-1.5-0.4c-0.4-0.4-0.7-0.7-1.1-1.1c-0.7-0.7-1.1-1.5-1.5-1.8c0.7-0.4,1.8,0,2.6,0.4h1.5
	c0-1.1-0.7-1.5-1.5-1.5c-1.1-0.4-1.8-1.5-2.6-2.2c-2.9-1.1-5.9-2.6-8.8-4.1c-0.4-0.4-1.1-0.7-1.5-1.1v-1.5c1.1,0.4,1.5,1.5,2.6,1.5
	v-1.1c-0.7-0.7-1.5-1.5-2.2-2.2c-1.1-1.1-1.5-2.6-2.9-3.7c-1.1-0.7-2.2-2.2-3.3-3.3v-1.1c-0.7-0.7-0.7-1.8-1.8-2.2
	c0-0.4-0.4-1.1-0.4-1.8c-1.1-1.5-2.2-3-3.3-4.4c-2.2-3.3-4.8-6.7-7-10c-0.7-1.1-1.1-1.8-1.8-2.9c-0.4-0.4-0.7-1.1-1.5-1.1
	c-0.4-1.1-0.7-2.2-1.1-3.3c-0.4,1.1-0.4,2.2-0.4,3.3c0.4-0.4,0.4,0,0.4,0h-0.4c0,3.3,0,6.7,0.4,9.6c-0.7-0.4-1.1-1.1-1.8-1.8
	c-1.1-0.7-1.8-1.8-3-2.9c0,0.7-0.4,1.1-0.4,1.5c0.4,1.5,0.7,2.6,0.7,4.1c0,0.7-0.4,1.8-0.7,2.9c0.4,0.7,0.7,1.8,1.1,2.9
	c-0.7,1.8-1.5,4.4,0,6.7c-1.8,6.3-4.1,12.9-6.7,18.8c-0.7,1.8-1.5,3.7-2.6,5.5c-1.5,3-1.8,6.7-3.3,9.6c-1.5,3-1.5,5.9-2.6,8.8
	c-0.7,1.8-0.7,3.7-1.1,5.9h-1.8c-0.4,0.7-1.1,1.5-2.2,2.6c0,0-0.4,0.4-0.7,0.4c-0.7,0-1.5,0-1.8,0.4c-3.7,2.2-6.6,0.4-9.2-1.8
	c-2.2-1.8-4.1-4.1-5.5-7c-1.1-3.3-2.6-6.3-5.2-8.8c-0.7-0.7-0.7-1.8-1.1-2.6c0.7-0.7,1.5-1.1,2.2-1.5c-1.1-5.5-3-10.7-5.2-15.9
	l-0.4-0.4c-0.7-3.3-1.5-6.6-3.7-9.2c1.1-2.2,1.8-3.7,2.6-5.5c0.4-3.3-0.7-6.3-1.5-9.2c-1.1-3.3-0.7-6.6,0-9.9c0.4-3,0.7-5.9,0-8.8
	c-0.4-1.5-0.7-3-0.7-4.4v-19.9v-7.4c-0.7-1.8-1.5-3.3-2.2-4.8v-8.1c0-1.8,0-3.7,0.4-5.5c0-1.8,0-3.7,0.4-5.5c0.4-0.4,0-1.1,0.4-1.8
	c0-2.2-0.7-4.4-0.4-6.6c0.4-2.6,0.4-4.8,0.4-7v-6.6v-7c0.4-3.3-0.7-6.7-2.2-10.3c0-10.7,0-21.8-0.4-33.2c0-1.8,0.4-4.1-0.7-6.3
	c0-0.4,0.7-1.5,0.4-2.2c-0.7-2.6,1.1-4.8,0.4-7.4c-1.1-2.2-1.1-4.8-2.2-7c0-0.7,0-1.1,0.4-2.2h3.3c1.8,0.4,3-0.4,4.4-0.4h3.7
	c3-1.1,5.9-2.2,8.8-3.3h29.5c4.4,1.1,9.2,0.7,14,1.5c6.3,1.1,12.5,2.6,18.4,1.8c2.2,0.7,4.1,1.5,5.9,1.8c4.1,0.7,7.7,3,11.4,5.2
	c4.1,3,7.7,5.9,11.8,8.8c2.9,2.6,4.8,5.5,6.6,8.8c1.5,1.8,2.6,3.7,4.1,5.5c2.6,3.3,4.1,7.4,3,11.4
	C1091.2,916.3,1090.5,918.2,1089.8,920"/>
</svg>
