<?xml version="1.0" encoding="utf-8"?>
<!-- Generator: Adobe Illustrator 24.0.2, SVG Export Plug-In . SVG Version: 6.00 Build 0)  -->
<svg version="1.1" id="Layer_1" xmlns="http://www.w3.org/2000/svg" xmlns:xlink="http://www.w3.org/1999/xlink" x="0px" y="0px"
	 viewBox="0 0 1200 1200" style="enable-background:new 0 0 1200 1200;" xml:space="preserve">
<path d="M180.33,156.89c1.11-0.74,2.22-1.11,3.33-1.84c3.32-1.85,6.63-4.06,9.58-5.91c5.17-3.32,11.06-5.52,15.86-9.58
	c3.69-1.48,6.65-4.43,9.22-7.38c0.37-0.37,0.37-0.73,0.74-1.47c-1.85-1.85-4.06-2.22-5.91-2.95c-2.95-0.74-5.89-1.11-8.85-1.85
	c-2.95-1.11-5.89-0.74-8.84-1.48c-3.32-0.73-7.01-0.73-10.7-0.73c-2.21,0-4.43,0.36-6.63,0.36c-2.22,0-4.43,0-6.63,0.37
	c-2.22,0.37-4.43,1.11-6.65,1.11c-2.21,0-4.43,0.74-6.63,0.74c-1.11,0-2.22,1.11-3.69,1.48c0.74,2.21,1.84,4.05,3.32,5.89
	c1.84,2.21,2.95,4.43,4.06,6.63c2.21,5.17,4.06,10.7,6.26,15.86c0.74,1.85,1.11,4.06,1.85,6.28
	C173.69,160.58,177.01,158.74,180.33,156.89 M243.03,162.06c-1.85,1.48-2.95,2.58-4.43,4.06v0.37c0.37,0.37,0.74,0.74,1.48,1.11
	c-1.11,1.47-2.59,2.95-3.69,4.79c0.36,0.37,1.1,0.37,1.47,0.74v0.37c-0.74,0.37-1.47,0.74-2.58,1.11c0,1.47,0,2.95-0.37,4.43
	c-3.69,4.43-7.37,8.85-9.22,14.01c-2.21,1.85-4.43,2.59-5.89,5.17c-0.37,0.74-1.85,1.48-2.96,1.85c-1.47,0.73-3.32,1.1-4.79,1.84
	c0.37,0.37,0.37,0.74,0.37,1.48c-2.59,1.84-5.17,3.32-7.75,5.17c-1.47,0.73-2.58,1.84-3.69,3.32c-0.37,0.37-1.1,0.37-1.84,0.74
	c-1.48,1.84-2.59,4.05-5.17,5.52c-2.22,0.74-4.43,1.11-7,1.48c0.37-0.74,0.37-1.11,0.37-1.85h-2.22c-0.37,0.74-0.74,1.11-1.1,1.85
	c-3.7,0.37-9.59,2.58-12.54,4.8c0.37,0.73,0.37,1.84,0.74,2.95c0,2.21-0.37,4.43,0,6.63c0,1.11-0.74,2.22,0.36,2.95v0.74
	c-1.1,1.85-0.73,4.06-1.1,5.91c0,1.84,1.1,3.69,0,5.54c0,2.95,0.74,6.26,0.37,9.58c-0.74,2.95-0.74,6.28-0.74,9.59
	c0.37,2.95,0.37,6.26,0,9.21c-0.74,3.33,0,7.01,0,10.33v1.84c-0.74,2.22-2.22,2.96-4.06,4.06v3.7c-1.48,2.21-4.43,1.84-6.28,3.32
	c-1.84,1.84-4.43,2.58-6.63,3.69c-2.21,1.47-4.43,2.58-7,4.06c-1.11,0-2.59-0.37-4.43-0.37c-1.48-0.37-2.96-0.37-4.43,0
	c-1.85,0-9.59,0.37-11.43-0.37c-2.96-0.74-5.54-1.48-8.11-2.58c-0.74,0-1.11-0.74-1.85-1.11c0.74-0.74,1.11-1.11,1.48-1.48
	c-0.74-3.32-1.85-6.26-2.96-8.85c-1.1-2.21-1.47-4.79-2.21-7c-0.37-2.58-0.74-5.17-1.11-7.74c0,0-0.37-0.37-0.73-0.37
	c0.36-5.89,0-11.43-0.74-18.43c0-0.37,0.37-1.85,1.1-3.32c0-2.96-0.73-5.91,0.37-8.48v-0.74c-1.47-3.69,0.74-7.74-1.1-11.43
	c1.1-1.48-1.11-3.33-0.37-4.8c1.1-1.48-0.74-3.32,0.37-4.8c-0.37-3.32-0.37-6.26-0.37-9.59c0-3.32-0.74-6.63,0.37-9.95
	c-0.37-4.8-0.74-9.22-1.11-13.65c0-0.74-0.37-1.47-0.74-1.84c0.74-1.85,1.11-3.32,1.85-5.17c-1.11-2.58-2.22-5.54-0.74-8.48
	c0-2.95,0-5.89-0.37-8.48c0-2.95-0.37-5.52,0.74-8.48c0-0.74-0.37-1.84-0.74-2.95c0.37-2.22,1.11-4.8,1.11-7.37
	c0.37-2.58,0-5.17,0-7.74c-0.37-2.59-0.37-5.17,0-8.11c0.73-1.85,0.37-4.43,0.37-6.65c-0.37-4.06,0.36-7.74,0.73-11.8
	c0.37-2.21,0.37-4.8,0-7.37c-0.37-0.37-1.1-1.11-1.84-2.21c1.47-2.22,1.47-5.91,4.8-7.38c5.89,0.74,11.8,1.11,17.33,2.59
	c1.85-0.74,3.69-1.48,5.54-2.59c5.89-2.58,11.8-3.69,18.06-4.79c5.91-1.11,12.17-1.85,18.45-1.85c4.06,0,8.48,0.37,12.54,0.74
	c7.74,0.37,14.75,2.95,22.12,4.43c9.22,1.47,17.34,5.89,25.82,9.59c2.21,0.73,5.17,4.05,7.37,7c0.37-0.37,0.74-0.37,1.48-0.74
	c2.58,1.84,4.06,4.43,4.06,7.74c0.74,0.74,1.84,1.85,3.32,2.95c0.74,1.85,1.85,4.06,2.58,6.28c0.37,0.37,0.37,1.1,0.37,1.47
	c0,1.48-0.74,2.96,0,4.43c-0.37,2.59-0.74,5.17-1.47,7.74c-0.37,1.11-0.74,2.59-1.11,3.7c-0.37,0.36-0.74,0.73-1.11,1.47l0.37-0.37
	c-2.21,1.11-2.58,3.32-3.32,4.8c-0.74,0-1.11,0.74-1.11,1.48l0.37-0.37c-2.21,0.37-2.21,0.37-2.58,2.58h0.37
	c-0.37,0-0.74,0.37-0.74,0.74c0,0,0.37,0.37,0.74,0.37C243.77,159.85,243.4,160.95,243.03,162.06"/>
<path d="M623.98,332.44c0-0.74,0.37-1.11-0.37-1.48C623.24,331.7,623.61,332.07,623.98,332.44 M623.24,211.1v-0.37V211.1z
	 M623.24,210.74c-0.37,0-0.74-0.37-0.74-0.37v-4.06C623.24,208.16,623.24,209.63,623.24,210.74 M619.56,336.12
	c0.37,0,0.37,0,0.74,0.37C619.56,336.86,619.56,336.49,619.56,336.12 M616.6,215.9v-0.37V215.9z M615.87,332.81h-0.37H615.87z
	 M616.6,224.01c-0.37,0.74-0.73,1.11-1.1,1.48c0.37,0.73,0.73,1.1,1.1,2.21V224.01z M615.5,218.48h0.37v-0.37L615.5,218.48z
	 M613.65,335.01h-0.37H613.65z M612.91,334.65c0.37-0.37,0.37,0,0.37,0.36L612.91,334.65z M559.08,141.77l-0.37,0.37h0.37V141.77z
	 M555.39,246.14c-0.37-0.36-0.37-0.36-1.48,0H555.39z M550.96,99c2.21,0,4.43,0.37,5.89-0.37c1.11-0.37,1.85,0.37,2.59-0.37
	c0-0.37-0.37-0.74-0.37-1.48c-1.48,0-2.59,0.37-3.69,0.37c-0.37-0.37-0.74-0.74-1.48-1.11c-0.37,0.37-1.48,0.74-1.85,1.11
	C551.33,97.52,550.59,97.89,550.96,99 M583.42,220.7c-0.37-1.85-0.74-3.33-1.11-4.8c-0.74-3.32-1.48-6.63-2.58-9.59
	c-1.85-6.26-3.69-12.54-5.54-18.43c-0.74-2.58-1.48-5.17-2.22-7.74c-1.84-4.43-3.32-8.48-5.53-12.54c-0.37-0.74-0.74-1.48-0.74-2.58
	c-1.85-7.01-4.43-13.65-5.54-20.65c-0.37-0.37-0.73-0.74-1.1-1.11c-1.85,1.11-2.22,3.32-2.96,4.8c-1.1,1.84-1.84,3.69-2.58,5.89
	c-0.37-1.11-0.37-2.21-0.74-3.69c-1.11,2.22-2.95,3.69-3.32,5.54v4.43c0,1.1,0,1.84,0.37,2.58c0.74,2.58,0.37,4.8,0.74,7
	c0,1.85,0.37,3.32,0.37,5.17c-0.74,2.58-1.11,7-0.74,9.59v4.06c-0.37,2.58-0.74,4.79,0,7.37c0.37,1.84,0.37,3.69,0,5.52
	c-1.11,3.33-0.37,6.65-0.74,9.96c1.11,2.58,0.74,5.54,1.11,8.48c0,0.37,0.37,0.74,0.74,1.48c1.47-1.11,2.58,0,4.06-0.37
	c1.84-0.37,4.06-0.37,6.26-0.37H583.42z M532.15,119.65c0,0.37,0,0.37-0.37,0.73C532.15,120.38,532.52,120.38,532.15,119.65
	 M531.78,120.38c-2.21,1.11-2.95,2.96-3.32,5.17c1.85-1.1,2.59-2.95,3.32-4.8V120.38z M528.09,125.91c-0.37-0.37-0.73,0-0.73,0.74
	c-0.38,0-0.38,0-0.74,0.37c0,0,0.36,0,0.36,0.37c0-0.37,0.38-0.37,0.38-0.74C528.09,126.65,528.09,126.28,528.09,125.91
	 M514.08,309.21v0.37h-0.37C514.08,309.57,514.08,309.21,514.08,309.21 M513.71,309.94c0,0-0.37,0-0.37-0.37h0.37V309.94z
	 M511.86,167.96l-0.37-0.37L511.86,167.96z M646.84,304.41c-0.37,1.85-1.48,3.32-1.48,5.17c0,1.1-0.73,1.84-2.21,3.69
	c-0.37,0.74-0.37,1.47-0.74,2.58l-0.37,0.37c-1.47,0-2.21,0.74-3.69,1.48c-0.37,1.1-0.74,2.58-1.48,4.06
	c-0.37-0.37-0.73-0.37-1.1-0.37c-1.85-2.22-2.22-2.22-4.8-2.22c-0.74,0.74-0.37,1.11,0,2.22c-0.37,0.37-0.74,1.47-1.11,2.21
	c-0.74,0.37-1.47,1.11-2.21,1.48c-0.37,1.11,0,2.21-0.74,3.32c0,0.37,0.37,1.11,0,1.48c-0.74,0.37-1.11,0.37-1.85,0.37
	c-0.37,0.73,0,1.84-1.1,2.21v1.11c-2.59,0.37-2.96-2.59-4.8-2.59c-0.74,0.37-1.48,1.11-2.22,1.85v1.85
	c0.74,0.36,1.11,0.36,1.48,0.36c0.74,0,1.11,0.37,1.11,1.11v-0.37v0.37c-0.74,0.74-1.48,1.48-1.85,2.59
	c-1.48-0.37-2.58-0.37-4.06-0.37v-3.33c0.37,0,0.74,0,1.11-0.36c-0.74-1.48-2.22-2.22-2.95-3.33c0-0.37,0.36-0.73,0.36-1.1
	c-1.47-3.32-3.68-5.91-5.53-8.85c0-0.37,0-0.37,0.37-0.74c-0.37-0.37-0.74-0.74-1.11-1.11c0.37-0.37,0.37-0.37,1.11-0.74
	c-0.74-0.36-1.48-1.1-2.22-1.47c0-0.37,0-0.74,0.37-1.48c-1.47-2.21-2.58-4.43-2.95-7c-0.37-1.85-1.85-2.95-1.85-4.8
	c0-1.48-0.73-3.32-1.1-5.17c-0.37-1.47-1.11-3.32-1.11-5.16c0-0.37-0.37-1.11-0.37-1.48c-1.11-2.95-1.48-6.26-2.21-9.59
	c-0.74-2.95-1.11-6.63-2.22-9.58c-0.37-1.85,0-3.69-1.11-5.17c-1.1-1.48-0.73-3.32-1.1-5.17c0-1.1-0.37-2.21-0.74-3.32
	c-1.48-1.84-0.74-4.06-0.37-5.89c0-1.11-0.37-2.22-0.74-3.33c-0.74-0.36-2.21-0.36-5.17,0.37c-1.1-0.37-1.84-0.73-2.58-0.73
	c-1.84,0-3.69,0.36-5.17,0.36c-1.84,0-3.32,0-4.79-0.36c-0.74,0.73-1.48,1.1-1.85,1.47c-1.11,0-1.84,0.37-2.95,0.37
	c-0.74,0-1.85,0-2.59-0.37c-1.1,0-1.84-0.37-2.95-0.37c-3.32-0.37-6.26-1.1-9.59-1.1c-1.47,3.69-1.1,7-1.47,10.69v7.37
	c0.37,2.22,0,4.43,0.74,6.63c0.37,1.48,0.37,2.96,0,4.8c-0.37,1.11-0.37,2.59-0.74,3.32c-0.74,1.85-1.48,2.96-1.85,4.43
	c-1.1,2.22-1.84,4.06-2.58,6.65c-1.11,3.69-3.32,7-5.91,9.95c-0.73,0.37-1.84,0.74-2.58,1.11c-0.74,0-1.48,0-2.58,0.37
	c-0.37,1.11-1.11,2.21-1.48,3.32c-1.11,0.74-2.58,1.48-3.69,2.21c-3.32,0.74-6.63,0.37-9.96,0.37c-0.73-0.37-1.47-0.73-2.21-1.47
	c-0.37-0.37-1.11,0.74-1.85,0c-0.37-0.37-0.73-0.37-1.47-0.37v-1.11c-1.85-0.74-2.59-2.58-4.8-2.58c-0.74-1.48-1.48-2.96-1.85-4.43
	c-1.1-5.54-1.84-11.06-2.95-16.97c0.74-1.85,0.74-4.8,0.74-7.74V263.1c0-1.84,0-4.06,0.74-5.89c0.37-2.22,0-4.43,0.37-6.65
	c0-1.84-0.37-3.32,0.37-4.79c0.37-0.37,0-0.74,0-1.48c0.37-5.91,0.37-11.8,0.37-17.71c-0.74-0.74-1.11-0.74-1.85-1.1
	c1.85-3.33,0.37-7.01,1.48-10.7c-1.11-1.84-0.74-4.43-0.37-6.26c0-1.48,0-2.96,0.37-4.43c0.37-1.11,0-2.59,0.37-4.06
	c0-1.48-0.37-2.95,0.36-4.8c0.37-0.74,0.37-1.48,0.37-2.58c0-1.11,0-2.59,0.37-3.69c0.74-2.22,0.37-4.06,0-6.28
	c0.37-0.37,0.74-0.74,1.11-1.11c-0.37-2.21-0.37-4.06-0.74-5.89c-0.74,0-1.11,0.37-2.21,0.37c0.37-0.74,0.37-1.48,0.74-1.85v-1.84
	h1.47c2.22-2.59,1.85-6.28,3.32-8.85c0.37,0.37,0.74,0.37,1.11,1.11c0.37-1.85,1.11-3.33,1.48-5.17c0-1.11,1.1-2.22,1.1-3.32
	c0-1.11,0.37-1.85,0.74-2.59c0.37-1.1,1.11-2.21,0.74-3.32c0.37-0.37,0.74-0.74,1.11-1.11c0-0.36,0.37-0.73,0.37-1.1
	c1.1-2.22,0.74-4.43,1.47-6.65c0.37-1.1,0-2.21-0.37-3.32c0.37-0.74,0.74-1.84,1.11-2.95c1.48-0.37,0.74-2.22,1.48-2.95
	c0.74-0.74,1.11-1.85,1.84-2.96c0.37-1.1,0.37-2.21,0.74-3.32c1.11-2.21,2.59-4.43,4.06-6.26c1.11-1.85,1.85-3.69,2.58-5.54
	c2.22-2.58,5.17-4.43,6.65-7.37c0.74-0.37,1.47-0.37,2.21-0.74c-0.37-0.37-0.37-0.37-0.37-0.74c-1.1-0.37-2.21-0.74-2.95-1.47
	c3.32-1.11,7-2.59,11.06-4.06c1.48-1.85,2.96-3.7,4.43-5.91c4.43-0.37,8.48-0.37,12.54,1.48c1.11,0.37,2.22,0.73,3.32,1.1
	c0.74,0.37,1.85,0.37,2.96,0.74c0,0.37,0.37,1.11,0.73,1.85c1.48,0,2.96,0.37,4.43,0.37c2.22,1.1,4.8,1.84,7.01,3.32
	c2.21,1.11,4.43,2.58,7,3.69c1.84,1.11,2.95,2.58,4.06,4.06c2.58,2.21,4.43,4.43,6.63,7c2.59,3.32,4.06,7.37,4.06,11.8l-0.37,0.37
	c1.11,1.11,0.37,2.95,1.11,4.43c0.37,0.74,0.37,1.48,0.37,2.58c-0.37,2.96,0.74,6.28,0.74,9.59c0.37,0.74,0.74,1.85,0.74,2.95
	c1.47,5.17,2.95,10.33,2.95,15.87c0.37,0.73,0.74,1.47,0.74,2.21c0.37,1.11,0.37,2.21-0.37,2.95c0.74,3.69,1.1,6.65,0,9.96
	c0.37,1.47,0.37,2.58,0.74,4.06c-0.37,1.11-0.74,1.84-1.11,2.21c0.74,3.32,1.47,5.91,1.84,8.85c0.74,2.58,1.48,5.54,1.85,8.11
	c0.37,2.95,1.11,5.91,0.74,8.85c0.37,0,0.74,0,0.74-0.37c0.36-0.37,0.36-0.37,0.36-0.74v-1.48c0.37-0.73,0.74-1.1,1.11-1.84
	c0.74,0.37,0.37,1.11,0.37,1.84c0.37,0.74,0,1.48,0,2.22c0.37,1.47,0,3.32,0.37,5.17c0.37,1.84,0,3.32,0.37,5.16
	c0.37,2.22,0,4.43-0.37,6.28c0,1.47-0.37,2.95,0,4.06c0.74,2.58,0.74,4.8,0.74,7.37c0,1.11,0.37,2.21,0.74,3.69
	c-0.37,1.11-1.11,2.58-0.37,4.8c0.37,0,0.74,0.37,1.11,0.74c0.73-1.11,1.1-2.22,1.84-3.32c-0.37-1.48-0.74-2.96-0.37-4.8
	c0.74-1.85,0.37-3.69,0.37-5.54c0-2.21,0-4.43,0.74-6.63c0.37-1.11,0-2.22,0-3.69c0-0.74-0.74-1.85-0.37-2.59
	c1.11-2.58,0.37-5.52,0.74-8.48v-2.95c1.84,1.48,2.21,3.69,2.21,5.54c0.37,1.84,0.74,3.32,0.37,5.52
	c-1.84,3.69-0.74,7.38,0.37,11.07c0,1.47-0.37,3.32-0.74,5.52c0,0.37-0.74,1.48-1.1,2.59c1.47,1.84,0,4.43,1.1,6.26
	c-0.37,0.74-0.37,1.48,0,2.58c0,0.37-0.37,1.11-0.74,1.85c0.37,0.74,0.74,1.48,1.11,2.21c-0.37,0.74-0.74,1.48-0.74,2.22
	c0.37,1.84,0.74,3.69,1.48,5.52c-0.37,1.85-0.74,3.33-1.11,5.54c0,0.37-0.74,1.48-1.1,2.22c0.36,2.21,1.47,4.06,0.73,6.63
	c0.74,0.74,1.11,2.21,1.85,3.32c1.11-0.37,1.85-0.37,2.95-0.74c0.74-1.47,1.85-2.95,2.95-5.52c0.74-1.48-0.73-4.43,1.48-6.65
	c1.11,2.96,1.11,2.96,1.48,6.28c0.37,1.84,1.47,3.32,1.47,5.16c0.74,1.85,1.85,4.06,2.59,5.91c1.47,2.58,2.95,5.54,4.43,8.11
	c0,0.37,0,0.74,0.37,1.48C645.36,297.04,646.1,300.72,646.84,304.41"/>
<path d="M1013.04,156.89c1.11-0.74,2.22-1.11,3.33-1.84c3.32-1.85,6.63-4.06,9.58-5.91c5.17-3.32,11.06-5.52,15.86-9.58
	c3.69-1.48,6.65-4.43,9.22-7.38c0.37-0.37,0.37-0.73,0.74-1.47c-1.85-1.85-4.06-2.22-5.91-2.95c-2.95-0.74-5.89-1.11-8.85-1.85
	c-2.95-1.11-5.89-0.74-8.84-1.48c-3.32-0.73-7.02-0.73-10.7-0.73c-2.21,0-4.43,0.36-6.63,0.36c-2.21,0-4.43,0-6.63,0.37
	c-2.22,0.37-4.43,1.11-6.65,1.11c-2.21,0-4.43,0.74-6.63,0.74c-1.11,0-2.22,1.11-3.69,1.48c0.74,2.21,1.84,4.05,3.32,5.89
	c1.85,2.21,2.95,4.43,4.06,6.63c2.22,5.17,4.06,10.7,6.28,15.86c0.73,1.85,1.1,4.06,1.84,6.28
	C1006.41,160.58,1009.72,158.74,1013.04,156.89 M1075.74,162.06c-1.85,1.48-2.95,2.58-4.43,4.06v0.37c0.37,0.37,0.74,0.74,1.48,1.11
	c-1.11,1.47-2.59,2.95-3.69,4.79c0.36,0.37,1.1,0.37,1.47,0.74v0.37c-0.74,0.37-1.47,0.74-2.58,1.11c0,1.47,0,2.95-0.37,4.43
	c-3.69,4.43-7.37,8.85-9.22,14.01c-2.21,1.85-4.43,2.59-5.89,5.17c-0.37,0.74-1.85,1.48-2.95,1.85c-1.48,0.73-3.33,1.1-4.8,1.84
	c0.36,0.37,0.36,0.74,0.36,1.48c-2.58,1.84-5.16,3.32-7.73,5.17c-1.48,0.73-2.59,1.84-3.7,3.32c-0.37,0.37-1.1,0.37-1.84,0.74
	c-1.48,1.84-2.59,4.05-5.17,5.52c-2.21,0.74-4.43,1.11-7,1.48c0.37-0.74,0.37-1.11,0.37-1.85h-2.22c-0.37,0.74-0.74,1.11-1.1,1.85
	c-3.7,0.37-9.59,2.58-12.54,4.8c0.36,0.73,0.36,1.84,0.74,2.95c0,2.21-0.38,4.43,0,6.63c0,1.11-0.74,2.22,0.36,2.95v0.74
	c-1.1,1.85-0.74,4.06-1.1,5.91c0,1.84,1.1,3.69,0,5.54c0,2.95,0.74,6.26,0.36,9.58c-0.73,2.95-0.73,6.28-0.73,9.59
	c0.37,2.95,0.37,6.26,0,9.21c-0.74,3.33,0,7.01,0,10.33v1.84c-0.74,2.22-2.22,2.96-4.06,4.06v3.7c-1.48,2.21-4.43,1.84-6.28,3.32
	c-1.84,1.84-4.43,2.58-6.63,3.69c-2.22,1.47-4.43,2.58-7,4.06c-1.11,0-2.59-0.37-4.43-0.37c-1.48-0.37-2.96-0.37-4.43,0
	c-1.85,0-9.59,0.37-11.43-0.37c-2.96-0.74-5.54-1.48-8.11-2.58c-0.74,0-1.11-0.74-1.85-1.11c0.74-0.74,1.11-1.11,1.48-1.48
	c-0.74-3.32-1.85-6.26-2.96-8.85c-1.1-2.21-1.47-4.79-2.21-7c-0.37-2.58-0.74-5.17-1.11-7.74c0,0-0.37-0.37-0.74-0.37
	c0.37-5.89,0-11.43-0.73-18.43c0-0.37,0.37-1.85,1.1-3.32c0-2.96-0.73-5.91,0.37-8.48v-0.74c-1.47-3.69,0.74-7.74-1.1-11.43
	c1.1-1.48-1.11-3.33-0.37-4.8c1.1-1.48-0.74-3.32,0.37-4.8c-0.37-3.32-0.37-6.26-0.37-9.59c0-3.32-0.74-6.63,0.37-9.95
	c-0.37-4.8-0.74-9.22-1.11-13.65c0-0.74-0.37-1.47-0.74-1.84c0.74-1.85,1.11-3.32,1.85-5.17c-1.11-2.58-2.22-5.54-0.74-8.48
	c0-2.95,0-5.89-0.37-8.48c0-2.95-0.37-5.52,0.74-8.48c0-0.74-0.37-1.84-0.74-2.95c0.37-2.22,1.11-4.8,1.11-7.37
	c0.36-2.58,0-5.17,0-7.74c-0.37-2.59-0.37-5.17,0-8.11c0.73-1.85,0.36-4.43,0.36-6.65c-0.36-4.06,0.37-7.74,0.74-11.8
	c0.37-2.21,0.37-4.8,0-7.37c-0.37-0.37-1.1-1.11-1.84-2.21c1.47-2.22,1.47-5.91,4.8-7.38c5.89,0.74,11.8,1.11,17.33,2.59
	c1.85-0.74,3.69-1.48,5.54-2.59c5.89-2.58,11.8-3.69,18.06-4.79c5.91-1.11,12.18-1.85,18.45-1.85c4.06,0,8.48,0.37,12.54,0.74
	c7.74,0.37,14.75,2.95,22.12,4.43c9.22,1.47,17.34,5.89,25.82,9.59c2.21,0.73,5.17,4.05,7.37,7c0.37-0.37,0.74-0.37,1.48-0.74
	c2.58,1.84,4.06,4.43,4.06,7.74c0.74,0.74,1.84,1.85,3.32,2.95c0.74,1.85,1.84,4.06,2.58,6.28c0.37,0.37,0.37,1.1,0.37,1.47
	c0,1.48-0.74,2.96,0,4.43c-0.37,2.59-0.74,5.17-1.47,7.74c-0.37,1.11-0.74,2.59-1.11,3.7c-0.37,0.36-0.74,0.73-1.11,1.47l0.37-0.37
	c-2.21,1.11-2.58,3.32-3.32,4.8c-0.74,0-1.11,0.74-1.11,1.48l0.37-0.37c-2.21,0.37-2.21,0.37-2.58,2.58h0.37
	c-0.37,0-0.74,0.37-0.74,0.74c0,0,0.37,0.37,0.74,0.37C1076.48,159.85,1076.11,160.95,1075.74,162.06"/>
<path d="M199.88,485.91h-1.1c0,0.36,0.36,0.73,0.36,1.1C199.51,486.64,199.51,486.27,199.88,485.91 M198.04,665.5
	c0,0.37,0,0.74,0.37,1.48c-0.74,0.37-1.11,0.37-1.85,0.74c0-0.37,0.37-1.11,0.37-1.48C196.93,665.87,197.3,665.87,198.04,665.5
	 M196.56,667.72h-0.37H196.56z M195.08,521.31c0,0-0.37,0-0.37-0.37h0.37V521.31z M194.35,520.94l0.36-0.37v0.37H194.35z
	 M194.71,577.37v-0.74C194.35,576.63,193.98,576.63,194.71,577.37 M191.02,668.09c0,0,0-0.37-0.36-0.37h0.73
	C191.39,667.72,191.39,668.09,191.02,668.09 M190.66,667.35v0.37V667.35z M189.55,478.16l0.37,0.37c0,0,0,0.37-0.37,0.37
	c0,0,0-0.37-0.37-0.37L189.55,478.16z M184.76,526.48h-0.37v-0.37L184.76,526.48z M184.02,524.26l-0.37-0.37h0.74
	C184.39,524.26,184.02,524.26,184.02,524.26 M196.19,667.72c0,1.84-2.21,2.58-2.95,4.06c-0.74,1.47-1.85,2.95-3.32,4.8
	c0,0.36,0,1.1-0.37,1.84c-0.74,2.58-3.32,3.69-4.8,5.89c-1.11-0.73-1.85-1.47-2.21-1.84c-0.37,0-0.37,0-0.37,0.37v-0.37h0.37
	c0.36-1.84,1.47-3.69,2.95-4.43c1.84-1.47,2.95-3.32,4.43-5.17C191.76,670.67,193.24,668.45,196.19,667.72 M182.18,683.21h-0.37
	c0-0.37,0.37-0.37,0.37-0.37V683.21z M181.81,525.74l0.37-0.37v0.37H181.81z M180.33,524.26h-0.37H180.33z M179.96,524.26
	c-1.11,2.22-2.95,2.58-5.17,2.95C175.9,525.37,177.75,524.26,179.96,524.26 M174.8,527.21h-0.37H174.8z M172.59,527.95
	c0.74-0.37,1.48-0.37,1.84-0.74C174.43,528.32,173.7,528.32,172.59,527.95 M171.11,529.43v0.37l-0.37-0.37H171.11z M169.64,526.48
	c0,0-0.37,0-0.37,0.36v-0.73C169.64,526.11,169.64,526.48,169.64,526.48 M168.9,683.58c0,0.37,0,0.37,0.37,0.37h1.11v-0.37H168.9z
	 M168.9,527.21v-0.37h0.37C169.27,526.84,168.9,526.84,168.9,527.21 M155.25,605.39h-0.37H155.25z M154.51,638.59l0.37-0.37h-0.37
	V638.59z M150.1,610.93v-0.37V610.93z M152.3,606.87c1.11,0,1.84-0.74,2.58-1.48c0.37,1.11,0.37,1.85-0.74,2.58
	c-0.36,0.37-0.73,0.74-0.73,1.11c-1.48,0-2.22,0.74-3.32,1.48C149.73,608.71,150.47,607.24,152.3,606.87 M143.08,694.27h-0.37
	c-0.73,0-2.21-0.37-2.58,1.11C141.24,695.38,142.34,695.38,143.08,694.27 M133.87,693.53c-1.48-1.47-2.96-2.95-5.17-3.32
	c-0.37,0.37-1.11,1.11-1.85,1.85c2.22,0.37,0.37,1.84,1.48,2.58C130.18,695.01,132.02,694.64,133.87,693.53 M124.65,692.06
	c-1.48,0.73-1.85-1.11-2.95,0v1.47C122.43,693.16,123.54,693.53,124.65,692.06 M109.53,670.67l-0.37-0.37h0.37V670.67z
	 M106.57,663.67c0,0.73,0.37,1.1,0.37,1.84C105.47,665.5,106.2,664.39,106.57,663.67 M100.68,620.15h-0.37H100.68z M222.75,487.75
	c0.73,1.11,1.1,1.85,1.84,2.58c-0.37,0.37-0.37,1.11-1.11,1.85c-2.58,2.95-4.79,6.26-6.26,9.96c-1.84,4.06-4.06,7.37-7.37,10.32
	c-2.96,2.58-6.28,4.06-8.48,6.63c-0.74,0.74-1.48,0.74-2.22,1.11c-1.47,0.74-3.32,1.48-4.79,2.58c-1.11,0.74-1.85,1.48-2.96,1.11
	c-1.84,1.11,7.38-5.17,5.54-4.06c-0.74-0.37-1.85-0.37-2.58,1.11c-1.85,0.37-3.33,1.84-4.8,3.32c-1.11,0.74-1.85,1.11-2.95,0.74
	c0.36-0.37,0.73-1.11,1.1-1.48c-1.1-0.37-2.21-0.74-3.32-1.11c-0.37,0.37-0.74,0.74-1.11,1.11c0.37,0,0.37,0.37,0.37,0.37h-0.37
	v-0.37l-2.95,0.74v-1.11c1.11-0.74,2.58-1.47,3.69-2.21c0-0.74-0.37-1.11-0.37-1.48c-3.69,0.74-6.26,3.32-9.58,3.32
	c-0.74,1.11-1.11,1.85-1.85,2.96c-0.74-0.74-1.11-1.11-1.48-1.48h-2.58c-0.74,0.37-1.84,1.11-2.58,1.48c0,0.37,0,0.74,0.37,1.1
	c0.73,0.37,1.84,0.37,2.95,0.37c-0.37,1.11-1.48,1.48-2.22,1.85c-0.73,0.37-1.1,0.74-1.47,0.74c0.74,1.1,1.84,2.21,2.58,3.32
	c0.37,1.84,0.74,3.69,0.74,5.52c-0.74,2.96-1.85,5.54-2.95,8.85c0.37,1.85,0.74,4.43,0.74,6.65c0,2.95-1.48,5.16-1.48,7.74
	c0,2.58-2.22,4.43-1.85,7c6.28-2.21,12.54-3.69,19.19-4.43c2.58-0.37,4.79-1.84,7.37-1.84c1.11,2.21,1.84,4.06,2.95,6.63
	c-0.37,0-0.37,0.74-0.74,1.48c0.37,1.1,0.74,2.21,1.48,3.32c0,0.37,0.74,0.74,1.47,0.74c0,0.73,0,1.1,0.37,1.84
	c1.11,0.37,2.22,1.11,3.7,1.85c1.1-0.37,2.58-0.74,4.06-1.11c0.73,0.37,1.47,0.74,2.21,1.48c0,0.36,0,0.74-0.37,0.74
	c-3.32,2.58-6.63,5.16-7.74,9.58c-3.69,3.32-7.37,6.28-11.43,9.22c-1.11,1.11-2.59,2.21-4.43,2.21c-1.11,0-1.85,0.74-2.58,1.11
	c-2.96-0.37-6.28-0.74-8.85,0.74c-3.32,1.84-7.01,1.84-10.33,1.84c-1.1-0.37-1.84-0.37-2.21-0.37c-0.74,0.37-1.48,1.11-1.85,1.48
	c-0.37-0.37-0.74-0.74-1.11-1.11c-0.73,0.37-1.47,0.74-1.84,1.11c-1.11,0-2.21-0.37-3.32-0.37c-0.74,1.11-1.48,2.22-2.59,3.32
	c1.11,3.69-1.84,7.01-1.84,10.7c1.84-0.37,2.58-1.48,2.58-2.59c0.37-2.58,1.48-4.06,2.96-5.52c0,0.73,0.37,1.1,0.37,2.21
	c1.47-1.48,2.21-2.58,2.95-4.06c0.37,0.37,0.37,0.37,0.73,0.37c0,1.48-0.36,2.95,0,4.43c0.37,1.84-0.73,3.32,0.37,5.17
	c-0.73,1.47-0.37,2.95-0.37,4.43c0,1.84-0.36,3.32,0,5.16c0.37,1.85,0.37,3.69,0.37,5.17c0,1.48,0.37,2.58,2.22,3.69
	c2.21-1.11,4.43-2.21,6.63-3.32c2.59-1.11,4.8-2.21,7.37-3.69c0-0.37,0.37-0.74,0.74-1.48c2.59-1.11,4.8-2.21,7.01-3.32
	c4.79-1.48,9.58-2.58,14.01-3.69c0.37-0.37,0.74-0.74,1.11-1.11c0.74-0.37,1.1-1.11,1.47-1.47c7.01-1.11,14.02-1.85,20.65-2.96
	c1.85-1.84,3.69-3.69,6.28-4.8c1.47,0.37,2.95,0.74,4.43,1.11c2.58,1.85,4.06,3.69,2.95,6.65c0.37,0.74,0.74,1.47,1.11,2.21
	c0,1.11,0,2.21,0.74,2.58c1.1,0,1.84-0.37,2.58-0.37c0.37,1.11-1.11,1.48-1.48,2.59c0,1.11,0,2.58,0.37,4.43
	c-0.37,0.37-0.74,1.11-1.11,1.84c-2.95,1.85-4.79,4.8-7,7.38c-2.58,4.06-5.89,7.37-9.59,10.69c-2.58,1.84-5.16,4.43-8.11,5.89
	c-4.42,2.22-8.1,5.17-11.43,8.48c-0.37,0-0.74-0.37-1.1-0.37c-0.74,1.48-3.33,0.74-3.69,2.59c-2.96,1.84-5.91,4.06-8.11,7
	c-0.74,1.11-2.22,1.84-3.7,2.95c-2.58,4.43-4.43,9.59-9.21,12.54c-1.48,0.37-2.96,0.37-5.17,0.74c-0.37,1.11-1.48,2.21-2.21,3.32
	c0.73,0.74,1.1,1.48,1.84,2.22c-2.95,1.47-5.54,1.47-8.85-0.37c0-1.11,0.37-1.85,0.37-3.32h-1.11c-1.47,1.84-3.32,2.95-5.16,4.06
	c-0.74,0-1.85-0.37-2.59-0.37c-1.84,0.37-3.69,0.73-5.16,1.47c-1.11-0.74-1.11-1.47-1.48-2.21c-1.11,0-2.58-0.37-3.69-0.37
	c-0.74,0.74-1.48,1.11-2.22,1.84c-3.32-0.36-6.63-1.1-10.32-1.47c-0.74-0.37-1.85-0.74-2.58-1.85c-1.48,0.37-2.22-0.37-3.33-1.47
	c0-0.74,0.74-1.48,1.11-1.85c0-0.37,0.37-0.37,0-0.74c-1.11-1.1-2.58-2.58-4.06-3.69c-0.37-1.48-0.74-2.95-1.11-4.43
	c-0.36-1.47-1.47-2.58-1.84-4.06c-0.37-1.47-1.85-2.21-2.21-3.69c0.36-0.37,0.73-0.74,1.47-1.11c0.37-2.21-1.11-4.06-1.84-5.52
	c-0.74-0.74-2.22-0.37-2.59-1.48c0.37-0.74,0.74-1.11,1.48-1.84c-1.11-1.11-2.22-2.22-2.95-2.96c0-0.73,0.37-1.1,0.37-1.84
	c-0.37-0.37-0.74-1.11-1.48-1.48c0,0-0.37-0.37-0.37-0.74c0.37-2.58,0.37-4.79-1.48-6.63c1.48-1.84,0.74-4.43,0.74-6.63
	c0.37-1.85-0.37-3.7-0.37-5.91c0-2.21-1.11-4.06-1.11-6.26c-0.36-0.37-1.1-0.74-1.47-1.11c0.37-0.37,0.74-1.11,1.47-1.85
	c-0.36-0.73-1.1-1.84-1.47-2.58c0.37-1.85,0.37-3.69,0.37-5.52c0.74-0.38,0.74-1.11,0.74-1.85c-0.37-1.11-0.74-2.59-1.48-4.06
	c0-0.37,0.37-1.48,1.11-2.59c0-2.95-0.74-6.63,1.47-9.95c-0.37-1.85,0.37-3.69,0.37-5.54c-0.37-2.21,0.37-4.06,0.37-6.26
	c-0.37-1.85,0.74-3.69,1.11-5.54c0.37-2.58,0.74-5.17,0.74-7.74c0.37-5.17,2.58-9.95,1.47-15.12c1.11-5.17,1.85-10.33,2.59-15.49
	c0.37-2.59,0.74-5.17,0.37-8.11c0-1.11,0-2.59,0.37-3.69c0.36-5.54,1.1-10.7,1.84-15.87c0-1.1,0.37-1.84,0.37-2.95
	c1.48-3.69,1.11-7.74,1.84-11.43v-1.48c-0.36,0.37-0.73,0.37-0.73,0.37c-1.48-0.73-1.48-1.84-1.48-3.32l0.37-0.37
	c-0.74-0.37-1.48-0.74-2.21-1.47c0.36-0.74,1.1-1.48,1.47-2.22c0-0.74-0.37-1.11-0.37-1.48v-1.1c1.48-0.74,2.59,1.84,4.43,1.1v-0.73
	h0.37c0-1.48-1.85-2.22-1.48-3.69c0.74-1.11,1.85,0.37,2.59,0c0.74-0.37,1.47-1.11,2.58-1.48c0.37,0.37,0.37,0.74,1.11,1.48
	c1.11,1.1,2.58,1.47,4.43,0.73c0.74-0.73,1.1-1.47,1.47-2.21c0.74,0,1.11-0.37,1.48-0.37c1.85,0.74,3.69,0.74,5.54,0.37
	c4.06-1.11,7.37,0.37,10.32,2.95c0.37,0,1.11,0,1.48-0.37c6.63-2.58,17.7-3.69,18.06-1.47c0.37,0,0.37,0.37,0.74,0.37
	c7.37-3.33,14.75-6.28,22.5-9.22c-0.37,0-0.37,0-0.37-0.37c0.37-0.37,0.37,0,0.73,0c0.37,0,1.11-0.37,1.85-0.74
	c0.37,0.37,0.37,0.74,0.74,0.74c0.37,0,1.11,0,1.47-0.37c0.74-0.74,1.11-1.85,1.85-2.95c5.91-1.85,0.37,2.21,7.37,2.58
	c-0.37,1.85-1.11,3.32-1.47,5.17c3.32-0.37,6.26-0.74,9.58-2.22c0,0,0.37-0.36,0.74-0.36c3.32-0.37,6.28-1.85,9.22-3.7
	c1.47,0.37,2.95,0.37,4.43,0.74c1.1,1.48,2.21,2.96,3.69,4.8C224.95,485.17,223.85,486.64,222.75,487.75 M99.94,617.93
	c0.37,0.74,0.37,1.48,0.37,2.22C99.57,619.77,99.2,619.41,99.94,617.93"/>
<path d="M638.18,650.02h0.36H638.18z M637.07,647.44h0.37H637.07z M630.07,688h-1.85C628.59,688.74,629.33,688.74,630.07,688
	 M628.22,688c0-0.73-0.37-0.73-0.74-0.73C627.48,687.64,627.85,688,628.22,688 M625.64,689.85c0.37,0,0.37,0.37,0.37,0.37h-0.37
	V689.85z M624.53,644.85c1.48,2.22,3.32,4.06,3.69,7.02c0.37,0.73,0.74,1.84,1.48,2.21c1.11,0.37,1.11,1.11,1.84,1.85
	c0.37,0.73,1.11,1.47,1.85,1.84c0.74,0.37,1.84,0.74,2.58,1.11c0-0.74,0-1.11-0.37-1.48c-0.73-1.47-1.84-2.21-2.58-3.69
	c-0.74-1.48-1.48-2.58-2.21-3.69c-0.74-0.74-1.48-1.85-1.85-2.58v-1.11c-1.48-1.11-2.58-2.95-4.06-4.43
	C624.16,643.01,624.53,643.75,624.53,644.85 M624.16,690.58c0.37-0.74,1.11-0.37,1.48-0.37c0.37,0.37,0.74,0.74,0.74,1.11
	C625.27,692.05,624.9,691.32,624.16,690.58 M623.05,686.9h-0.37v-0.37C622.68,686.53,622.68,686.9,623.05,686.9 M620.47,687.64
	c0.74,0.74,1.11,1.1,1.48,1.47C620.84,689.48,620.47,689.11,620.47,687.64 M618.62,683.58c1.48,0.73,2.96,1.47,4.06,2.95h-1.47
	c-0.74-0.74-1.85-1.48-2.95-2.58L618.62,683.58z M617.9,629.36c-0.37,1.85,0.37,2.95,1.84,4.06c0.37-0.74,0.37-1.11,0.37-1.47
	C619.36,630.84,619.36,629.73,617.9,629.36 M615.68,678.41c0,0.37,0,0.74,0.37,0.37L615.68,678.41z M614.21,681.36h1.47
	C614.94,682.1,614.58,682.1,614.21,681.36 M614.21,681.36h-0.37v-0.37C613.84,681.36,613.84,681.36,614.21,681.36 M613.47,680.99
	c0.37-0.37,0.37,0,0.37,0H613.47z M613.47,667.35c0.74,1.47,2.21,2.21,3.69,3.32C616.05,668.08,614.94,667.35,613.47,667.35
	 M612.73,676.94c-0.37,0-0.37,0-0.37-0.37C612.36,676.57,612.36,676.94,612.73,676.94 M612.36,593.96v-0.37V593.96z M611.99,676.57
	l-0.37-0.37v-0.36C611.62,676.2,611.99,676.2,611.99,676.57 M611.62,675.84c-0.74,0.36-0.74,0-1.1-0.37
	C611.25,675.47,611.25,675.47,611.62,675.84 M610.52,675.1v0.37c0-0.37,0-0.37-0.37-0.74L610.52,675.1z M610.15,674.73h-0.74v-0.37
	h0.37C609.78,674.36,609.78,674.73,610.15,674.73 M609.41,674.36c0,0-0.37,0-0.37-0.37C609.41,673.99,609.41,673.99,609.41,674.36
	 M608.67,660.71c0.37,0.74,0.74,1.11,1.48,1.85c0.73,0,0.73-0.74,0.73-1.48C609.41,659.98,609.41,659.98,608.67,660.71
	 M607.56,676.57l0.37,0.37h-0.37V676.57z M606.47,675.47v-0.37V675.47z M607.19,672.88c-0.37-0.74-0.37-1.1-0.73-1.47
	C607.19,671.41,607.56,671.78,607.19,672.88 M606.47,671.41v-0.37V671.41z M605.36,657.02c0,1.11,0,1.11,1.47,1.11
	C606.47,657.76,606.1,657.39,605.36,657.02 M606.47,671.04c-1.11,0-1.48-0.37-1.85-1.48C606.1,669.56,606.1,669.56,606.47,671.04
	 M604.99,665.14l-0.37,0.37c0,0,0-0.37,0.37-0.74V665.14z M604.62,669.56c-1.48-0.74-2.22-1.48-2.22-2.95
	C604.25,666.98,604.62,668.08,604.62,669.56 M600.93,669.19c0.37,0,0.37,0,0.37,0.37C600.93,669.56,600.93,669.56,600.93,669.19
	 M600.93,668.82v0.37c-0.37,0-0.37-0.37-0.37-0.37H600.93z M600.93,666.24c-0.37-0.74-0.37-1.11-0.37-1.48
	C601.3,664.77,601.3,665.14,600.93,666.24 M600.19,668.82c0.37-0.37,0.37,0,0.37,0H600.19z M600.19,664.4h0.37v0.37h-0.37V664.4z
	 M600.19,664.4c-0.74,0-0.74-0.73-0.74-1.47C600.56,662.93,600.19,663.67,600.19,664.4 M599.45,662.93h-0.37v-0.37
	C599.08,662.56,599.08,662.93,599.45,662.93 M598.72,662.56v-0.37c0,0.37,0.36,0.37,0.36,0.37H598.72z M596.13,662.56v0.37h-0.37
	L596.13,662.56z M596.13,655.92c0.74,1.1,1.48,3.69,1.85,5.16c-2.22-1.1-2.59-2.95-3.69-4.43c0.36-0.37,0.36-0.73,0.73-1.47
	C595.39,655.55,595.76,655.55,596.13,655.92 M593.56,655.18c-1.11-1.48-0.74-2.96-1.11-4.43c0.37,0.37,0.74,0.37,0.74,0.37
	C593.56,652.23,593.93,653.7,593.56,655.18 M591.34,649.28c1.11,0,1.11,0.74,1.11,1.48C591.71,650.76,591.71,650.02,591.34,649.28
	 M591.34,648.91v0.37V648.91z M590.97,644.48v0.37V644.48z M598.72,643.38c0-1.11,0-1.85-0.38-2.59c-0.73-2.21-1.84-4.06-2.95-5.89
	c-1.1-1.48-2.58-2.59-1.84-4.43c-1.11-2.59-1.48-4.8-2.22-7.37c-0.37,1.84-0.37,4.06-0.74,5.89c0.37,0.37,0.37,0.74,0.37,1.11
	c0.37,2.58,1.85,4.43,2.96,6.26c0.73,1.85,1.84,3.69,2.95,5.54C597.24,642.27,597.98,643.01,598.72,643.38 M590.6,652.97
	c0.37,0.37,0.74,0.74,1.11,1.11C590.6,654.44,590.24,654.44,590.6,652.97 M590.24,644.85h0.73c0,1.48,0.37,2.59,0.37,4.06
	c-0.37,0-0.74-0.37-0.74-0.74C590.24,647.07,590.24,645.96,590.24,644.85 M590.24,644.85h-0.37v-0.37h0.37V644.85z M621.21,527.58
	c-5.54-2.58-11.43-2.95-17.71-4.06c-2.21-0.37-4.79-0.74-7-1.11c-4.8-0.73-9.59-1.1-14.38-1.47c-1.85,0-3.7,0.37-5.54,0
	c-2.22-0.74-4.43,0.37-6.28,0c-1.47-0.37-2.58-0.74-4.06-0.74c-1.47-0.37-2.95-0.74-4.06,0.37c0.37,3.32,1.11,6.63,2.59,9.22
	c0.37,1.84,0.37,3.69,0.74,5.53c0.73,1.85,0.73,3.69,1.1,5.54c0,1.84,0.37,3.69,0.74,5.17c0.37,1.84,0.37,3.69,0.74,5.16
	c0.37,2.22,0.37,4.06,0.74,5.91c0.37,1.48,0.74,3.32,0.37,4.8c0.73,0.37,1.1,0.37,1.47,0.74c1.11-0.37,1.85-0.74,2.96-1.11
	c9.95-7.74,20.65-14.76,31.71-21.02c4.8-2.95,9.22-6.28,14.01-9.22c0.37-0.74,1.11-1.11,1.48-1.84
	C621.58,529.06,621.95,528.32,621.21,527.58 M652.93,532.37c-0.37,0.74-0.74,1.48-1.11,2.21c0.37,0.74,1.11,0.74,1.85,0.74
	c-1.11,1.48-1.48,3.32-1.85,4.8c-1.47,3.69-3.69,6.63-5.52,10.32c-0.37,1.11-1.11,1.85-1.85,2.59c-2.95,2.58-5.17,5.54-8.48,7.37
	c-5.89,3.69-11.43,8.48-17.7,11.43c-4.43,1.85-8.85,4.43-12.91,6.65c0,0.37,0.37,0.73,0.74,1.1c0.37,8.48,1.84,16.6,5.89,24.71
	c0,0.37-0.37,0.74-0.37,1.11c1.48,2.58,2.59,5.52,4.06,8.11c0,0.37,0.37,0.74,0.37,1.11c0.37,5.16,2.58,9.58,5.54,13.64
	c0.37,0,0.37,0,0.37,0.37c0,0.74,0,1.48,0.37,2.22c0.73,2.21,2.95,4.06,2.95,7c0.74,0.74,1.47,1.84,2.21,2.58
	c0,0,0.37-0.37,0.74-0.37c0.37,1.11,1.11,2.22,1.85,3.33c0.37,1.1,1.47,1.84,1.84,2.95c0.37,1.48,1.11,2.58,1.85,3.69
	c1.11,1.11,1.84,2.21,2.21,4.06c1.11,0.74,1.85,1.85,3.32,2.95c1.48,1.11,2.22,2.59,2.22,4.43c-0.37,0.37-0.74,0.74-1.11,0.74
	c0,0.37,0,0.37,0.37,2.95c1.11,1.48,2.21,2.95,3.69,4.06c0.74,1.11,1.11,2.22,1.85,3.32c2.95,1.11,4.06,3.69,6.26,5.54
	c-0.37,0.74-0.74,1.48-1.11,2.58c-0.36,0.37-0.36,1.11-0.73,2.22v6.26c-0.37,0.37-1.11,1.11-1.85,1.11
	c-1.11,0.74-2.21,0.74-3.32,1.11c-1.11,0.37-2.59,0.37-3.69,0.73c-1.11,0-2.22,0-3.33-0.36h-1.84c-2.21,0.36-4.06,0-5.89-0.37
	c-1.48,0-2.59-0.37-3.7-1.11c-0.37-0.37-0.73-0.37-1.47-0.37c-0.37-0.37-0.74-0.74-1.11-1.11c-0.74-0.74-1.11-1.47-1.48-1.84
	c0.74-0.37,1.85,0,2.59,0.37h1.47c0-1.11-0.73-1.48-1.47-1.48c-1.11-0.37-1.85-1.48-2.59-2.21c-2.95-1.11-5.89-2.59-8.84-4.06
	c-0.37-0.37-1.11-0.74-1.48-1.11v-1.48c1.11,0.37,1.48,1.48,2.58,1.48v-1.11c-0.73-0.74-1.47-1.47-2.21-2.21
	c-1.11-1.11-1.48-2.59-2.95-3.69c-1.11-0.74-2.22-2.22-3.33-3.33v-1.1c-0.73-0.74-0.73-1.85-1.84-2.22c0-0.37-0.37-1.1-0.37-1.84
	c-1.11-1.48-2.22-2.95-3.32-4.43c-2.22-3.32-4.8-6.63-7-9.96c-0.74-1.1-1.11-1.84-1.85-2.95c-0.37-0.37-0.74-1.11-1.48-1.11
	c-0.37-1.1-0.73-2.21-1.1-3.32c-0.37,1.11-0.37,2.22-0.37,3.32c0.37-0.37,0.37,0,0.37,0h-0.37c0,3.33,0,6.65,0.37,9.59
	c-0.74-0.37-1.11-1.11-1.85-1.85c-1.11-0.74-1.84-1.84-2.95-2.95c0,0.74-0.37,1.11-0.37,1.48c0.37,1.47,0.74,2.58,0.74,4.06
	c0,0.74-0.37,1.84-0.74,2.95c0.37,0.74,0.74,1.85,1.11,2.95c-0.74,1.85-1.48,4.43,0,6.65c-1.85,6.26-4.06,12.9-6.65,18.8
	c-0.74,1.84-1.47,3.69-2.58,5.54c-1.48,2.95-1.85,6.63-3.32,9.58c-1.48,2.96-1.48,5.91-2.59,8.85c-0.74,1.85-0.74,3.69-1.1,5.91
	h-1.85c-0.37,0.73-1.11,1.47-2.21,2.58c0,0-0.37,0.37-0.74,0.37c-0.74,0-1.48,0-1.85,0.37c-3.69,2.21-6.63,0.37-9.21-1.85
	c-2.22-1.84-4.07-4.06-5.54-7c-1.11-3.32-2.58-6.26-5.17-8.85c-0.74-0.74-0.74-1.84-1.11-2.58c0.74-0.74,1.48-1.11,2.22-1.48
	c-1.11-5.54-2.95-10.69-5.17-15.86l-0.37-0.37c-0.74-3.32-1.47-6.63-3.69-9.22c1.11-2.21,1.85-3.69,2.58-5.52
	c0.37-3.32-0.73-6.28-1.47-9.22c-1.11-3.32-0.74-6.63,0-9.95c0.37-2.96,0.74-5.91,0-8.85c-0.37-1.48-0.74-2.96-0.74-4.43v-19.91
	v-7.37c-0.74-1.85-1.48-3.33-2.21-4.8v-8.11c0-1.85,0-3.69,0.37-5.54c0-1.84,0-3.69,0.36-5.52c0.37-0.37,0-1.11,0.37-1.85
	c0-2.21-0.73-4.43-0.37-6.63c0.37-2.59,0.37-4.8,0.37-7.02v-6.63v-7c0.37-3.33-0.73-6.65-2.21-10.33c0-10.69,0-21.75-0.37-33.19
	c0-1.84,0.37-4.06-0.74-6.26c0-0.37,0.74-1.48,0.37-2.21c-0.74-2.59,1.11-4.8,0.37-7.38c-1.11-2.21-1.11-4.8-2.21-7
	c0-0.74,0-1.11,0.37-2.21h3.32c1.84,0.37,2.95-0.37,4.42-0.37h3.7c2.95-1.11,5.89-2.22,8.85-3.32h29.5
	c4.43,1.1,9.22,0.73,14.02,1.47c6.26,1.11,12.54,2.59,18.43,1.85c2.22,0.74,4.06,1.47,5.91,1.84c4.06,0.74,7.74,2.95,11.43,5.17
	c4.06,2.95,7.74,5.91,11.8,8.85c2.95,2.58,4.8,5.52,6.63,8.85c1.48,1.84,2.59,3.69,4.06,5.52c2.59,3.32,4.06,7.37,2.96,11.43
	C654.41,528.69,653.67,530.52,652.93,532.37"/>
<path d="M1098.23,518.73v-0.74v0.37V518.73z M1097.49,543.44h0.37v0.37L1097.49,543.44z M1097.86,516.51
	c-0.37-0.73-0.73-1.47-1.1-2.21c0.73,0,1.47-0.37,2.21,0C1098.6,515.04,1098.23,515.78,1097.86,516.51 M1096.76,523.89
	c-0.74-0.37-0.74-1.11-0.37-1.48C1097.13,522.79,1097.49,523.16,1096.76,523.89 M1096.76,514.3c-0.37-0.37-0.74-0.37-1.11-0.37
	c-0.37-1.47-0.74-2.95-0.37-4.06c0.74-1.47-0.37-2.58-0.37-3.69h1.11C1097.49,508.77,1097.86,511.35,1096.76,514.3 M1092.71,542.7
	c-1.11,1.11-1.85,1.85-0.74,3.32C1093.07,545.28,1093.81,544.18,1092.71,542.7 M1091.23,502.13c-0.37-1.84-0.37-2.58-0.74-3.69
	C1091.97,499.18,1091.6,500.29,1091.23,502.13 M1087.17,565.2c-2.21,0-2.21,0-1.48,2.21C1086.06,566.67,1086.8,565.93,1087.17,565.2
	 M1083.85,588.43c-0.37,0.37-0.37,0.37-0.74,0.37c0,0,0-0.37,0.37-0.74C1083.48,588.43,1083.48,588.43,1083.85,588.43
	 M1083.11,589.17h-0.37c0,0,0.37,0,0.37-0.37V589.17z M1080.17,591.75c0.37-0.74,0.37-1.48,0.37-2.21c0.73,0,1.47,0,2.21-0.37
	c0.37,1.1,0,1.84-0.37,2.95c-0.74,0.74-1.47,1.11-2.21,1.11V591.75z M1079.8,593.23h0.37v0.36c-0.37,0.38-0.74,0.74-1.11,1.48h-0.37
	v-0.37C1079.06,594.33,1079.43,593.97,1079.8,593.23 M1077.95,595.44c0.37,0,0.74,0,0.74-0.37v0.74
	C1078.32,595.81,1078.32,595.81,1077.95,595.44 M1076.11,597.64c0-0.36,0-0.36-0.37-0.73h0.74
	C1076.48,597.29,1076.48,597.29,1076.11,597.64 M1075.37,596.55h0.37v0.37h-0.37V596.55z M1073.52,484.07
	c0,0.36-0.36,0.36-0.36,0.73v-0.73H1073.52z M1072.78,485.17v-0.37h0.38C1073.16,484.8,1072.78,484.8,1072.78,485.17
	 M1061.72,611.29h-0.37v1.11h0.37V611.29z M1057.29,623.46c-0.37,0-0.37-0.37-0.73-0.74h2.95
	C1058.03,623.09,1057.66,623.46,1057.29,623.46 M1051.03,588.06l-0.37-0.37v0.74C1050.66,588.43,1051.03,588.43,1051.03,588.06
	 M1050.29,589.9v-0.73c-0.37,0-0.37,0-0.74,0.37C1049.92,589.54,1049.92,589.54,1050.29,589.9 M1042.55,588.8
	c0.37,0,0.74-0.37,1.11-0.37c0-0.37-0.37-0.37-0.37-0.37c-0.37,0-0.74,0.37-1.11,0.37C1042.18,588.43,1042.18,588.8,1042.55,588.8
	 M1039.97,580.69h0.37H1039.97z M1046.97,593.59c-1.11-0.73-1.85,0-1.85,1.11c-0.73-0.37-1.11-0.37-1.84-0.73
	c-0.74,0.73-1.48,1.47-2.59,2.21c0.37,0.37,0.37,1.11,0.74,1.47c-0.74,0.38-1.1,0.38-1.84,0.74c0.37,0.74,0.37,1.48,0.37,2.22
	c2.21-1.48,4.79-2.96,5.53-5.91C1046.23,594.7,1046.97,594.7,1046.97,593.59 M1039.6,598.02c-0.37-0.38-0.37-0.74-1.11,0H1039.6z
	 M1037.01,581.79c1.11-0.36,1.85-0.73,2.96-1.1c-0.37,1.47-1.85,2.21-2.96,2.95V581.79z M1036.64,584.38c0,0,0-0.37,0.37-0.74
	C1037.01,584.01,1036.64,584.38,1036.64,584.38 M1035.17,597.29c-0.74,0-1.85-0.37-1.85,0.74
	C1034.06,597.64,1034.8,597.64,1035.17,597.29 M1032.95,599.12c0-0.37,0-0.74,0.37-0.74
	C1032.95,598.38,1032.21,598.38,1032.95,599.12 M1028.9,616.46c-1.47,0.37-2.58,0.37-3.32,0.74c-0.37,1.1-1.1,1.1-2.21,1.47
	c0,0.37,0,0.74,0.37,1.11c0.74,0,1.84,0,2.58-0.37c0.74-0.37,1.11-0.74,1.48-1.47C1028.16,617.94,1028.54,617.2,1028.9,616.46
	 M1023,617.2h0.37v0.37H1023V617.2z M1023.37,615.35c0,0.74,0,1.48-0.37,1.85c-0.37,0-0.74-0.37-1.11-0.74
	C1021.89,615.35,1022.63,615.35,1023.37,615.35 M1020.78,602.08l0.37,0.36h-0.37V602.08z M1017.1,606.5c0,0.37,0,0.74-0.37,0.74
	l-0.37-0.37c0-0.37,0.37-0.37,0.37-0.37H1017.1z M1014.52,608.35h0.37l-0.37,0.37V608.35z M1038.49,603.92
	c0.37-1.11,1.11-2.22,1.48-2.95c-1.11,0.37-2.22,0.37-2.96,0.73c-0.37-0.36-1.11-0.73-1.47-1.1c-1.11,1.48-2.22,2.58-2.95,3.69
	c-2.96,1.11-5.91,0.37-8.85,2.21c1.1,0.74,1.47,1.11,2.21,1.11c1.11,0,1.48-0.37,1.48,0.74c-2.22,2.58-4.8,3.69-8.11,2.58
	c-2.22,1.48-4.06,3.32-5.91,4.8c-0.74,1.85-1.47,3.69-1.84,4.8c0,1.48,0.37,2.58,0.37,3.69c1.1-0.74,1.84-1.11,2.95-1.48
	c0.74-0.37,1.84-0.73,2.58-0.73c0.74-1.48,1.11-2.22,1.48-3.33c0.37,0,0.74,0.37,1.1,0.37c0.37,0.37,0.74,1.11,1.11,1.85
	c-1.11,0.74-2.21,1.47-3.32,2.58c-0.37,0.37-0.74,0.74-1.11,1.48c-1.47-0.37-2.95,0.74-4.43,2.21c1.11,1.11-1.47,2.59,0,4.06
	c2.96-1.11,4.43-3.32,4.8-6.26c2.59-0.37,4.8-1.48,6.65-3.32c0-0.74-0.37-1.11-0.37-1.85c-1.11-0.37-1.11-0.37,0-1.11v-1.1
	c0.73-0.37,1.47-0.37,2.21-0.74v-1.48c0.74-0.74,1.48-1.11,2.58-1.84c-1.1-0.74-2.21,0.37-2.95-1.11c1.11-0.74,1.85-1.48,2.95-2.22
	c1.11,0.74,2.22,1.11,3.33,1.48v-1.11c-0.37-0.73-0.37-1.1-0.74-1.84C1033.32,607.24,1035.9,605.4,1038.49,603.92 M1064.31,518.36
	c-2.22-4.06-4.8-7.37-8.11-10.32c-2.96-1.85-5.54-3.33-8.48-4.8h-9.96c-2.95-0.37-5.54,0-7.74,1.11c-1.11,0.73-2.21,1.1-3.69,0.73
	c-0.74,0-1.48,0.37-2.22,0.37c-2.21,0.74-4.79,1.48-7,2.22c-2.21,0.74-4.43,1.47-7,2.21c-3.32,0.74-6.63,2.59-10.32,3.69
	c-1.11,0.37-1.85,1.11-2.96,1.85c0.74,4.06,5.54,4.8,6.65,8.11c0.73,5.52,3.32,10.32,6.26,15.12c1.11,2.22,1.48,4.06,0.74,6.63
	c0,0.37-0.37,1.11,0,1.85c0,2.58-0.37,5.17,0,7.74c0.37,2.95,0.37,5.54,0.37,8.48c0.37,2.95,1.11,5.54,1.47,8.48
	c0,1.11,0.37,1.84,0.37,2.95c-0.37,4.8-0.73,9.96,0,14.76c0.37,0.36,0.37,1.1,0.37,1.84c-1.1,6.65,0,13.28-0.37,20.65
	c1.11-0.37,1.85-0.74,2.59-1.11c1.47-1.84,2.95-3.69,4.79-5.16c1.48-1.48,3.7-2.59,5.17-4.43c1.48-1.48,2.95-2.96,4.06-4.8
	c-0.37-0.37-0.73-0.37-0.73-0.37c0-0.37,0.36-0.74,0.36-1.11c0.37,0.37,0.37,0.74,0.37,1.11c1.11,0,2.22,0,2.22-1.48
	c-0.74,0.37-1.48,0.37-2.22,0.37c0.74-1.48,1.11-1.48,2.22-0.37c0.37,0,1.47,0,1.47-0.37c1.48-1.84,2.22-3.32,3.69-5.52
	c1.85-1.48,4.8-2.96,6.65-5.54c-0.37-1.11-0.74-1.84-1.11-2.58h-1.84c0.73-1.85,1.1-3.32,2.21-4.8c1.11-1.85,0.74-4.06,1.11-5.54
	c2.21-2.21,4.06-4.06,5.52-6.26c1.48-1.48,2.96-3.32,4.06-5.17c1.11-1.85,1.11-4.43,0.74-6.26c1.48-2.22,2.95-4.43,4.43-6.65
	c2.95-4.8,5.17-10.32,7-15.86C1066.89,526.1,1066.52,522.05,1064.31,518.36 M981.33,490.7h-0.37c-0.37,0-0.37,0-0.37,0.37h0.37
	L981.33,490.7z M1099.34,522.42c0.74,2.58,0.37,5.17-0.37,7.74c-0.37,1.11-0.74,2.22-1.11,3.69c0.37,0.74,0.74,1.85,1.11,2.95
	c-0.74,1.11-1.84,2.59-2.21,4.07c-0.74,1.1-1.11,2.58-1.48,4.06c0.37,0.73,0.74,1.1,1.11,2.21c-0.37,0.74-1.11,1.48-1.85,2.21
	c0,0.74,0,1.48,0.37,2.59c0.74-0.37,1.48-0.37,2.22-0.74c0.36,2.21-2.22,2.21-2.59,4.06c0.74,0.37,1.48,0.74,1.85,0.74
	c0.74,1.47-0.37,2.21-0.74,3.32c-0.37,3.32-0.37,6.26-0.37,9.59c-1.11,2.21-2.58,4.79-3.69,7.37v1.84
	c-1.11,3.69-4.43,5.54-6.63,8.48c-0.74-0.37-1.11-0.37-1.85-0.74c-1.48,1.11-2.21,2.22-2.58,3.7c-2.22,1.84-3.7,4.43-5.17,7
	c-0.74,0.74-1.85,1.48-2.95,2.58c0.74,0.37,1.47,0.74,2.21,1.11c-4.43,0.74-7,3.32-8.85,6.63c-0.73,1.11-1.84,1.85-2.58,2.59
	c0.74,0.37,1.11,0.73,2.21,1.1c-1.1,1.85-2.21,2.96-3.32,4.43c-1.84,1.85-3.32,3.69-4.8,5.54c-0.37,0.74-0.73,1.48-0.73,2.21
	c-1.85,1.11-1.11,3.33-2.59,4.43c-1.11,1.11-2.21,2.59-2.95,4.06c-1.48,2.95-3.32,5.54-2.95,9.22c-3.69,1.48-5.54,4.43-8.11,7.74
	c0.37,0.74,0.37,1.85,0.37,2.95c-0.74,1.11-1.48,2.59-2.22,4.43c-2.22,1.85-3.69,4.43-5.52,7.01c-1.11,1.84-2.59,4.06-4.06,5.89
	c-1.11,1.48-2.22,3.32-4.06,3.69l-0.38,0.37c-1.84,1.48-2.95,3.32-4.79,4.8c-1.85,1.11-2.96,3.32-4.43,4.8h-4.06
	c-1.11,1.47-2.59,2.21-3.32,3.69c-1.11,1.47-2.22,2.58-3.69,3.32c-0.74,0.37-1.48,0.37-2.22,0.37c-0.37,0.37-0.37,1.11-0.74,1.48
	c-0.74-0.37-1.1-0.74-1.84-1.48c-0.74,0.37-1.85,1.11-2.96,1.48c-1.1,0.36-1.84,1.47-2.95,2.21c-2.95,2.21-5.89,4.06-8.48,5.91
	c-5.52,1.84-9.58-0.37-14.38-2.22c-0.37-1.11-0.74-2.58-1.48-4.43c-0.74-2.21-4.06-2.95-5.17-5.54c-0.36-0.36,0-0.36,0-0.73
	c0.37,0,1.11,0,1.85,0.37c0-2.22-2.95-4.06-1.11-6.65c-0.74-0.37-1.47-0.73-2.21-1.11c0,1.85,0.37,3.7,0.37,5.54h-0.74
	c-0.37-1.84-1.11-3.69-1.48-5.89c1.11-1.11,1.85-2.22,2.59-3.7c0.37-1.84,0.37-4.06,0.37-6.63c-2.96-4.43-1.85-10.69-4.43-15.49
	c0-3.69,0.37-6.63,0-9.95c-0.74-9.22-1.11-18.08-0.37-27.3c0-2.58,0-5.17-1.48-7.74c1.11-4.06-0.37-8.85,0.74-13.28
	c-0.37-0.74-0.74-1.47-1.48-2.58c0.37-0.37,0.74-1.11,1.11-1.48c-0.37-1.47-1.11-2.95-0.74-4.06c0.37-2.58,0-5.16-0.37-7.37
	c-0.37-3.32,0-7,0-10.32c0-2.59-0.37-5.17,0.37-7.74c0.37-1.85-0.37-3.7-0.74-5.91c0-1.11,0.37-2.58,0.37-3.69
	c0-1.48,0.37-2.95,0.37-4.43c-0.37-4.43-0.74-8.85-1.1-13.28c-0.37-2.95-0.37-6.26-0.74-9.21c-0.37-2.96,0.37-5.54,0.74-8.48
	c0.73-4.06,0.36-8.11,0.73-12.17c0.37-2.59,0.37-5.17,0.37-7.38c-1.1-1.1-1.47-1.84-2.21-2.95c0.37-1.11,1.47,0,2.21-0.74
	c0-0.37,0-1.1,0.37-2.58c0.74-0.37,1.48-1.11,2.22-1.84c2.58-0.37,5.16-1.11,7.37-1.48c1.84,0.74,3.69,1.11,5.54,1.48
	c1.47,0.36,2.95,0.73,4.42,1.1c2.22-1.1,4.8-1.84,7-1.84c2.59,0.74,2.96,2.95,3.7,4.79v1.85c0.36,0.37,0.74,1.11,1.1,1.85
	c0.74,0,1.11,0,1.48-0.37c6.63-4.06,14.02-7.37,21.02-10.33c0.37,0,0.37-0.37,0.74-0.37c8.11-1.84,15.86-5.16,24.33-5.52
	c5.54,0,11.07-1.11,16.24,0.74c2.21,0.36,4.06,0,6.63,0.36c1.84,0.74,4.06,1.11,5.89,3.33c1.11-0.37,1.85-0.37,2.96-0.37
	c1.84,0.74,3.32,1.1,5.16,1.47c0.74,1.48,2.59,1.48,3.7,2.59c1.1,1.1,2.58,1.84,4.06,2.58c1.47,0.74,3.32,1.85,4.43,2.95
	c1.1,1.48,2.21,3.32,2.58,4.8c0.37,2.22,2.21,4.06,1.84,6.28c1.11,0.37,1.85,0.37,2.96,0.37v1.47c-1.11,0.37-1.85,1.11-2.59,1.48
	c1.11,1.84,1.85,3.69,3.32,6.26c0.37,1.48,0.37,4.06,0.37,6.28c0.37,0.37,0,0.37,0,0.74c0.74,1.1,1.48,2.21,1.48,3.69
	c0,1.1-0.37,2.95,0,3.69c1.11,1.47-0.37,2.58,0,4.06c0.37,0.37,0,1.47,1.48,1.84c0.74-4.43,2.21-8.48,1.84-12.91
	C1099.71,520.58,1099.34,521.68,1099.34,522.42"/>
<path d="M207.25,873.56h-1.1c0,0.37,0.36,0.73,0.36,1.1C206.88,874.29,206.88,873.93,207.25,873.56 M205.41,1053.15
	c0,0.37,0,0.74,0.37,1.48c-0.74,0.37-1.11,0.37-1.85,0.74c0-0.37,0.37-1.11,0.37-1.48C204.3,1053.52,204.67,1053.52,205.41,1053.15
	 M203.93,1055.37h-0.37H203.93z M202.47,908.96c0,0-0.37,0-0.37-0.37h0.37V908.96z M201.73,908.59l0.37-0.37v0.37H201.73z
	 M202.1,965.02v-0.74C201.73,964.28,201.36,964.28,202.1,965.02 M198.4,1055.74c0,0,0-0.37-0.36-0.37h0.73
	C198.77,1055.37,198.77,1055.74,198.4,1055.74 M198.04,1055v0.37V1055z M196.93,865.81l0.37,0.38c0,0,0,0.36-0.37,0.36
	c0,0,0-0.36-0.37-0.36L196.93,865.81z M192.13,914.13h-0.37v-0.37L192.13,914.13z M191.39,911.91l-0.37-0.37h0.74
	C191.76,911.91,191.39,911.91,191.39,911.91 M203.56,1055.37c0,1.84-2.21,2.58-2.95,4.06c-0.74,1.47-1.85,2.95-3.32,4.8
	c0,0.36,0,1.1-0.37,1.84c-0.74,2.58-3.32,3.69-4.8,5.91c-1.11-0.74-1.84-1.48-2.21-1.85c-0.37,0-0.37,0-0.37,0.37v-0.37h0.37
	c0.37-1.84,1.47-3.69,2.95-4.43c1.84-1.47,2.95-3.32,4.43-5.17C199.14,1058.32,200.62,1056.11,203.56,1055.37 M189.56,1070.86h-0.37
	c0-0.37,0.37-0.37,0.37-0.37V1070.86z M189.19,913.39l0.37-0.37v0.37H189.19z M187.71,911.91h-0.37H187.71z M187.34,911.91
	c-1.11,2.22-2.95,2.59-5.16,2.95C183.28,913.02,185.13,911.91,187.34,911.91 M182.18,914.86h-0.37H182.18z M179.96,915.6
	c0.74-0.37,1.48-0.37,1.85-0.74C181.81,915.97,181.07,915.97,179.96,915.6 M178.48,917.08v0.37l-0.37-0.37H178.48z M177.02,914.13
	c0,0-0.37,0-0.37,0.37v-0.74C177.02,913.76,177.02,914.13,177.02,914.13 M176.28,1071.23c0,0.37,0,0.37,0.37,0.37h1.11v-0.37H176.28
	z M176.28,914.86v-0.36h0.37C176.65,914.5,176.28,914.5,176.28,914.86 M162.63,993.04h-0.37H162.63z M161.9,1026.24l0.36-0.37h-0.36
	V1026.24z M157.47,998.58v-0.37V998.58z M159.68,994.52c1.11,0,1.85-0.74,2.58-1.48c0.37,1.11,0.37,1.85-0.73,2.58
	c-0.37,0.37-0.74,0.74-0.74,1.11c-1.48,0-2.22,0.74-3.32,1.48C157.1,996.36,157.84,994.89,159.68,994.52 M150.46,1081.92h-0.37
	c-0.73,0-2.21-0.37-2.58,1.11C148.62,1083.03,149.73,1083.03,150.46,1081.92 M141.25,1081.18c-1.48-1.47-2.96-2.95-5.17-3.32
	c-0.37,0.37-1.11,1.11-1.85,1.85c2.22,0.37,0.37,1.84,1.48,2.58C137.56,1082.66,139.4,1082.29,141.25,1081.18 M132.02,1079.71
	c-1.48,0.73-1.85-1.11-2.95,0v1.47C129.8,1080.81,130.91,1081.18,132.02,1079.71 M116.91,1058.32l-0.37-0.37h0.37V1058.32z
	 M113.95,1051.32c0,0.73,0.37,1.11,0.37,1.84C112.85,1053.15,113.58,1052.05,113.95,1051.32 M108.05,1007.8h-0.37H108.05z
	 M230.12,875.4c0.73,1.11,1.1,1.85,1.84,2.59c-0.37,0.36-0.37,1.1-1.11,1.84c-2.58,2.95-4.79,6.28-6.26,9.96
	c-1.84,4.06-4.06,7.37-7.37,10.32c-2.95,2.59-6.28,4.06-8.48,6.65c-0.74,0.73-1.48,0.73-2.22,1.1c-1.47,0.74-3.32,1.48-4.79,2.58
	c-1.11,0.74-1.85,1.48-2.96,1.11c-1.84,1.11,7.38-5.17,5.54-4.06c-0.74-0.37-1.84-0.37-2.58,1.11c-1.85,0.37-3.33,1.84-4.8,3.32
	c-1.11,0.74-1.85,1.11-2.95,0.74c0.36-0.37,0.73-1.11,1.1-1.48c-1.1-0.36-2.21-0.74-3.32-1.1c-0.37,0.36-0.74,0.74-1.11,1.1
	c0.37,0,0.37,0.37,0.37,0.37h-0.37v-0.37l-2.95,0.74v-1.1c1.11-0.74,2.59-1.48,3.69-2.22c0-0.74-0.37-1.11-0.37-1.48
	c-3.69,0.74-6.26,3.32-9.58,3.32c-0.74,1.11-1.11,1.85-1.85,2.96c-0.74-0.74-1.11-1.11-1.48-1.48h-2.58
	c-0.74,0.37-1.84,1.11-2.58,1.48c0,0.37,0,0.74,0.37,1.11c0.73,0.36,1.84,0.36,2.95,0.36c-0.37,1.11-1.48,1.48-2.22,1.85
	c-0.73,0.37-1.1,0.74-1.47,0.74c0.74,1.11,1.84,2.21,2.58,3.32c0.37,1.85,0.74,3.69,0.74,5.54c-0.74,2.95-1.85,5.52-2.95,8.84
	c0.37,1.85,0.74,4.43,0.74,6.65c0,2.95-1.48,5.16-1.48,7.74c0,2.58-2.21,4.43-1.85,7c6.28-2.21,12.54-3.69,19.19-4.43
	c2.58-0.37,4.79-1.84,7.37-1.84c1.11,2.21,1.84,4.06,2.95,6.63c-0.37,0-0.37,0.74-0.74,1.48c0.37,1.1,0.74,2.21,1.48,3.32
	c0,0.37,0.74,0.74,1.48,0.74c0,0.74,0,1.1,0.37,1.84c1.1,0.37,2.21,1.11,3.69,1.85c1.1-0.37,2.58-0.74,4.06-1.11
	c0.73,0.37,1.47,0.74,2.21,1.48c0,0.37,0,0.74-0.37,0.74c-3.32,2.58-6.63,5.16-7.74,9.58c-3.69,3.32-7.37,6.28-11.43,9.22
	c-1.11,1.11-2.58,2.21-4.43,2.21c-1.11,0-1.85,0.74-2.58,1.11c-2.96-0.37-6.28-0.74-8.85,0.74c-3.32,1.84-7,1.84-10.33,1.84
	c-1.1-0.37-1.84-0.37-2.21-0.37c-0.74,0.37-1.48,1.11-1.85,1.48c-0.37-0.37-0.73-0.74-1.1-1.11c-0.74,0.37-1.48,0.74-1.85,1.11
	c-1.11,0-2.21-0.37-3.32-0.37c-0.74,1.11-1.48,2.22-2.59,3.32c1.11,3.7-1.84,7.01-1.84,10.7c1.84-0.37,2.58-1.48,2.58-2.59
	c0.37-2.58,1.48-4.06,2.96-5.52c0,0.74,0.37,1.11,0.37,2.21c1.47-1.47,2.21-2.58,2.95-4.06c0.37,0.37,0.37,0.37,0.74,0.37
	c0,1.48-0.37,2.95,0,4.43c0.37,1.84-0.74,3.32,0.37,5.17c-0.74,1.47-0.37,2.95-0.37,4.43c0,1.84-0.37,3.32,0,5.16
	c0.37,1.85,0.37,3.69,0.37,5.17c0,1.48,0.36,2.58,2.21,3.69c2.21-1.11,4.43-2.21,6.63-3.32c2.59-1.11,4.8-2.21,7.37-3.69
	c0-0.37,0.37-0.74,0.74-1.48c2.59-1.1,4.8-2.21,7.01-3.32c4.79-1.47,9.58-2.58,14.01-3.69c0.37-0.37,0.74-0.74,1.11-1.11
	c0.74-0.37,1.11-1.11,1.48-1.47c7-1.11,14.01-1.85,20.64-2.96c1.85-1.84,3.69-3.69,6.28-4.79c1.47,0.37,2.95,0.73,4.43,1.1
	c2.58,1.85,4.06,3.69,2.95,6.65c0.37,0.74,0.74,1.47,1.11,2.21c0,1.11,0,2.22,0.74,2.59c1.1,0,1.84-0.37,2.58-0.37
	c0.37,1.1-1.11,1.47-1.48,2.58c0,1.11,0,2.58,0.37,4.43c-0.37,0.37-0.74,1.11-1.11,1.84c-2.95,1.85-4.79,4.8-7,7.38
	c-2.58,4.06-5.89,7.37-9.58,10.69c-2.59,1.85-5.17,4.43-8.11,5.91c-4.43,2.21-8.11,5.16-11.44,8.47c-0.36,0-0.73-0.36-1.1-0.36
	c-0.74,1.47-3.33,0.73-3.69,2.58c-2.96,1.84-5.91,4.06-8.11,7c-0.74,1.11-2.22,1.85-3.7,2.95c-2.58,4.43-4.42,9.59-9.21,12.54
	c-1.48,0.37-2.96,0.37-5.17,0.74c-0.37,1.11-1.48,2.21-2.21,3.32c0.73,0.74,1.1,1.48,1.84,2.22c-2.95,1.47-5.54,1.47-8.85-0.37
	c0-1.11,0.37-1.85,0.37-3.32h-1.1c-1.48,1.84-3.33,2.95-5.17,4.06c-0.74,0-1.85-0.37-2.59-0.37c-1.84,0.37-3.69,0.73-5.16,1.47
	c-1.11-0.74-1.11-1.47-1.48-2.21c-1.11,0-2.58-0.37-3.69-0.37c-0.74,0.74-1.48,1.11-2.21,1.84c-3.33-0.36-6.65-1.1-10.33-1.47
	c-0.74-0.37-1.84-0.74-2.58-1.85c-1.48,0.37-2.22-0.37-3.33-1.47c0-0.74,0.74-1.48,1.11-1.85c0-0.37,0.37-0.37,0-0.74
	c-1.11-1.1-2.58-2.58-4.06-3.69c-0.37-1.47-0.74-2.95-1.1-4.43c-0.37-1.47-1.48-2.58-1.85-4.06c-0.37-1.47-1.85-2.21-2.21-3.69
	c0.36-0.37,0.73-0.74,1.47-1.1c0.37-2.22-1.11-4.06-1.84-5.54c-0.74-0.74-2.22-0.37-2.59-1.48c0.37-0.73,0.74-1.11,1.48-1.84
	c-1.11-1.11-2.22-2.22-2.95-2.95c0-0.74,0.37-1.11,0.37-1.85c-0.37-0.37-0.74-1.11-1.48-1.48c0,0-0.37-0.37-0.37-0.73
	c0.37-2.59,0.37-4.8-1.48-6.65c1.48-1.84,0.74-4.43,0.74-6.63c0.37-1.85-0.37-3.69-0.37-5.91c0-2.21-1.11-4.06-1.11-6.26
	c-0.36-0.37-1.1-0.74-1.47-1.11c0.37-0.37,0.74-1.11,1.47-1.85c-0.36-0.73-1.1-1.84-1.47-2.58c0.37-1.84,0.37-3.69,0.37-5.52
	c0.74-0.38,0.74-1.11,0.74-1.85c-0.37-1.11-0.74-2.59-1.48-4.06c0-0.37,0.37-1.48,1.11-2.58c0-2.96-0.74-6.65,1.47-9.96
	c-0.37-1.85,0.37-3.69,0.37-5.54c-0.37-2.21,0.37-4.06,0.37-6.26c-0.37-1.85,0.74-3.69,1.11-5.54c0.37-2.58,0.74-5.16,0.74-7.74
	c0.37-5.16,2.58-9.95,1.47-15.12c1.11-5.17,1.85-10.33,2.59-15.49c0.37-2.59,0.74-5.17,0.37-8.11c0-1.11,0-2.59,0.37-3.69
	c0.36-5.54,1.1-10.7,1.84-15.86c0-1.11,0.37-1.85,0.37-2.96c1.48-3.69,1.11-7.74,1.85-11.43v-1.47c-0.37,0.36-0.74,0.36-0.74,0.36
	c-1.48-0.73-1.48-1.84-1.48-3.32l0.37-0.37c-0.74-0.37-1.48-0.73-2.21-1.47c0.36-0.74,1.1-1.48,1.47-2.22c0-0.74-0.37-1.1-0.37-1.47
	v-1.11c1.48-0.74,2.59,1.84,4.43,1.11v-0.74h0.37c0-1.48-1.84-2.22-1.48-3.69c0.74-1.11,1.85,0.37,2.59,0
	c0.74-0.37,1.47-1.11,2.58-1.48c0.37,0.37,0.37,0.74,1.11,1.48c1.11,1.1,2.58,1.47,4.43,0.74c0.74-0.74,1.1-1.48,1.47-2.22
	c0.74,0,1.11-0.37,1.48-0.37c1.85,0.74,3.69,0.74,5.54,0.37c4.06-1.11,7.37,0.37,10.32,2.95c0.37,0,1.11,0,1.48-0.37
	c6.63-2.58,17.7-3.69,18.06-1.47c0.37,0,0.37,0.37,0.74,0.37c7.37-3.32,14.75-6.28,22.5-9.22c-0.37,0-0.37,0-0.37-0.37
	c0.37-0.37,0.37,0,0.73,0c0.37,0,1.11-0.37,1.85-0.74c0.37,0.37,0.37,0.74,0.74,0.74c0.37,0,1.11,0,1.47-0.37
	c0.74-0.74,1.11-1.84,1.85-2.95c5.91-1.85,0.37,2.21,7.37,2.58c-0.37,1.85-1.11,3.33-1.47,5.17c3.32-0.37,6.26-0.74,9.58-2.21
	c0,0,0.37-0.37,0.74-0.37c3.32-0.37,6.28-1.85,9.22-3.7c1.47,0.38,2.95,0.38,4.43,0.74c1.1,1.48,2.21,2.96,3.69,4.8
	C232.33,872.82,231.22,874.29,230.12,875.4 M107.31,1005.58c0.37,0.74,0.37,1.48,0.37,2.22
	C106.94,1007.42,106.57,1007.06,107.31,1005.58"/>
<path d="M635.04,873.56h-1.1c0,0.37,0.36,0.73,0.36,1.1C634.67,874.29,634.67,873.93,635.04,873.56 M633.2,1053.15
	c0,0.37,0,0.74,0.37,1.48c-0.74,0.37-1.11,0.37-1.85,0.74c0-0.37,0.37-1.11,0.37-1.48C632.09,1053.52,632.46,1053.52,633.2,1053.15
	 M631.72,1055.37h-0.37H631.72z M630.25,908.96c0,0-0.37,0-0.37-0.37h0.37V908.96z M629.52,908.59l0.37-0.37v0.37H629.52z
	 M629.89,965.02v-0.74C629.52,964.28,629.15,964.28,629.89,965.02 M626.19,1055.74c0,0,0-0.37-0.36-0.37h0.73
	C626.56,1055.37,626.56,1055.74,626.19,1055.74 M625.83,1055v0.37V1055z M624.72,865.81l0.37,0.38c0,0,0,0.36-0.37,0.36
	c0,0,0-0.36-0.37-0.36L624.72,865.81z M619.92,914.13h-0.37v-0.37L619.92,914.13z M619.18,911.91l-0.37-0.37h0.74
	C619.55,911.91,619.18,911.91,619.18,911.91 M631.35,1055.37c0,1.84-2.21,2.58-2.95,4.06c-0.74,1.47-1.85,2.95-3.32,4.8
	c0,0.36,0,1.1-0.37,1.84c-0.74,2.58-3.32,3.69-4.8,5.91c-1.11-0.74-1.84-1.48-2.21-1.85c-0.37,0-0.37,0-0.37,0.37v-0.37h0.37
	c0.37-1.84,1.47-3.69,2.95-4.43c1.84-1.47,2.95-3.32,4.43-5.17C626.93,1058.32,628.41,1056.11,631.35,1055.37 M617.35,1070.86h-0.37
	c0-0.37,0.37-0.37,0.37-0.37V1070.86z M616.98,913.39l0.37-0.37v0.37H616.98z M615.5,911.91h-0.37H615.5z M615.13,911.91
	c-1.11,2.22-2.95,2.59-5.16,2.95C611.07,913.02,612.92,911.91,615.13,911.91 M609.97,914.86h-0.38H609.97z M607.75,915.6
	c0.74-0.37,1.48-0.37,1.84-0.74C609.59,915.97,608.86,915.97,607.75,915.6 M606.27,917.08v0.37l-0.37-0.37H606.27z M604.81,914.13
	c0,0-0.37,0-0.37,0.37v-0.74C604.81,913.76,604.81,914.13,604.81,914.13 M604.07,1071.23c0,0.37,0,0.37,0.37,0.37h1.11v-0.37H604.07
	z M604.07,914.86v-0.36h0.37C604.44,914.5,604.07,914.5,604.07,914.86 M590.42,993.04h-0.37H590.42z M589.69,1026.24l0.36-0.37
	h-0.36V1026.24z M585.26,998.58v-0.37V998.58z M587.47,994.52c1.11,0,1.84-0.74,2.58-1.48c0.37,1.11,0.37,1.85-0.74,2.58
	c-0.36,0.37-0.73,0.74-0.73,1.11c-1.48,0-2.22,0.74-3.32,1.48C584.89,996.36,585.63,994.89,587.47,994.52 M578.25,1081.92h-0.37
	c-0.73,0-2.21-0.37-2.58,1.11C576.41,1083.03,577.51,1083.03,578.25,1081.92 M569.03,1081.18c-1.48-1.47-2.96-2.95-5.17-3.32
	c-0.37,0.37-1.11,1.11-1.85,1.85c2.22,0.37,0.37,1.84,1.48,2.58C565.35,1082.66,567.19,1082.29,569.03,1081.18 M559.81,1079.71
	c-1.48,0.73-1.85-1.11-2.95,0v1.47C557.59,1080.81,558.7,1081.18,559.81,1079.71 M544.69,1058.32l-0.37-0.37h0.37V1058.32z
	 M541.74,1051.32c0,0.73,0.37,1.11,0.37,1.84C540.64,1053.15,541.37,1052.05,541.74,1051.32 M535.84,1007.8h-0.37H535.84z
	 M657.91,875.4c0.73,1.11,1.1,1.85,1.84,2.59c-0.37,0.36-0.37,1.1-1.11,1.84c-2.58,2.95-4.79,6.28-6.26,9.96
	c-1.84,4.06-4.06,7.37-7.37,10.32c-2.95,2.59-6.28,4.06-8.48,6.65c-0.74,0.73-1.48,0.73-2.22,1.1c-1.47,0.74-3.32,1.48-4.79,2.58
	c-1.11,0.74-1.85,1.48-2.96,1.11c-1.84,1.11,7.38-5.17,5.54-4.06c-0.74-0.37-1.84-0.37-2.58,1.11c-1.85,0.37-3.33,1.84-4.8,3.32
	c-1.11,0.74-1.85,1.11-2.95,0.74c0.36-0.37,0.73-1.11,1.1-1.48c-1.1-0.36-2.21-0.74-3.32-1.1c-0.37,0.36-0.74,0.74-1.11,1.1
	c0.37,0,0.37,0.37,0.37,0.37h-0.37v-0.37l-2.95,0.74v-1.1c1.11-0.74,2.59-1.48,3.69-2.22c0-0.74-0.37-1.11-0.37-1.48
	c-3.69,0.74-6.26,3.32-9.58,3.32c-0.74,1.11-1.11,1.85-1.85,2.96c-0.74-0.74-1.11-1.11-1.48-1.48h-2.58
	c-0.74,0.37-1.84,1.11-2.58,1.48c0,0.37,0,0.74,0.37,1.11c0.73,0.36,1.84,0.36,2.95,0.36c-0.37,1.11-1.48,1.48-2.22,1.85
	c-0.73,0.37-1.1,0.74-1.47,0.74c0.74,1.11,1.84,2.21,2.58,3.32c0.37,1.85,0.74,3.69,0.74,5.54c-0.74,2.95-1.85,5.52-2.95,8.84
	c0.37,1.85,0.74,4.43,0.74,6.65c0,2.95-1.48,5.16-1.48,7.74c0,2.58-2.22,4.43-1.85,7c6.28-2.21,12.54-3.69,19.19-4.43
	c2.58-0.37,4.79-1.84,7.37-1.84c1.11,2.21,1.84,4.06,2.95,6.63c-0.37,0-0.37,0.74-0.74,1.48c0.37,1.1,0.74,2.21,1.48,3.32
	c0,0.37,0.74,0.74,1.48,0.74c0,0.74,0,1.1,0.37,1.84c1.1,0.37,2.21,1.11,3.69,1.85c1.1-0.37,2.58-0.74,4.06-1.11
	c0.73,0.37,1.47,0.74,2.21,1.48c0,0.37,0,0.74-0.37,0.74c-3.32,2.58-6.63,5.16-7.74,9.58c-3.69,3.32-7.37,6.28-11.43,9.22
	c-1.11,1.11-2.58,2.21-4.43,2.21c-1.11,0-1.85,0.74-2.58,1.11c-2.96-0.37-6.28-0.74-8.85,0.74c-3.32,1.84-7.02,1.84-10.33,1.84
	c-1.1-0.37-1.84-0.37-2.21-0.37c-0.74,0.37-1.48,1.11-1.85,1.48c-0.37-0.37-0.73-0.74-1.11-1.11c-0.73,0.37-1.47,0.74-1.84,1.11
	c-1.11,0-2.21-0.37-3.32-0.37c-0.74,1.11-1.48,2.22-2.59,3.32c1.11,3.7-1.84,7.01-1.84,10.7c1.84-0.37,2.58-1.48,2.58-2.59
	c0.37-2.58,1.48-4.06,2.96-5.52c0,0.74,0.37,1.11,0.37,2.21c1.47-1.47,2.21-2.58,2.95-4.06c0.37,0.37,0.37,0.37,0.73,0.37
	c0,1.48-0.36,2.95,0,4.43c0.38,1.84-0.73,3.32,0.38,5.17c-0.74,1.47-0.38,2.95-0.38,4.43c0,1.84-0.36,3.32,0,5.16
	c0.38,1.85,0.38,3.69,0.38,5.17c0,1.48,0.36,2.58,2.21,3.69c2.21-1.11,4.43-2.21,6.63-3.32c2.59-1.11,4.8-2.21,7.37-3.69
	c0-0.37,0.37-0.74,0.74-1.48c2.59-1.1,4.8-2.21,7.02-3.32c4.79-1.47,9.58-2.58,14.01-3.69c0.37-0.37,0.74-0.74,1.11-1.11
	c0.74-0.37,1.11-1.11,1.48-1.47c7-1.11,14.01-1.85,20.64-2.96c1.85-1.84,3.69-3.69,6.28-4.79c1.47,0.37,2.95,0.73,4.43,1.1
	c2.58,1.85,4.06,3.69,2.95,6.65c0.37,0.74,0.74,1.47,1.11,2.21c0,1.11,0,2.22,0.74,2.59c1.1,0,1.84-0.37,2.58-0.37
	c0.37,1.1-1.11,1.47-1.48,2.58c0,1.11,0,2.58,0.37,4.43c-0.37,0.37-0.74,1.11-1.11,1.84c-2.95,1.85-4.79,4.8-7,7.38
	c-2.58,4.06-5.89,7.37-9.58,10.69c-2.59,1.85-5.17,4.43-8.11,5.91c-4.43,2.21-8.11,5.16-11.44,8.47c-0.36,0-0.73-0.36-1.1-0.36
	c-0.74,1.47-3.33,0.73-3.69,2.58c-2.96,1.84-5.91,4.06-8.11,7c-0.74,1.11-2.22,1.85-3.7,2.95c-2.58,4.43-4.43,9.59-9.21,12.54
	c-1.48,0.37-2.96,0.37-5.17,0.74c-0.37,1.11-1.48,2.21-2.21,3.32c0.73,0.74,1.1,1.48,1.84,2.22c-2.95,1.47-5.54,1.47-8.85-0.37
	c0-1.11,0.37-1.85,0.37-3.32h-1.1c-1.48,1.84-3.33,2.95-5.17,4.06c-0.74,0-1.85-0.37-2.59-0.37c-1.84,0.37-3.69,0.73-5.16,1.47
	c-1.11-0.74-1.11-1.47-1.48-2.21c-1.11,0-2.58-0.37-3.69-0.37c-0.74,0.74-1.48,1.11-2.21,1.84c-3.33-0.36-6.65-1.1-10.33-1.47
	c-0.74-0.37-1.85-0.74-2.58-1.85c-1.48,0.37-2.22-0.37-3.33-1.47c0-0.74,0.74-1.48,1.11-1.85c0-0.37,0.37-0.37,0-0.74
	c-1.11-1.1-2.58-2.58-4.06-3.69c-0.37-1.47-0.74-2.95-1.1-4.43c-0.37-1.47-1.48-2.58-1.85-4.06c-0.37-1.47-1.85-2.21-2.21-3.69
	c0.36-0.37,0.73-0.74,1.47-1.1c0.37-2.22-1.11-4.06-1.84-5.54c-0.74-0.74-2.22-0.37-2.59-1.48c0.37-0.73,0.74-1.11,1.48-1.84
	c-1.11-1.11-2.22-2.22-2.95-2.95c0-0.74,0.37-1.11,0.37-1.85c-0.37-0.37-0.74-1.11-1.48-1.48c0,0-0.37-0.37-0.37-0.73
	c0.37-2.59,0.37-4.8-1.48-6.65c1.48-1.84,0.74-4.43,0.74-6.63c0.37-1.85-0.37-3.69-0.37-5.91c0-2.21-1.11-4.06-1.11-6.26
	c-0.36-0.37-1.1-0.74-1.47-1.11c0.37-0.37,0.74-1.11,1.47-1.85c-0.36-0.73-1.1-1.84-1.47-2.58c0.37-1.84,0.37-3.69,0.37-5.52
	c0.74-0.38,0.74-1.11,0.74-1.85c-0.37-1.11-0.74-2.59-1.48-4.06c0-0.37,0.37-1.48,1.11-2.58c0-2.96-0.74-6.65,1.47-9.96
	c-0.37-1.85,0.37-3.69,0.37-5.54c-0.37-2.21,0.37-4.06,0.37-6.26c-0.37-1.85,0.74-3.69,1.11-5.54c0.37-2.58,0.74-5.16,0.74-7.74
	c0.37-5.16,2.58-9.95,1.47-15.12c1.11-5.17,1.85-10.33,2.59-15.49c0.37-2.59,0.74-5.17,0.37-8.11c0-1.11,0-2.59,0.37-3.69
	c0.36-5.54,1.1-10.7,1.84-15.86c0-1.11,0.37-1.85,0.37-2.96c1.48-3.69,1.11-7.74,1.85-11.43v-1.47c-0.37,0.36-0.74,0.36-0.74,0.36
	c-1.48-0.73-1.48-1.84-1.48-3.32l0.37-0.37c-0.74-0.37-1.48-0.73-2.21-1.47c0.36-0.74,1.1-1.48,1.47-2.22c0-0.74-0.37-1.1-0.37-1.47
	v-1.11c1.48-0.74,2.59,1.84,4.43,1.11v-0.74h0.37c0-1.48-1.84-2.22-1.48-3.69c0.74-1.11,1.85,0.37,2.59,0
	c0.74-0.37,1.47-1.11,2.58-1.48c0.37,0.37,0.37,0.74,1.11,1.48c1.11,1.1,2.58,1.47,4.43,0.74c0.74-0.74,1.1-1.48,1.47-2.22
	c0.74,0,1.11-0.37,1.48-0.37c1.85,0.74,3.69,0.74,5.54,0.37c4.06-1.11,7.37,0.37,10.32,2.95c0.37,0,1.11,0,1.48-0.37
	c6.63-2.58,17.7-3.69,18.06-1.47c0.37,0,0.37,0.37,0.74,0.37c7.37-3.32,14.75-6.28,22.5-9.22c-0.37,0-0.37,0-0.37-0.37
	c0.37-0.37,0.37,0,0.73,0c0.37,0,1.11-0.37,1.85-0.74c0.37,0.37,0.37,0.74,0.74,0.74s1.11,0,1.47-0.37
	c0.74-0.74,1.11-1.84,1.85-2.95c5.91-1.85,0.37,2.21,7.37,2.58c-0.37,1.85-1.11,3.33-1.47,5.17c3.32-0.37,6.26-0.74,9.58-2.21
	c0,0,0.37-0.37,0.74-0.37c3.32-0.37,6.28-1.85,9.22-3.7c1.47,0.38,2.95,0.38,4.43,0.74c1.1,1.48,2.21,2.96,3.69,4.8
	C660.12,872.82,659.01,874.29,657.91,875.4 M535.1,1005.58c0.37,0.74,0.37,1.48,0.37,2.22
	C534.73,1007.42,534.36,1007.06,535.1,1005.58"/>
<path d="M1075,1037.67h0.37H1075z M1073.89,1035.09h0.37H1073.89z M1066.89,1075.65h-1.85
	C1065.41,1076.39,1066.15,1076.39,1066.89,1075.65 M1065.04,1075.65c0-0.73-0.37-0.73-0.74-0.73
	C1064.3,1075.29,1064.67,1075.65,1065.04,1075.65 M1062.46,1077.5c0.37,0,0.37,0.37,0.37,0.37h-0.37V1077.5z M1061.35,1032.5
	c1.48,2.22,3.32,4.06,3.69,7c0.37,0.74,0.74,1.85,1.48,2.22c1.1,0.37,1.1,1.1,1.84,1.84c0.37,0.74,1.11,1.48,1.85,1.85
	c0.74,0.37,1.85,0.74,2.58,1.11c0-0.74,0-1.11-0.37-1.48c-0.73-1.48-1.84-2.22-2.58-3.69c-0.74-1.48-1.48-2.58-2.22-3.69
	c-0.73-0.74-1.47-1.85-1.84-2.58v-1.11c-1.48-1.11-2.58-2.96-4.06-4.43C1060.98,1030.67,1061.35,1031.39,1061.35,1032.5
	 M1060.98,1078.24c0.37-0.74,1.11-0.37,1.48-0.37c0.37,0.37,0.74,0.74,0.74,1.11C1062.09,1079.72,1061.72,1078.98,1060.98,1078.24
	 M1059.87,1074.55h-0.36v-0.37C1059.51,1074.18,1059.51,1074.55,1059.87,1074.55 M1057.3,1075.29c0.74,0.73,1.11,1.1,1.48,1.47
	C1057.67,1077.13,1057.3,1076.76,1057.3,1075.29 M1055.46,1071.23c1.47,0.73,2.95,1.47,4.06,2.95h-1.48
	c-0.74-0.74-1.84-1.48-2.95-2.59L1055.46,1071.23z M1054.72,1017.02c-0.37,1.84,0.37,2.95,1.84,4.06c0.37-0.74,0.37-1.11,0.37-1.48
	C1056.2,1018.5,1056.2,1017.39,1054.72,1017.02 M1052.5,1066.07c0,0.37,0,0.74,0.37,0.37L1052.5,1066.07z M1051.03,1069.01h1.47
	C1051.76,1069.75,1051.4,1069.75,1051.03,1069.01 M1051.03,1069.01h-0.37v-0.37C1050.66,1069.01,1050.66,1069.01,1051.03,1069.01
	 M1050.29,1068.64c0.37-0.37,0.37,0,0.37,0H1050.29z M1050.29,1055.01c0.74,1.47,2.21,2.21,3.69,3.32
	C1052.87,1055.73,1051.76,1055.01,1050.29,1055.01 M1049.55,1064.59c-0.37,0-0.37,0-0.37-0.37
	C1049.18,1064.22,1049.18,1064.59,1049.55,1064.59 M1049.18,981.62v-0.37V981.62z M1048.81,1064.22l-0.37-0.36v-0.38
	C1048.44,1063.86,1048.81,1063.86,1048.81,1064.22 M1048.44,1063.48c-0.73,0.38-0.73,0-1.1-0.36
	C1048.07,1063.12,1048.07,1063.12,1048.44,1063.48 M1047.34,1062.75v0.37c0-0.37,0-0.37-0.37-0.74L1047.34,1062.75z
	 M1046.97,1062.38h-0.74v-0.37h0.37C1046.6,1062.01,1046.6,1062.38,1046.97,1062.38 M1046.24,1062.01c0,0-0.37,0-0.37-0.37
	C1046.24,1061.64,1046.24,1061.64,1046.24,1062.01 M1045.5,1048.36c0.37,0.74,0.74,1.11,1.48,1.85c0.74,0,0.74-0.74,0.74-1.48
	C1046.24,1047.62,1046.24,1047.62,1045.5,1048.36 M1044.39,1064.22l0.37,0.37h-0.37V1064.22z M1043.29,1063.12v-0.37V1063.12z
	 M1044.02,1060.53c-0.37-0.74-0.37-1.11-0.73-1.47C1044.02,1059.06,1044.39,1059.42,1044.02,1060.53 M1043.29,1059.06v-0.37V1059.06
	z M1042.18,1044.67c0,1.11,0,1.11,1.47,1.11C1043.29,1045.41,1042.92,1045.04,1042.18,1044.67 M1043.29,1058.69
	c-1.11,0-1.48-0.37-1.85-1.48C1042.92,1057.21,1042.92,1057.21,1043.29,1058.69 M1041.81,1052.79l-0.37,0.37c0,0,0-0.37,0.37-0.74
	V1052.79z M1041.44,1057.21c-1.48-0.74-2.21-1.48-2.21-2.95C1041.07,1054.64,1041.44,1055.73,1041.44,1057.21 M1037.75,1056.84
	c0.37,0,0.37,0,0.37,0.37C1037.75,1057.21,1037.75,1057.21,1037.75,1056.84 M1037.75,1056.47v0.37c-0.37,0-0.37-0.37-0.37-0.37
	H1037.75z M1037.75,1053.9c-0.37-0.74-0.37-1.11-0.37-1.48C1038.12,1052.42,1038.12,1052.79,1037.75,1053.9 M1037.01,1056.47
	c0.37-0.37,0.37,0,0.37,0H1037.01z M1037.01,1052.05h0.37v0.37h-0.37V1052.05z M1037.01,1052.05c-0.74,0-0.74-0.73-0.74-1.47
	C1037.38,1050.58,1037.01,1051.32,1037.01,1052.05 M1036.27,1050.58h-0.37v-0.37C1035.9,1050.21,1035.9,1050.58,1036.27,1050.58
	 M1035.54,1050.21v-0.37c0,0.37,0.36,0.37,0.36,0.37H1035.54z M1032.96,1050.21v0.37h-0.37L1032.96,1050.21z M1032.96,1043.56
	c0.74,1.11,1.48,3.7,1.85,5.17c-2.22-1.11-2.59-2.95-3.69-4.43c0.37-0.37,0.37-0.74,0.73-1.48
	C1032.22,1043.21,1032.59,1043.21,1032.96,1043.56 M1030.38,1042.82c-1.11-1.47-0.74-2.95-1.11-4.42c0.37,0.37,0.74,0.37,0.74,0.37
	C1030.38,1039.88,1030.75,1041.36,1030.38,1042.82 M1028.16,1036.93c1.11,0,1.11,0.74,1.11,1.48
	C1028.53,1038.41,1028.53,1037.67,1028.16,1036.93 M1028.16,1036.56v0.37V1036.56z M1027.79,1032.13v0.37V1032.13z M1035.54,1031.02
	c0-1.1,0-1.84-0.37-2.58c-0.74-2.21-1.85-4.06-2.96-5.89c-1.1-1.48-2.58-2.59-1.84-4.43c-1.11-2.59-1.48-4.8-2.22-7.37
	c-0.37,1.84-0.37,4.06-0.73,5.89c0.36,0.37,0.36,0.74,0.36,1.11c0.37,2.58,1.85,4.43,2.96,6.26c0.74,1.85,1.84,3.69,2.95,5.54
	C1034.07,1029.93,1034.8,1030.67,1035.54,1031.02 M1027.43,1040.62c0.36,0.37,0.73,0.74,1.1,1.11
	C1027.43,1042.1,1027.05,1042.1,1027.43,1040.62 M1027.05,1032.5h0.74c0,1.48,0.37,2.59,0.37,4.06c-0.37,0-0.73-0.37-0.73-0.74
	C1027.05,1034.72,1027.05,1033.61,1027.05,1032.5 M1027.05,1032.5h-0.37v-0.37h0.37V1032.5z M1058.04,915.23
	c-5.54-2.58-11.43-2.95-17.71-4.06c-2.21-0.37-4.79-0.74-7-1.11c-4.8-0.73-9.59-1.1-14.38-1.47c-1.85,0-3.7,0.37-5.54,0
	c-2.22-0.74-4.43,0.37-6.28,0c-1.47-0.37-2.58-0.74-4.06-0.74c-1.47-0.37-2.95-0.74-4.05,0.37c0.36,3.32,1.1,6.63,2.58,9.22
	c0.37,1.84,0.37,3.69,0.74,5.52c0.73,1.85,0.73,3.69,1.1,5.54c0,1.84,0.37,3.69,0.74,5.17c0.37,1.84,0.37,3.69,0.74,5.16
	c0.37,2.22,0.37,4.06,0.74,5.91c0.37,1.48,0.74,3.32,0.37,4.8c0.74,0.37,1.1,0.37,1.48,0.74c1.1-0.37,1.84-0.74,2.95-1.11
	c9.95-7.74,20.65-14.76,31.71-21.02c4.8-2.95,9.22-6.28,14.02-9.22c0.36-0.74,1.1-1.11,1.47-1.84
	C1058.41,916.71,1058.77,915.97,1058.04,915.23 M1089.75,920.03c-0.37,0.74-0.74,1.48-1.11,2.22c0.37,0.73,1.11,0.73,1.85,0.73
	c-1.11,1.48-1.48,3.33-1.85,4.8c-1.47,3.69-3.69,6.63-5.52,10.33c-0.37,1.1-1.11,1.84-1.85,2.58c-2.95,2.58-5.17,5.54-8.48,7.37
	c-5.89,3.69-11.43,8.48-17.69,11.43c-4.43,1.85-8.85,4.43-12.91,6.65c0,0.36,0.37,0.73,0.74,1.1c0.37,8.48,1.84,16.6,5.89,24.71
	c0,0.37-0.37,0.74-0.37,1.11c1.48,2.58,2.59,5.54,4.06,8.11c0,0.37,0.37,0.74,0.37,1.11c0.37,5.16,2.59,9.58,5.54,13.64
	c0.37,0,0.37,0,0.37,0.37c0,0.74,0,1.48,0.37,2.22c0.73,2.21,2.95,4.06,2.95,7c0.74,0.74,1.48,1.85,2.21,2.58
	c0,0,0.37-0.37,0.74-0.37c0.37,1.11,1.11,2.22,1.85,3.32c0.37,1.11,1.47,1.85,1.84,2.96c0.37,1.47,1.11,2.58,1.85,3.69
	c1.11,1.11,1.84,2.21,2.21,4.06c1.11,0.74,1.85,1.84,3.32,2.95c1.48,1.11,2.22,2.59,2.22,4.43c-0.37,0.37-0.74,0.74-1.11,0.74
	c0,0.37,0,0.37,0.37,2.95c1.11,1.48,2.22,2.95,3.69,4.06c0.74,1.11,1.11,2.22,1.85,3.32c2.95,1.11,4.06,3.7,6.26,5.54
	c-0.37,0.74-0.74,1.48-1.1,2.58c-0.37,0.37-0.37,1.11-0.74,2.22v6.26c-0.37,0.37-1.11,1.11-1.85,1.11
	c-1.11,0.74-2.21,0.74-3.32,1.11c-1.11,0.36-2.58,0.36-3.69,0.74c-1.11,0-2.22,0-3.32-0.38h-1.85c-2.21,0.38-4.06,0-5.91-0.36
	c-1.47,0-2.58-0.37-3.68-1.11c-0.37-0.37-0.74-0.37-1.48-0.37c-0.37-0.37-0.74-0.74-1.11-1.11c-0.74-0.74-1.11-1.47-1.48-1.84
	c0.74-0.37,1.85,0,2.59,0.37h1.48c0-1.11-0.74-1.48-1.48-1.48c-1.11-0.37-1.85-1.48-2.59-2.21c-2.95-1.11-5.89-2.59-8.84-4.06
	c-0.37-0.37-1.11-0.74-1.48-1.11v-1.48c1.11,0.37,1.48,1.48,2.59,1.48v-1.11c-0.74-0.74-1.48-1.48-2.22-2.21
	c-1.11-1.11-1.48-2.59-2.95-3.69c-1.11-0.74-2.22-2.22-3.33-3.33v-1.1c-0.73-0.74-0.73-1.85-1.84-2.22c0-0.37-0.37-1.1-0.37-1.84
	c-1.11-1.48-2.21-2.96-3.32-4.43c-2.22-3.33-4.8-6.65-7-9.96c-0.74-1.1-1.11-1.84-1.85-2.95c-0.37-0.37-0.74-1.11-1.48-1.11
	c-0.36-1.11-0.74-2.21-1.1-3.32c-0.37,1.11-0.37,2.21-0.37,3.32c0.37-0.37,0.37,0,0.37,0h-0.37c0,3.32,0,6.65,0.37,9.59
	c-0.74-0.37-1.11-1.11-1.85-1.85c-1.11-0.73-1.84-1.84-2.95-2.95c0,0.74-0.37,1.11-0.37,1.48c0.37,1.47,0.74,2.58,0.74,4.06
	c0,0.74-0.37,1.84-0.74,2.95c0.37,0.74,0.74,1.85,1.11,2.95c-0.74,1.85-1.48,4.43,0,6.65c-1.85,6.26-4.06,12.91-6.65,18.8
	c-0.74,1.84-1.47,3.69-2.58,5.52c-1.48,2.96-1.84,6.65-3.32,9.59c-1.48,2.96-1.48,5.91-2.58,8.85c-0.74,1.85-0.74,3.69-1.11,5.91
	h-1.85c-0.37,0.73-1.11,1.47-2.21,2.58c0,0-0.37,0.37-0.74,0.37c-0.74,0-1.48,0-1.85,0.37c-3.69,2.21-6.63,0.37-9.21-1.85
	c-2.22-1.84-4.07-4.06-5.54-7c-1.11-3.32-2.58-6.26-5.17-8.85c-0.73-0.74-0.73-1.84-1.1-2.58c0.73-0.74,1.47-1.11,2.21-1.48
	c-1.11-5.53-2.95-10.69-5.17-15.86l-0.37-0.37c-0.74-3.32-1.47-6.63-3.69-9.22c1.11-2.21,1.85-3.69,2.59-5.52
	c0.36-3.32-0.74-6.28-1.48-9.22c-1.11-3.32-0.74-6.63,0-9.95c0.37-2.96,0.74-5.91,0-8.85c-0.37-1.48-0.74-2.95-0.74-4.43v-19.91
	v-7.37c-0.74-1.85-1.48-3.33-2.21-4.8v-8.11c0-1.85,0-3.69,0.37-5.54c0-1.84,0-3.69,0.36-5.54c0.38-0.36,0-1.1,0.38-1.84
	c0-2.22-0.74-4.43-0.38-6.63c0.38-2.59,0.38-4.8,0.38-7.01v-6.63v-7c0.36-3.32-0.74-6.65-2.22-10.33c0-10.69,0-21.75-0.37-33.19
	c0-1.84,0.37-4.06-0.74-6.26c0-0.37,0.74-1.48,0.37-2.22c-0.74-2.58,1.11-4.79,0.37-7.37c-1.11-2.21-1.11-4.8-2.21-7
	c0-0.74,0-1.11,0.36-2.21h3.33c1.84,0.37,2.95-0.37,4.43-0.37h3.69c2.95-1.11,5.89-2.22,8.85-3.32h29.5
	c4.43,1.1,9.22,0.73,14.02,1.47c6.26,1.11,12.54,2.59,18.43,1.85c2.22,0.74,4.06,1.47,5.91,1.84c4.06,0.74,7.74,2.95,11.43,5.17
	c4.06,2.95,7.74,5.89,11.8,8.85c2.95,2.58,4.8,5.52,6.63,8.85c1.48,1.84,2.59,3.69,4.06,5.52c2.59,3.32,4.06,7.37,2.96,11.43
	C1091.23,916.34,1090.49,918.18,1089.75,920.03"/>
</svg>
