<svg id="Layer_1" data-name="Layer 1" xmlns="http://www.w3.org/2000/svg" xmlns:xlink="http://www.w3.org/1999/xlink" viewBox="0 0 584.98 475.17"><defs><style>.cls-1{fill:none;}.cls-2{clip-path:url(#clip-path);}.cls-3{clip-path:url(#clip-path-3);}.cls-4{fill:#f26539;}.cls-5{fill:#1e3ba7;}.cls-6{clip-path:url(#clip-path-4);}.cls-7{clip-path:url(#clip-path-5);}.cls-8{clip-path:url(#clip-path-6);}.cls-9{clip-path:url(#clip-path-8);}.cls-10{clip-path:url(#clip-path-9);}.cls-11{fill:#1e3ba6;}.cls-12{fill:#1b1c13;}.cls-13{fill:#fefefe;}.cls-14{fill:#eee9cf;}.cls-15{fill:#f16539;}</style><clipPath id="clip-path"><rect class="cls-1" x="-667.12" y="-1542.74" width="1920" height="1080"/></clipPath><clipPath id="clip-path-3"><rect class="cls-1" x="-1085.46" y="657.26" width="1917.34" height="1080"/></clipPath><clipPath id="clip-path-4"><rect class="cls-1" x="-4965.46" y="657.26" width="1917.34" height="1080"/></clipPath><clipPath id="clip-path-5"><rect class="cls-1" x="-3025.46" y="657.26" width="1917.34" height="1080"/></clipPath><clipPath id="clip-path-6"><rect class="cls-1" x="-1147.19" y="1472.03" width="1920" height="1080"/></clipPath><clipPath id="clip-path-8"><rect class="cls-1" x="-7385.54" y="3672.03" width="1917.34" height="1080"/></clipPath><clipPath id="clip-path-9"><path class="cls-1" d="M-297.09,380.76l-108.72-71.11,2-39.16L-289.92,196l196.56,4.69L30,281.35l.93,18.13-131.43,86Zm48.4-311.71-37,80.53-82.94-55L-484.66,17.74l23.94,137.16,8.65,49.57L-530,233.39-660.5,281.84l124.92,61.49,82.31,40.53-7.45,42.68L-484.66,563.7l116.07-76.89,84.9-56.24,31.87,79.19,52,129.17,58.08-126.54,37-80.52,82.94,54.94L94.21,563.7,70.27,426.54l-6.18-35.4,97.1-47.81,124.92-61.49L155.58,233.39l-93-34.52,7.67-44L94.21,17.74-21.86,94.63l-84.9,56.25-31.87-79.2-52-129.17Z"/></clipPath></defs><title>favicon</title><g class="cls-2"><g class="cls-2"><g class="cls-3"><path class="cls-4" d="M-1258.3,2042.32c31,35.94,95.07,32.75,142,39.82,149,22.46,234.89,39.64,383.86,62.1,15.32,2.31,25.4,11.68,33.8,24.71,40.73,63.14-52.75,290.47-129.22,382.58,71.15,58.17,213.31,119.55,325.78,152.49,42.75,12.52,33.86,75.42-10.69,75.4-78.57,0-165.08-2.85-192.35,46.79-22,40.13,25.39,129.28,71.15,127.69C-278.32,2941.5-410,3588,135.86,3546c225.34-17.37,540-138.11,932.39-406.55l1705,2309.35C1912.11,3677,2233.15,2675.47,2196.34,2056.29c-17.91-301.19-56.1-570.37-100.23-868.85-71.85-485.92-272.54-1044.25-618.28-1393.16-365.12-368.46-313.71-736.45-827.78-805.69C-1452.25-1294.59-1258.3,2042.32-1258.3,2042.32"/><path class="cls-5" d="M3324.68,3912.46l-2086.92-2805C312.51,610.19,206.47-602.35,206.47-602.35-101.31-82.27-1617.14,69.71-1617.14,69.71c29.89-372.56,286.66-995.28,802.15-1426.4h0c1464.45-1097.45,2604.77-716.73,3525.66,530l3731,5051.28L4200.93,4327.74a1033,1033,0,0,1-876.25-415.28"/></g><g class="cls-6"><path class="cls-5" d="M412.07,2515.91l-2290.23-3122c-1020.95-557.61-1129.32-1901.25-1129.32-1901.25-344.75,573.67-2024.6,730.66-2024.6,730.66,35.88-412.37,324.9-1100.09,899-1573.68h0c1630-1204.43,2890-774.28,3900.56,613.32l4094.2,5622-2482.3,97.47a1144,1144,0,0,1-967.31-466.46"/></g><g class="cls-7"><path class="cls-4" d="M-2375.38,1406.43c16.57,37.36,70.22,50.72,107.14,68.25,117.24,55.68,183.8,91.29,301,147,12.06,5.72,18,16,21.71,28.8,17.84,62.23-116,226.37-202,283.25,44.16,65.71,146.07,151.78,230.6,207,32.13,21,9.11,70.64-27.62,59.51-64.79-19.63-135.42-43.54-170.28-9.41-28.19,27.6-11.32,112.94,26.81,123,296.38,78.5,26.48,578.78,487.13,680.26,190.15,41.88,479.77,20.82,870.27-102.66L99.31,5221.06c-268.13-1675.8,246.43-2421.58,370.53-2941.34,60.37-252.84,96-484.32,134.09-741.46,62-418.62,35.76-929.08-162.31-1303C232.46-159.7,366.65-450.31-40-635.65c-1662.92-757.94-2335.39,2042.08-2335.39,2042.08"/><path class="cls-5" d="M937.25,4091.79-83.92,1258.18C-722.83,617.33-507.8-409-507.8-409-891.34-56.9-2179.21-309.7-2179.21-309.7c117.59-299.77,484.66-749.21,1017.28-976.12h0C319.42-1825.47,1164.76-1227.08,1613.12,30.72l1816.56,5096L1556.22,4652.81a889.93,889.93,0,0,1-619-561"/></g></g></g><g class="cls-8"><g class="cls-8"><g class="cls-9"><path class="cls-5" d="M-2008,5530.67l-2290.22-3122c-1021-557.6-1129.33-1901.24-1129.33-1901.24-344.75,573.67-2024.6,730.66-2024.6,730.66,35.89-412.38,324.91-1100.09,899-1573.69h0c1630-1204.44,2890-774.29,3900.56,613.32l4094.2,5622-2482.31,97.46A1144,1144,0,0,1-2008,5530.67"/></g></g><g class="cls-10"><path class="cls-5" d="M108.11,508.1h0a52.36,52.36,0,0,1,6.48,6.88,51.12,51.12,0,1,1-85.7,54.92l-.7.54L-38.13,402.3l138.19,100a51.23,51.23,0,0,1,8,5.82"/></g></g><path class="cls-11" d="M537.3,131.09l1,1c.05,2.07-.07,4.07.9,6.11.78,1.64,0,3.61.92,5.6,1.08,2.35.8,5.3,1.2,8,.23,1.54.67,3,1,4.57.27,1.38,0,2.7.73,4.2,1,2,.22,4.59,1.14,7s.42,5.44,1.22,8c1.39,4.35.72,9.11,2.92,13.24-.42,2.62.69,5.05.91,7.57a22.29,22.29,0,0,0,1,5.07c.53,1.64-.49,3.43.84,5.17,1,1.29-.05,3.26,1,5.07s.26,4.25,1.06,6.5c1,2.79.77,6,1.19,9,.16,1.21.69,2.37.95,3.58s0,2.39.67,3.73c1.09,2-.3,4.79,1.35,6.9-.38,5,2.06,9.61,2.18,14.62a31.86,31.86,0,0,0,.92,5.54c.4,1.86,1.07,3.65.9,5.59a7,7,0,0,0-1.21-.69q-15.55-5.17-31.11-10.31c-13.58-4.51-27.13-9.11-40.75-13.49-3.23-1-6.3-3-9.93-2.51l-2-1.55c0,1.88.38,3.2-.08,4.1-1.17,2.32-1.05,4.73-.87,7.11.2,2.65-.7,5.06-1,7.59-.41,3.35,0,6.68-.85,10.12-.91,3.85-.18,8-1.08,12.06-.79,3.57.59,7.48-1.11,11.05.71,5.09-1.08,10-1,15.07s-1.73,10-1,15.08c-1.48,1.8-.74,4-1.18,6,0,.17-.54.24-.82.36-2.19.72-2.64-2.37-4.62-2.12-12.49-8.48-24.94-17-37.46-25.44q-16.41-11-32.93-21.91c-2.83-1.86-5.84-3.45-8.82-5.2a1.71,1.71,0,0,0-.51.53c-2.24,4.74-4.47,9.48-6.64,14.25-.51,1.12-.65,2.41-1.18,3.52-3.37,7.1-6.95,14.11-10.19,21.27q-5.25,11.58-10.58,23.12c-2,4.34-4,8.68-6.07,13-1.65.45-2.41-.82-3.24-1.78a43.79,43.79,0,0,1-3.53-4.51c-4.36-6.62-9.47-12.68-14.07-19.11-2.39-3.33-4.88-6.59-7.23-9.94-3.58-5.08-7.64-9.83-11.49-14.71-1.48-1.88-3-3.72-4.43-5.65-3.14-4.34-6.16-8.76-9.36-13.06-.45-.59-1.56-.51-1.65.76-2.52-.36-3.79,1.8-4.53,3.25-1.65,3.25-4.81,5.07-6.62,8.19s-4.83,5.27-6.84,8.19c-1.68,2.44-4,4.27-5.66,6.63-3.65,5.29-8.25,9.78-12.09,14.91-2.24,3-5.27,5.4-7.25,8.51-1.54,2.43-3.62,4.37-5.21,6.75-2.38,3.57-5.81,6.42-8.8,9.57-2.52-2.09-2.73-5.38-3.86-8.1-1.65-4-3.27-8-4.8-12-3-8.07-6.26-16.08-9.5-24.06-1.78-4.4-3.82-8.76-5.58-13.18-1.82-4.58-3.92-9.05-5.32-13.81-.51-1.72-1.67-3.25-2.68-5.12-3.09,1.91-6.18,3.71-9.15,5.7-6.4,4.3-12.58,8.94-19.12,13-19,11.87-37.48,24.62-56.09,37.14a23,23,0,0,1-2.9,1.43c-.34-.26-1-.52-1-.79a65.24,65.24,0,0,0-.89-10.11c-.76-3.92,0-8-1-12.08-.83-3.38-.13-7-1-10.58s-.21-7.68-1-11.57c-.74-3.41-.26-7-1-10.58-.79-4.07-.37-8.35-1-12.57-.9-5.77-.81-11.69-1.14-17.55,0-.5.19-1.12,0-1.47a9.49,9.49,0,0,0-1.61-1.55l-.35.85a15.21,15.21,0,0,0-3.24.6c-9.29,3.28-18.68,6.29-28,9.4-13.73,4.57-27.51,9-41.18,13.76-3,1-6,2.95-9.55,2.24,0-2.66-.19-5.34,0-8a74.63,74.63,0,0,1,2.73-15.31c.69-2.27-.41-4.87,1.23-7-.35-5,2.38-9.62,2-14.64,1.34-1.86.44-4.2,1.14-6s.36-3.87.94-5.6c1.48-4.33,1.42-8.93,2.81-13.29.9-2.84.73-6,1.12-9a34.59,34.59,0,0,1,1-5.57c1.94-6.32,1.48-13.11,4-19.31-.69-3,.87-5.67,1.06-8.56.3-4.42,1.93-8.67,1.94-13.15,1.87-1.58.65-3.71,1-5.57v-1l1-1a6.39,6.39,0,0,1,2.18.75c2,1.69,4,3.32,5.88,5,4.86,4.3,9.94,8.35,14.76,12.68s9.6,8.23,14.36,12.38,9.53,8.3,14.4,12.33c3.91,3.23,7.52,6.82,11.29,10.2a83.32,83.32,0,0,0,7.39,6.32c4.18,2.92,8,6.34,12.18,9.2,3.39,2.32,6.59,4.88,10,7.21,5.82,4,11.59,8,17.71,11.58,5.26,3,10.29,6.48,15.66,9.27,9.57,5,19.32,9.61,29.33,13.66,4.71,1.9,9.43,3.81,14.27,5.35s9.87,2.78,14.77,4.21c7.95,2.33,16,4.08,24.09,5.66,4.79.94,9.75,1.48,14.64,2.1,3.67.46,7.39.52,11.09.89,6.6.67,13.32,0,20,.25s13-1.8,19.58-1.06a1.2,1.2,0,0,0,.5,0c3.93-1.44,8.17-1.1,12.15-2.08s8.12-.92,11.94-2.52a5.44,5.44,0,0,1,1.83-.38c3.82-.13,7.28-1.82,11-2.52a69.21,69.21,0,0,0,8.45-2.51c2.93-1,5.84-2,8.75-3,7.86-2.76,15.47-6.12,23-9.64a302.88,302.88,0,0,0,27.69-15.25,271.21,271.21,0,0,0,24.1-16.56c3.84-2.92,7.66-5.86,11.31-9,4-3.49,8.29-6.7,12.12-10.39,4.68-4.52,9.75-8.56,14.67-12.79s10-8.73,15.13-13c3.88-3.27,7.34-7.05,11.34-10.14,2.72-2.11,5-4.7,7.7-6.73,4.28-3.21,8.18-6.83,12.2-10.31C535.53,132.48,536.42,131.8,537.3,131.09Z"/><path class="cls-12" d="M467.3,327.09c.28-.12.78-.19.82-.36.44-2-.3-4.21,1.18-6-.73-5.1,1.08-10,1-15.08s1.71-10,1-15.07c1.7-3.57.32-7.48,1.11-11.05.9-4,.17-8.21,1.08-12.06.81-3.44.44-6.77.85-10.12.31-2.53,1.21-4.94,1-7.59-.18-2.38-.3-4.79.87-7.11.46-.9.08-2.22.08-4.1l2,1.55c5.64,8.81,11.32,17.6,16.92,26.44,5.36,8.45,11.14,16.61,16.39,25.14,5.57,9.06,11.85,17.69,17.55,26.7,5.93,9.38,12.3,18.49,18.21,27.9,5.75,9.14,12.18,17.84,17.76,27.1,2.91,4.82,6,9.57,9.31,14.08,3.49,4.77,5.91,10.22,9.86,14.64,1,1.19,1,1.19-.3,2.81-7.91-5.27-15.81-10.56-23.73-15.8q-16.86-11.18-33.75-22.29C515,359.23,503.45,351.7,492,344.08c-6.42-4.25-12.75-8.65-19.14-12.94-1.15-.78-2.48-1.29-3.62-2.08A12.68,12.68,0,0,1,467.3,327.09Z"/><path class="cls-12" d="M107.3,239.09l.35-.85a9.49,9.49,0,0,1,1.61,1.55c.23.35,0,1,0,1.47.33,5.86.24,11.78,1.14,17.55.66,4.22.24,8.5,1,12.57.7,3.57.22,7.17,1,10.58.84,3.89.2,7.87,1,11.57s.12,7.2,1,10.58c1,4.06.26,8.16,1,12.08a65.24,65.24,0,0,1,.89,10.11c0,.27.62.53,1,.79A248.79,248.79,0,0,1,96,341.17c-5.55,3.23-10.67,7.21-16,10.78-12.66,8.4-25.37,16.74-38,25.15C34.58,382,27.33,387,20,391.85c-4.94,3.32-9.87,6.68-14.92,9.82-1,.61-2.53.31-3.81.42,0-.33-.13-.75,0-1,2.68-4.23,5.47-8.39,8.09-12.65,5.15-8.4,10.93-16.38,16.08-24.79C31,354.59,37.35,346,43.05,336.93c6.52-10.34,13.5-20.39,20.24-30.61,5.52-8.36,10.93-16.8,16.46-25.16,4.77-7.2,10.07-14.09,14.35-21.57C98.16,252.51,103.09,246,107.3,239.09Z"/><path class="cls-12" d="M293.3,280.09c.09-1.27,1.2-1.35,1.65-.76,3.2,4.3,6.22,8.72,9.36,13.06,1.4,1.93,2.95,3.77,4.43,5.65,3.85,4.88,7.91,9.63,11.49,14.71,2.35,3.35,4.84,6.61,7.23,9.94,4.6,6.43,9.71,12.49,14.07,19.11a43.79,43.79,0,0,0,3.53,4.51c.83,1,1.59,2.23,3.24,1.78-3.49,8.39-7.44,16.57-11.28,24.8-3.71,7.95-7.3,15.95-10.95,23.93s-7.29,15.95-10.93,23.93L304.2,444.69q-5.46,12-10.93,23.94c-.83,1.82-1.63,3.65-2.44,5.46H288.3c.25-6.18,0-12.34.8-18.57.87-7,.12-14.28.22-21.42s-.05-14,.8-21.07c.83-6.88.06-13.95.21-20.93s-.38-13.68.81-20.57c.83-4.84.16-9.95.16-14.94,0-5.15.26-10.32-.08-15.46-.32-4.94,1.11-9.67,1.1-14.55-.05-14,0-27.94,0-41.91C292.29,283.06,292.14,281.44,293.3,280.09Z"/><path class="cls-13" d="M293.3,280.09c-1.16,1.35-1,3-1,4.58,0,14,0,27.94,0,41.91,0,4.88-1.42,9.61-1.1,14.55.34,5.14.08,10.31.08,15.46,0,5,.67,10.1-.16,14.94-1.19,6.89-.65,13.72-.81,20.57s.62,14-.21,20.93c-.85,7.05-.7,14-.8,21.07s.65,14.38-.22,21.42c-.78,6.23-.55,12.39-.8,18.57l-.44,1.08c-1.19-2.58-2.62-4.92-3.37-7.46-1.48-5-4.05-9.63-5.74-14.59s-3.61-9.83-5.7-14.57c-3.28-7.46-5.84-15.2-9.31-22.57a87.87,87.87,0,0,1-4.38-11.14c-1.19-3.83-3.61-7.2-4.09-11.28-3.59-6.14-5.53-13-8.31-19.49a236.41,236.41,0,0,1-8.74-22.3c-.59-1.89-2.27-3.44-1.92-5.68,3-3.15,6.42-6,8.8-9.57,1.59-2.38,3.67-4.32,5.21-6.75,2-3.11,5-5.53,7.25-8.51,3.84-5.13,8.44-9.62,12.09-14.91,1.64-2.36,4-4.19,5.66-6.63,2-2.92,5.09-5.16,6.84-8.19s5-4.94,6.62-8.19C289.51,281.89,290.78,279.73,293.3,280.09Z"/><path class="cls-13" d="M107.3,239.09c-4.21,6.95-9.14,13.42-13.2,20.5-4.28,7.48-9.58,14.37-14.35,21.57-5.53,8.36-10.94,16.8-16.46,25.16-6.74,10.22-13.72,20.27-20.24,30.61-5.7,9-12,17.66-17.56,26.74-5.15,8.41-10.93,16.39-16.08,24.79-2.62,4.26-5.41,8.42-8.09,12.65-.15.23,0,.65,0,1l-.56,1.37c-.76-2.41-1.07-4.89-.26-6.33,1.25-2.22.55-4.6,1.6-6.85.91-1.94.62-4.62,1.12-7,1-4.64,1.12-9.47,2.24-14.07.5-2.06.31-4.22,1-6.05s.36-3.86.94-5.59c1.45-4.33,1.12-9,2.92-13.24-.71-3,1-5.65,1.06-8.56a34.81,34.81,0,0,1,.93-5.08c.43-2.67,1.47-5.27,1-8.05,2.45-1.89-.45-5.27,2-7.15-.2-2.43.54-4.73.89-7.08.71-4.7,1.4-9.46,2.33-14.07.9-4.4,1.3-8.94,2.67-13.29.9-2.84.72-6,1.13-9a33.27,33.27,0,0,1,1.14-5.51c.19-.61,1.2-1,1.84-1.43,3.51.71,6.55-1.19,9.55-2.24,13.67-4.78,27.45-9.19,41.18-13.76,9.35-3.11,18.74-6.12,28-9.4A15.21,15.21,0,0,1,107.3,239.09Z"/><path class="cls-13" d="M584.3,402.09c-3.95-4.42-6.37-9.87-9.86-14.64-3.31-4.51-6.4-9.26-9.31-14.08-5.58-9.26-12-18-17.76-27.1-5.91-9.41-12.28-18.52-18.21-27.9-5.7-9-12-17.64-17.55-26.7-5.25-8.53-11-16.69-16.39-25.14-5.6-8.84-11.28-17.63-16.92-26.44,3.63-.46,6.7,1.47,9.93,2.51,13.62,4.38,27.17,9,40.75,13.49q15.56,5.16,31.11,10.31a7,7,0,0,1,1.21.69c.65,3.88,1.51,7.72,2.14,11.61.93,5.74,1.77,11.51,3,17.19.45,2.05.37,4.17,1,6.05s.4,3.86,1,5.58c1.46,4.33,1,9.05,2.9,13.24-.68,3,1.07,5.65,1,8.56a15,15,0,0,0,.68,3.16c.74,4.18,1.42,8.37,2.25,12.55.33,1.69.06,3.39,1,5.11s-.43,3.68,1,5.61c.88,1.21.37,3.27.91,5,.66,2.15.68,4.65,1.15,7,.91,4.66.94,9.53,2.2,14.07,1.3,4.71,1.11,9.64,2.77,14.28C584.83,397.92,584.3,400.1,584.3,402.09Z"/><path class="cls-14" d="M537.3,131.09c-.88.71-1.77,1.39-2.62,2.13-4,3.48-7.92,7.1-12.2,10.31-2.71,2-5,4.62-7.7,6.73-4,3.09-7.46,6.87-11.34,10.14-5.09,4.28-10.09,8.67-15.13,13s-10,8.27-14.67,12.79c-3.83,3.69-8.12,6.9-12.12,10.39-3.65,3.19-7.47,6.13-11.31,9a271.21,271.21,0,0,1-24.1,16.56,302.88,302.88,0,0,1-27.69,15.25c-7.53,3.52-15.14,6.88-23,9.64-2.91,1-5.82,2-8.75,3a69.21,69.21,0,0,1-8.45,2.51c-3.69.7-7.15,2.39-11,2.52a5.44,5.44,0,0,0-1.83.38c-3.82,1.6-8,1.55-11.94,2.52s-8.22.64-12.15,2.08a1.2,1.2,0,0,1-.5,0c-6.58-.74-13,1.33-19.58,1.06s-13.37.42-20-.25c-3.7-.37-7.42-.43-11.09-.89-4.89-.62-9.85-1.16-14.64-2.1-8.07-1.58-16.14-3.33-24.09-5.66-4.9-1.43-9.89-2.67-14.77-4.21s-9.56-3.45-14.27-5.35c-10-4.05-19.76-8.67-29.33-13.66-5.37-2.79-10.4-6.24-15.66-9.27-6.12-3.54-11.89-7.59-17.71-11.58-3.39-2.33-6.59-4.89-10-7.21-4.2-2.86-8-6.28-12.18-9.2a83.32,83.32,0,0,1-7.39-6.32c-3.77-3.38-7.38-7-11.29-10.2-4.87-4-9.64-8.17-14.4-12.33s-9.65-8.16-14.36-12.38-9.9-8.38-14.76-12.68c-1.91-1.7-3.93-3.33-5.88-5a6.39,6.39,0,0,0-2.18-.75v-2.52a9,9,0,0,0,2-1.06c3.9-3.49,7.73-7.07,11.63-10.57,1.68-1.49,3.49-2.83,5.23-4.25s3-2.82,4.8-4c2.79-1.88,5-4.59,7.74-6.67,3.77-2.84,7-6.4,10.63-9.42,5.38-4.47,10.57-9.14,15.88-13.68,2.85-2.44,5.5-5.08,8.3-7.56,3.37-3,6.77-5.91,10.43-8.55,2.35-1.68,4.35-3.84,6.64-5.67,7.18-5.75,14.81-10.86,22.42-16A243.6,243.6,0,0,1,180.5,26.42c2.34-1.17,4.84-2,7.16-3.22,6-3.12,22.51-10,30-12.08C224.07,9.31,230.46,7.35,237,6c5.25-1,10.44-2.27,15.73-3.14,3-.51,6.34.07,9-1,3-1.25,5.92,0,8.66-.82,5.66-1.73,11.4-.71,17.1-.9S299.21,0,305,.12c2.22,0,4.23,1.27,6.59,1,2.18-.19,4.55-.66,6.6.89.32.24,1,0,1.48,0,1.9.28,3.91-.65,5.74.62s4.14-.52,6.09,1c1.49,1.17,3.94-.52,5.42,1.35,6.69.12,12.8,3,19.31,4.13,4.36.74,8.54,2.63,12.76,4.12a249.67,249.67,0,0,1,27,10.93c3,1.49,6.28,2.62,9.21,4.3,4.85,2.78,9.68,5.66,14.59,8.27,8.58,4.56,16.46,10.14,24.63,15.29,3.21,2,6.18,4.45,9.18,6.79,4.15,3.23,8.31,6.43,12.52,9.58,3,2.23,5.54,5,8.49,7.34,4.34,3.37,8,7.49,12.51,10.71,2.75,2,5,4.63,7.71,6.72,3.76,2.86,7,6.39,10.63,9.44,5,4.17,9.9,8.38,14.77,12.67,4.61,4.06,9.56,7.74,14,12.07.76.75,1.92,1.09,2.7,1.83C537.27,129.63,537.18,130.47,537.3,131.09Zm-134-.38v-11.5c0-.84.35-2-.07-2.44-1.21-1.28-.75-2.74-1-4.14s-.79-3-.94-4.6a45.27,45.27,0,0,0-2.65-10.92c-2.84-7.82-5.76-15.58-10.2-22.8-3.16-5.12-6.34-10.27-10.33-14.62a149.21,149.21,0,0,0-17.06-16.46c-9.28-7.36-19.83-12.26-30.46-17.09-2.23-1-4.79-1.27-7.14-2.08a41.69,41.69,0,0,0-6.72-1.71c-2.49-.4-5-1.68-7.54-1.21s-5-1.05-7.59-1.05c-4.83,0-9.68-.22-14.49.06s-9.48,1.09-14.2,1.77c-3.78.54-7.26,2.41-11.15,2.17-6.08,2.63-12.43,4.61-18.4,7.48a109,109,0,0,0-13.63,8.24c-5.68,3.84-10.24,8.81-15.53,13-3.14,2.5-5.57,5.93-8.18,9.06a64.62,64.62,0,0,0-3.76,5.43c-2.18,3.26-4.45,6.47-6.48,9.82-1.36,2.24-2.31,4.71-3.53,7a50.64,50.64,0,0,0-2.82,7.32,134.25,134.25,0,0,0-3.89,13.9c-1,4.46-2.17,9-2.16,13.56.05,11.24-1.22,22.55,1.77,33.7,1.08,4.05,1.73,8.22,3.08,12.23a91.53,91.53,0,0,0,5.88,14.57c1.26,2.31,2.73,4.52,3.86,6.9a66.17,66.17,0,0,0,11.78,16.57,136.22,136.22,0,0,0,15,14.35A95.54,95.54,0,0,0,237.21,226a112.7,112.7,0,0,0,28.32,11.34A127.48,127.48,0,0,0,290.92,241c4.35.16,8.71.31,13.12-.74a65.91,65.91,0,0,1,8.55-1.1c3-.31,5.79-1.37,8.69-2a87,87,0,0,0,19.19-6.82c3.35-1.59,6.5-3.6,9.82-5.26a63.38,63.38,0,0,0,15-10.7c8.17-7.63,16-15.55,21.79-25.39,3.39-5.78,6.77-11.59,9-17.79s4.59-12.53,5.39-19.33c.56-4.72,1.92-9.36,1.82-14.19C403.26,135.37,403.3,133,403.3,130.71Z"/><path class="cls-15" d="M47.3,132.09l-1,1Z"/><path class="cls-12" d="M403.3,130.71c0,2.33,0,4.66,0,7,.1,4.83-1.26,9.47-1.82,14.19-.8,6.8-3.15,13.1-5.39,19.33s-5.61,12-9,17.79c-5.78,9.84-13.62,17.76-21.79,25.39a63.38,63.38,0,0,1-15,10.7c-3.32,1.66-6.47,3.67-9.82,5.26a87,87,0,0,1-19.19,6.82c-2.9.62-5.67,1.68-8.69,2a65.91,65.91,0,0,0-8.55,1.1c-4.41,1.05-8.77.9-13.12.74a127.48,127.48,0,0,1-25.39-3.73A112.7,112.7,0,0,1,237.21,226a95.54,95.54,0,0,1-12.47-8.69,136.22,136.22,0,0,1-15-14.35A66.17,66.17,0,0,1,198,186.34c-1.13-2.38-2.6-4.59-3.86-6.9a91.53,91.53,0,0,1-5.88-14.57c-1.35-4-2-8.18-3.08-12.23-3-11.15-1.72-22.46-1.77-33.7,0-4.52,1.16-9.1,2.16-13.56a134.25,134.25,0,0,1,3.89-13.9,50.64,50.64,0,0,1,2.82-7.32c1.22-2.32,2.17-4.79,3.53-7,2-3.35,4.3-6.56,6.48-9.82a64.62,64.62,0,0,1,3.76-5.43c2.61-3.13,5-6.56,8.18-9.06,5.29-4.2,9.85-9.17,15.53-13a109,109,0,0,1,13.63-8.24c6-2.87,12.32-4.85,18.4-7.48,3.89.24,7.37-1.63,11.15-2.17,4.72-.68,9.44-1.49,14.2-1.77s9.66-.06,14.49-.06c2.57,0,4.89,1.54,7.59,1.05s5,.81,7.54,1.21a41.69,41.69,0,0,1,6.72,1.71c2.35.81,4.91,1.07,7.14,2.08,10.63,4.83,21.18,9.73,30.46,17.09a149.21,149.21,0,0,1,17.06,16.46c4,4.35,7.17,9.5,10.33,14.62,4.44,7.22,7.36,15,10.2,22.8A45.27,45.27,0,0,1,401.33,108c.15,1.55.72,3,.94,4.6s-.25,2.86,1,4.14c.42.44.07,1.6.07,2.44Z"/></svg>