<svg version="1" xmlns="http://www.w3.org/2000/svg" width="128" height="128" viewBox="0 0 96.000000 96.000000"><path d="M42.7 13c-11.4 3.6-16.2 17.7-9.4 27.9 5.3 7.9 17 10.1 24.8 4.5 6.1-4.2 8.1-8.5 7.7-16-.6-9.8-6.4-15.9-16-16.9-2.4-.2-5.6 0-7.1.5z"/><path d="M7.6 32.2c-.8 2.4-3.4 19.3-3.1 19.7.2.2 3.2-.6 6.6-1.8 3.4-1.1 6.4-2 6.5-1.8.1.1-3.5 6-8.2 13-4.6 7-8.4 13-8.4 13.2 0 .3 6.8-4 15.1-9.5 8.2-5.6 15.6-10.3 16.3-10.6.8-.3 2.2 1.6 3.8 5.2l2.4 5.7 4.5-5.3 4.4-5.2.5 15.3.5 15.4 6.9-15.3c3.8-8.4 7.2-15.5 7.6-15.7.3-.2 7.6 4.3 16.1 9.9 8.5 5.7 15.5 10.2 15.7 10.1.2-.2-3.5-6.1-8.2-13.1-4.7-7-8.4-12.9-8.2-13.1.1-.2 3.1.7 6.5 1.8 3.4 1.2 6.4 2 6.6 1.8.3-.4-2.3-17.4-3.1-19.7-.2-.9-3 1-7.8 5.2-9.1 7.8-14.2 10.9-22.1 13.2-13.7 3.9-28.2-.5-42.8-13-4.8-4.2-7.9-6.2-8.1-5.4z"/></svg>