<svg version="1" xmlns="http://www.w3.org/2000/svg" width="1560" height="1560" viewBox="0 0 1170.000000 1170.000000"><path d="M568 150.6c-1.4.2-6.5.9-11.5 1.5-4.9.5-12.7 1.9-17.2 3s-10.4 2.4-13 2.8c-6.6 1.2-29.5 10.1-41.6 16.2-15 7.6-29.2 17.6-46.6 32.9-17.6 15.3-23.4 22-37.2 42.5-15.5 23-21.9 38-29.5 68.9-4.6 18.8-5.4 26.5-5.4 51.1 0 25.6.9 32.9 6.5 55.8 5.4 21.9 10.1 33.6 21.3 54 11 19.9 17.7 28.9 33.8 45.3 22.9 23.1 42.2 36.7 67.7 47.8 30.5 13.4 64.8 20.2 96.2 19.4 18.6-.6 27.4-1.8 49-7 20.8-4.9 34-10.2 55.4-21.9 19.9-11 27.8-16.9 44.6-33.5 20.9-20.6 30.6-33.8 43.5-58.7 10.8-20.8 17-40.4 20.9-66.2 1.9-12.2 2.1-17.1 1.8-38-.4-24.2-.8-27.8-4.6-46-2.4-11.5-11.6-36.7-18.6-50.5-14.7-29.4-40.6-59.2-69.2-79.6-17.6-12.6-47.1-27-65.8-32.2-17.8-4.9-20.5-5.5-30-6.4-9.8-1-46.4-1.8-50.5-1.2z"/><path d="M1066.9 378.7c-4.1 3.6-11.7 10.1-16.9 14.3-5.2 4.3-15 12.7-21.8 18.7-25.6 22.6-69.1 60.5-96 83.6-48.6 41.8-101.5 75.2-155.7 98.5-20 8.5-48.5 18.3-66 22.6-8.2 2-16.8 4.1-19 4.6-7.3 1.9-24.9 5-33.5 6.1-4.7.5-10.1 1.4-12 1.9-1.9.4-7.4.9-12.1.9-4.7 0-11.7.5-15.5 1.1-10.2 1.4-48.6 1.2-67.4-.5-32.2-2.8-47.2-5.5-83.5-15.1-38.6-10.1-67-20.8-105.1-39.5-45.7-22.4-111.4-67.1-148.1-100.7-7.6-7-19.5-17.5-26.3-23.3-6.9-5.8-19.5-16.6-28-24-41.4-35.8-60.7-52.2-62.8-53.2-3.3-1.5-4.6.3-4.8 6.6-.1 2.8-.6 6.5-1.2 8.2-1.2 3.2-5.9 30.6-7.3 41.7-.4 3.8-1 7.2-1.3 7.7-.4.5-1.5 6.8-2.6 14s-2.7 15.7-3.5 18.7c-.8 3.1-1.9 10.1-2.5 15.5-.5 5.5-1.6 12.7-2.4 16.2-1.3 5.5-2.6 12.4-5.8 29.2-1.1 5.9-2.5 14.8-3.7 22.5-1.2 7.9-5.6 33.2-8.6 49-1.6 8.3-2.7 17.7-2.8 24.5l-.2 11 3.8.3c2.4.2 6.6-.7 11.5-2.6 17.9-6.8 147.2-49.5 147.9-48.8.3.2-3.5 6.4-8.4 13.8-4.9 7.3-12.2 18.7-16.2 25.3-4.1 6.6-12.7 19.9-19.3 29.5-15.1 22.2-104.2 157.2-126.4 191.5-34.3 53-40.4 62.6-40.4 64 0 1 1 1.5 3.3 1.5 2.6 0 10.9-5.1 41.8-25.8 21.2-14.1 55.1-36.7 75.5-50.2 20.3-13.4 41.9-27.9 47.9-32.1 6.1-4.2 18.7-12.4 28-18.3 9.4-5.8 21.7-13.8 27.5-17.7 5.8-3.9 33.9-22.5 62.5-41.4s62.7-41.5 75.8-50.2c33.4-22.2 43-28.2 43.9-27.7 1.3.8 4.9 8.4 7.3 15.4 1.2 3.6 7.4 18.9 13.7 34 6.3 15.1 14.8 35.8 18.8 46 4 10.2 9.6 24.6 12.5 32 2.9 7.4 5.8 15.1 6.4 17.1.7 2 2 4.4 3 5.3 1.7 1.5 2.2 1.2 9.7-6.7 4.3-4.5 11.3-12.7 15.4-18.2s9.7-12.5 12.5-15.5c2.7-3.1 10.6-12.5 17.5-20.9 6.9-8.5 18.1-22 25-30.2 18.8-22.3 23.2-27.7 26.3-32.3 3-4.5 5.4-6.6 7.5-6.6.8 0 1 .5.5 1.2-.7 1.2-1.6 49.1-2.7 145.3-.2 18.7-.9 54-1.5 78.5s-1.6 63.2-2.1 86c-.5 22.8-1.2 49.5-1.6 59.3l-.6 17.9 2.6-.4c2.8-.3 2.2.9 31.6-63.8 2.6-5.8 8.7-19.1 13.5-29.5 7.7-16.8 23.6-51.7 39-85.5 2.9-6.3 8.7-18.9 13-28 4.2-9.1 10.5-22.8 14-30.5 3.4-7.7 9-19.9 12.3-27 3.3-7.2 11-24 17.1-37.5 6.2-13.5 15.9-34.2 21.7-46 5.7-11.9 10.4-22.2 10.4-22.8 0-1.6 12.9-29.3 14.4-30.9.8-.9 3.3.1 10.6 4.5 10.4 6.3 78.1 51.3 120.3 80.1 14.8 10 27.8 18.6 29 19 1.3.5 2.9 1.6 3.6 2.5.7.9 2 1.6 2.8 1.6.9 0 2.9 1.2 4.7 2.6 3 2.5 57.2 38.6 116.1 77.4 15.4 10.1 47.3 31.2 70.9 46.8 23.6 15.6 43.5 28.1 44.2 27.8 2.2-.8 1.6-3.2-1.5-6.8-1.6-1.8-6.2-8.5-10.2-14.8-10.1-15.7-26.5-40.9-44-67.4-8.1-12.1-23.8-36.1-34.9-53.1-11.2-17.1-28.2-43.2-38-58-9.7-14.9-21.2-32.4-25.5-39-4.4-6.6-19.1-29.3-32.7-50.5-21.5-33.3-24.6-38.5-22.8-38.8 1.2-.2 38.3 11.7 82.6 26.4 44.2 14.7 80.7 26.4 81 26.2.3-.3-.4-5.2-1.5-10.9-2.7-14.1-5.9-32.5-6.6-37.4-1-7.1-2.4-15.9-3.5-21-.5-2.8-1.5-8.2-2-12-.6-3.9-1.5-10.2-2.1-14-.6-3.9-1.7-9.6-2.5-12.7-.8-3.2-1.4-7.1-1.4-8.7 0-1.7-.4-3.2-.9-3.5-.4-.3-1.1-3.4-1.4-6.8-.4-3.5-1.1-8.8-1.7-11.8-.6-3-1.5-8.4-2-12-.5-3.6-1.5-9.2-2.4-12.5-1.3-5.7-3.2-16-5.6-32-.5-3.9-1.5-9.5-2-12.5s-1.9-11.1-3.1-18c-2.1-13.1-4.3-24.6-5.9-31.8-.6-2.3-1-5.7-1-7.6 0-6.3-1.9-6.1-10.1 1.1z"/></svg>