<svg id="Layer_1" data-name="Layer 1" xmlns="http://www.w3.org/2000/svg" xmlns:xlink="http://www.w3.org/1999/xlink" width="472.31" height="1090.05" viewBox="0 0 472.31 1090.05">
  <defs>
    <clipPath id="clip-path">
      <rect x="-5958.36" y="-1140.07" width="1920" height="1080" style="fill: none"/>
    </clipPath>
    <clipPath id="clip-path-3">
      <rect x="-4436.71" y="1059.93" width="1917.34" height="1080" style="fill: none"/>
    </clipPath>
  </defs>
  <g style="clip-path: url(#clip-path)">
    <g style="clip-path: url(#clip-path)">
      <g style="clip-path: url(#clip-path-3)">
        <path d="M-4120.66,813.23c34,40,105,37,156.93,45.17,164.81,26,259.84,45.66,424.64,71.64,17,2.67,27.74,13.33,37.25,27.61,42.92,64.44-56.36,324.57-141.74,426,78.37,64.94,231.12,130.71,355.43,168,47.25,14.18,36.93,83.78-12.4,83.42-87-.62-182.8-4.39-213.37,50.38-24.71,44.28,27.15,143.36,77.84,141.94,394-11.07,243.27,703.95,848.15,661.43,249.69-17.56,599.1-148.92,1035.62-443.28l1871,2570.26C-621.78,2647.27-258.76,1540.51-294.9,854.53c-17.58-333.7-57.86-632.08-104.51-963-75.94-538.67-294-1158.51-674.31-1547.49-401.6-410.79-341.91-817.93-910.71-898.46C-4310.53-2883.71-4120.66,813.23-4120.66,813.23" style="fill: #f26539"/>
        <path d="M940.83,2918.58l-2290.23-3122C-2370.35-761-2478.73-2104.69-2478.73-2104.69-2823.48-1531-4503.33-1374-4503.33-1374c35.89-412.38,324.91-1100.1,899-1573.69h0c1630-1204.44,2890-774.29,3900.56,613.32l4094.2,5622L1908.13,3385a1144,1144,0,0,1-967.3-466.46" style="fill: #1e3ba7"/>
      </g>
    </g>
  </g>
  <path d="M-2.39,0C75.69,38.05,136.82,87.78,176.69,170.05s77.87,156.15,58.39,253.71c-8.43,42.23-4.09,78.58.61,121.29,5.89,53.5,53.15,102.59,88,127s73.75,54.6,103,90c51.6,62.44,48.09,146.49,40.19,242.15a356.91,356.91,0,0,0,3,85.85l-472.31-.17Z" style="fill: #efead0"/>
</svg>
