<svg id="Layer_1" data-name="Layer 1" xmlns="http://www.w3.org/2000/svg" xmlns:xlink="http://www.w3.org/1999/xlink" width="397.96" height="615.82" viewBox="0 0 397.96 615.82">
  <defs>
    <clipPath id="clip-path">
      <rect x="-4851.97" y="-1360.63" width="1920" height="1080" style="fill: none"/>
    </clipPath>
    <clipPath id="clip-path-3">
      <rect x="-3330.31" y="839.37" width="1917.34" height="1080" style="fill: none"/>
    </clipPath>
  </defs>
  <g style="clip-path: url(#clip-path)">
    <g style="clip-path: url(#clip-path)">
      <g style="clip-path: url(#clip-path-3)">
        <path d="M-3014.27,592.67c34,40,105,37,156.93,45.17,164.81,26,259.84,45.65,424.65,71.64,17,2.67,27.73,13.32,37.24,27.61,42.92,64.43-56.36,324.56-141.73,426,78.36,64.94,231.11,130.72,355.42,168,47.25,14.18,36.93,83.78-12.4,83.43-87-.63-182.8-4.4-213.37,50.37-24.71,44.28,27.15,143.37,77.85,141.94,394-11.07,243.26,704,848.14,661.43,249.69-17.55,599.1-148.92,1035.63-443.27l1871,2570.25C484.61,2426.7,847.63,1320,811.49,634,793.91,300.26,753.63,1.88,707-329,631-867.68,413-1487.51,32.67-1876.5-368.92-2287.28-309.24-2694.42-878-2774.95-3204.14-3104.27-3014.27,592.67-3014.27,592.67" style="fill: #f26539"/>
        <path d="M2047.22,2698-243-424C-1264-981.61-1372.34-2325.25-1372.34-2325.25c-344.74,573.67-2024.59,730.66-2024.59,730.66,35.88-412.38,324.9-1100.09,899-1573.69h0c1630-1204.44,2890-774.29,3900.56,613.32l4094.2,5622-2482.31,97.46A1144,1144,0,0,1,2047.22,2698" style="fill: #1e3ba7"/>
      </g>
    </g>
  </g>
  <path d="M397,.07C344.11,5,308.58,40.9,276.08,78.48c-33.58,38.84-49,75-50.49,124-.65,21.5-5.9,51.85-9.51,73.05-4.51,26.56-7.51,35.66-31.41,48.08s-53.38,18.11-70.55,38.87c-24,29.05-46.57,82.5-51.54,129.76-5.5,52.29-22.21,98.68-63.46,122.29l398,1.41Z" style="fill: #efead0"/>
</svg>
