<svg id="Layer_1" data-name="Layer 1" xmlns="http://www.w3.org/2000/svg" xmlns:xlink="http://www.w3.org/1999/xlink" width="397.96" height="615.82" viewBox="0 0 397.96 615.82">
  <defs>
    <clipPath id="clip-path">
      <rect x="-6909.27" y="-1280.01" width="1920" height="1080" style="fill: none"/>
    </clipPath>
    <clipPath id="clip-path-3">
      <rect x="-7327.61" y="919.99" width="1917.34" height="1080" style="fill: none"/>
    </clipPath>
    <clipPath id="clip-path-4">
      <rect x="-4434.01" y="-1360.63" width="1920" height="1080" style="fill: none"/>
    </clipPath>
    <clipPath id="clip-path-6">
      <rect x="-2912.35" y="839.37" width="1917.34" height="1080" style="fill: none"/>
    </clipPath>
  </defs>
  <g style="clip-path: url(#clip-path)">
    <g style="clip-path: url(#clip-path)">
      <g style="clip-path: url(#clip-path-3)">
        <path d="M-2917.47,4175.18l-2086.92-2805C-5929.64,872.92-6035.68-339.63-6035.68-339.63c-307.79,520.08-1823.61,672.07-1823.61,672.07,29.89-372.57,286.66-995.28,802.15-1426.4h0c1464.45-1097.45,2604.77-716.73,3525.65,530l3731,5051.29-2240.75,103.12a1033,1033,0,0,1-876.25-415.28" style="fill: #1e3ba7"/>
      </g>
    </g>
  </g>
  <g style="clip-path: url(#clip-path-4)">
    <g style="clip-path: url(#clip-path-4)">
      <g style="clip-path: url(#clip-path-6)">
        <path d="M-2596.31,592.67c34,40,105,37,156.93,45.17,164.81,26,259.84,45.65,424.65,71.64,17,2.67,27.73,13.32,37.24,27.61,42.93,64.43-56.36,324.56-141.73,426,78.36,64.94,231.11,130.72,355.43,168,47.25,14.18,36.92,83.78-12.41,83.43-87-.63-182.8-4.4-213.36,50.37-24.72,44.28,27.14,143.37,77.84,141.94,394-11.07,243.26,704,848.14,661.43,249.69-17.55,599.1-148.92,1035.63-443.27L1843,4395.28C902.57,2426.7,1265.6,1320,1229.45,634c-17.58-333.7-57.86-632.08-104.51-963-75.94-538.67-294-1158.5-674.31-1547.49C49-2287.28,108.72-2694.42-460.08-2774.95-2786.17-3104.27-2596.31,592.67-2596.31,592.67" style="fill: #f26539"/>
        <path d="M2465.18,2698,175-424C-846-981.61-954.37-2325.25-954.37-2325.25-1299.12-1751.58-2979-1594.59-2979-1594.59c35.88-412.38,324.9-1100.09,899-1573.69h0c1630-1204.44,2890-774.29,3900.56,613.32l4094.2,5622-2482.3,97.46A1144,1144,0,0,1,2465.18,2698" style="fill: #1e3ba7"/>
      </g>
    </g>
  </g>
  <path d="M397.88,0C345,5,289.89,20.39,257.39,58c-33.58,38.83-43.21,96.24-30.92,144.38,5.32,20.84,14.55,41.8,10.95,63-4.52,26.56-28,45.71-51.88,58.13S135.21,344.55,115,362.36c-35.65,31.43-56,82.45-51.54,129.76C68.55,546.32,41.24,590.8,0,614.41l398,1.41Z" style="fill: #efead0"/>
</svg>
