<svg id="Layer_1" data-name="Layer 1" xmlns="http://www.w3.org/2000/svg" xmlns:xlink="http://www.w3.org/1999/xlink" width="102.23" height="233.89" viewBox="0 0 102.23 233.89">
  <defs>
    <clipPath id="clip-path">
      <rect x="-4710.71" y="-3095.46" width="1920" height="1080" style="fill: none"/>
    </clipPath>
    <clipPath id="clip-path-3">
      <rect x="-3189.06" y="-895.46" width="1917.34" height="1080" style="fill: none"/>
    </clipPath>
  </defs>
  <g style="clip-path: url(#clip-path)">
    <g style="clip-path: url(#clip-path)">
      <g style="clip-path: url(#clip-path-3)">
        <path d="M-2873-1142.16c34,40,105,37,156.93,45.17,164.81,26,259.84,45.66,424.64,71.64,17,2.67,27.74,13.33,37.25,27.61,42.92,64.44-56.36,324.56-141.74,426,78.37,64.95,231.12,130.72,355.43,168,47.25,14.19,36.93,83.78-12.4,83.43-87-.63-182.8-4.4-213.37,50.37-24.71,44.29,27.15,143.37,77.84,141.94,394-11.07,243.27,704,848.15,661.43C-1090.59,515.92-741.19,384.55-304.66,90.2l1871,2570.25C625.87,691.88,988.89-414.88,952.75-1100.86c-17.58-333.7-57.87-632.08-104.51-963-75.94-538.67-294-1158.51-674.31-1547.5-401.6-410.78-341.91-817.92-910.71-898.45C-3062.88-4839.1-2873-1142.16-2873-1142.16" style="fill: #f26539"/>
        <path d="M2188.47,963.19l-2290.22-3122C-1122.7-2716.44-1231.08-4060.08-1231.08-4060.08c-344.75,573.67-2024.6,730.66-2024.6,730.66,35.89-412.38,324.91-1100.09,899-1573.69h0c1630-1204.43,2890-774.29,3900.56,613.32l4094.2,5622-2482.31,97.47a1144,1144,0,0,1-967.31-466.46" style="fill: #1e3ba7"/>
      </g>
    </g>
  </g>
  <path d="M.88,173.37h0a51.12,51.12,0,1,0,100.47,0L51.12,0,3.64,163.83a50.59,50.59,0,0,0-2.76,9.54" style="fill: #efead0"/>
</svg>
