<svg id="Layer_1" data-name="Layer 1" xmlns="http://www.w3.org/2000/svg" xmlns:xlink="http://www.w3.org/1999/xlink" width="493" height="671" viewBox="0 0 493 671">
  <defs>
    <clipPath id="clip-path">
      <rect x="-2824.32" y="-1313.49" width="1920" height="1080" style="fill: none"/>
    </clipPath>
    <clipPath id="clip-path-3">
      <rect x="-3242.66" y="886.51" width="1917.34" height="1080" style="fill: none"/>
    </clipPath>
    <clipPath id="clip-path-4">
      <rect x="-1305.32" y="886.51" width="1917.34" height="1080" style="fill: none"/>
    </clipPath>
    <clipPath id="clip-path-5">
      <rect x="-7122.66" y="886.51" width="1917.34" height="1080" style="fill: none"/>
    </clipPath>
    <clipPath id="clip-path-6">
      <rect x="-5182.66" y="886.51" width="1917.34" height="1080" style="fill: none"/>
    </clipPath>
    <clipPath id="clip-path-7">
      <rect x="-3304.39" y="1701.27" width="1920" height="1080" style="fill: none"/>
    </clipPath>
  </defs>
  <g style="clip-path: url(#clip-path)">
    <g style="clip-path: url(#clip-path)">
      <g style="clip-path: url(#clip-path-3)">
        <path d="M-3415.49,2271.56c31,35.94,95.06,32.76,142,39.83,149,22.45,234.89,39.64,383.86,62.09,15.32,2.31,25.4,11.69,33.8,24.71,40.73,63.14-52.75,290.48-129.22,382.59,71.16,58.16,213.31,119.54,325.79,152.48,42.75,12.52,33.85,75.43-10.7,75.41-78.57,0-165.08-2.86-192.34,46.78-22.05,40.14,25.38,129.28,71.15,127.69,355.67-12.4,223.94,634.14,769.84,592.05,225.35-17.37,540-138.11,932.39-406.55L616.05,5678C-245.09,3906.24,76,2904.71,39.14,2285.54,21.23,1984.34-17,1715.17-61.09,1416.68-132.94,930.77-333.63,372.43-679.37,23.52c-365.11-368.46-313.7-736.44-827.78-805.69-2102.3-283.18-1908.34,3053.73-1908.34,3053.73" style="fill: #f26539"/>
        <path d="M1167.49,4141.7l-2086.93-2805c-925.24-497.26-1031.28-1709.8-1031.28-1709.8C-2258.51,147-3774.34,299-3774.34,299c29.89-372.57,286.67-995.28,802.15-1426.41h0c1464.45-1097.45,2604.77-716.73,3525.66,530l3731,5051.28L2043.73,4557a1033,1033,0,0,1-876.24-415.28" style="fill: #1e3ba7"/>
      </g>
      <g style="clip-path: url(#clip-path-4)">
        <path d="M-1207.76,695.87c1.47,19.65,23.68,34.41,37.61,48.35,44.24,44.28,68.71,71.23,113,115.5,4.55,4.56,5.6,10.18,5.19,16.6-2,31.16-89.32,84-137.61,96,9.42,37,41.77,92.6,71.23,131.37,11.19,14.73-7.3,33.56-22.19,22.56-26.25-19.41-54.46-41.7-75.82-31.85-17.27,8-23.43,49.47-7.74,60.24,121.91,83.64-81.69,267.18,111.12,387.87,79.6,49.81,214.56,87.14,411.93,94.28l-.25,1192.57c149.55-804.63,504.05-1060.07,644.57-1276.07,68.36-105.07,122-204.45,181-315.09C220.13,1058.05,290.88,821.93,261.46,620c-31.06-213.25,77-323.53-77.75-473.56C-448.93-467.11-1207.76,695.87-1207.76,695.87" style="fill: #f26539"/>
      </g>
      <g style="clip-path: url(#clip-path-5)">
        <path d="M-1745.13,2745.15l-2290.22-3122c-1021-557.61-1129.33-1901.25-1129.33-1901.25-344.75,573.68-2024.6,730.67-2024.6,730.67,35.89-412.38,324.9-1100.1,899-1573.69h0c1630-1204.44,2890-774.29,3900.56,613.32l4094.2,5622-2482.31,97.47a1144,1144,0,0,1-967.31-466.46" style="fill: #1e3ba7"/>
      </g>
      <g style="clip-path: url(#clip-path-6)">
        <path d="M-1219.94,4321-2241.11,1487.42C-2880,846.58-2665-179.75-2665-179.75c-383.54,352.09-1671.41,99.29-1671.41,99.29,117.59-299.77,484.66-749.21,1017.28-976.12h0C-1837.78-1596.23-992.44-997.83-544.08,260L1272.48,5356-601,4882.06a889.93,889.93,0,0,1-619-561" style="fill: #1e3ba7"/>
      </g>
    </g>
  </g>
  <path d="M0,0V671H493V0ZM433,335.69c-114.54.42-254.59.41-373.08,0l-58-.19L60,335.31c110.63-.41,251.6-.42,373.08,0l58,.19Z" style="fill: #edd1d1"/>
</svg>
