<svg id="Layer_1" data-name="Layer 1" xmlns="http://www.w3.org/2000/svg" xmlns:xlink="http://www.w3.org/1999/xlink" width="899" height="671" viewBox="0 0 899 671">
  <defs>
    <clipPath id="clip-path">
      <rect x="5052.68" y="-2001.49" width="1920" height="1080" style="fill: none"/>
    </clipPath>
    <clipPath id="clip-path-3">
      <rect x="754.34" y="198.51" width="1917.34" height="1080" style="fill: none"/>
    </clipPath>
    <clipPath id="clip-path-4">
      <rect x="4572.61" y="1013.27" width="1920" height="1080" style="fill: none"/>
    </clipPath>
    <clipPath id="clip-path-6">
      <rect x="-1665.74" y="3213.27" width="1917.34" height="1080" style="fill: none"/>
    </clipPath>
  </defs>
  <g style="clip-path: url(#clip-path)">
    <g style="clip-path: url(#clip-path)">
      <g style="clip-path: url(#clip-path-3)">
        <path d="M6131.87,2057.15l-2290.22-3122c-1021-557.61-1129.33-1901.25-1129.33-1901.25-344.75,573.68-2024.6,730.67-2024.6,730.67,35.89-412.38,324.9-1100.1,899-1573.69h0c1630-1204.44,2890-774.29,3900.56,613.32l4094.2,5622-2482.31,97.47a1144,1144,0,0,1-967.31-466.46" style="fill: #1e3ba7"/>
      </g>
    </g>
  </g>
  <g style="clip-path: url(#clip-path-4)">
    <g style="clip-path: url(#clip-path-4)">
      <g style="clip-path: url(#clip-path-6)">
        <path d="M3711.79,5071.92l-2290.22-3122C400.62,1392.29,292.24,48.65,292.24,48.65c-344.75,573.67-2024.6,730.66-2024.6,730.66,35.89-412.38,324.91-1100.09,899-1573.69h0c1630-1204.44,2890-774.29,3900.56,613.32l4094.2,5622L4679.1,5538.37a1144,1144,0,0,1-967.31-466.45" style="fill: #1e3ba7"/>
      </g>
    </g>
  </g>
  <path d="M556.81,231.83c-13.25-28.6-32.33-56.42-57.38-82.87L449.48,90.91l-50,58.05c-23,25.73-40.89,52.33-53.92,79.34C414.17,196.45,487.24,198.19,556.81,231.83Z" style="fill: #efead0"/>
  <path d="M342.3,439.4C355.63,468.2,374.74,496,399.52,522l50,58.05L499.43,522c22.69-25.56,40.63-52.13,53.74-79.23C485.74,473.94,412.66,473.35,342.3,439.4Z" style="fill: #efead0"/>
  <path d="M0,0V671H899V0ZM553.17,442.81c-13.11,27.1-31,53.67-53.74,79.23l-49.95,58.05-50-58.05C374.74,496,355.63,468.2,342.3,439.4c-31.25-67.49-30.69-140.66,3.3-211.1,13-27,31-53.61,53.92-79.34l50-58.05L499.43,149c25.05,26.45,44.13,54.27,57.38,82.87h0c31.74,68.51,30,141.48-3.64,211" style="fill: #efead0"/>
</svg>
