<svg id="Layer_1" data-name="Layer 1" xmlns="http://www.w3.org/2000/svg" xmlns:xlink="http://www.w3.org/1999/xlink" width="493" height="265.82" viewBox="0 0 493 265.82">
  <defs>
    <clipPath id="clip-path">
      <rect x="-2824.32" y="-1516.37" width="1920" height="1080" style="fill: none"/>
    </clipPath>
    <clipPath id="clip-path-3">
      <rect x="-3242.66" y="683.63" width="1917.34" height="1080" style="fill: none"/>
    </clipPath>
    <clipPath id="clip-path-4">
      <rect x="-1305.32" y="683.63" width="1917.34" height="1080" style="fill: none"/>
    </clipPath>
    <clipPath id="clip-path-5">
      <rect x="-7122.66" y="683.63" width="1917.34" height="1080" style="fill: none"/>
    </clipPath>
    <clipPath id="clip-path-6">
      <rect x="-5182.66" y="683.63" width="1917.34" height="1080" style="fill: none"/>
    </clipPath>
    <clipPath id="clip-path-7">
      <rect x="-349.05" y="-1596.99" width="1920" height="1080" style="fill: none"/>
    </clipPath>
  </defs>
  <g style="clip-path: url(#clip-path)">
    <g style="clip-path: url(#clip-path)">
      <g style="clip-path: url(#clip-path-3)">
        <path d="M-3415.49,2068.68c31,35.94,95.06,32.76,142,39.83,149,22.46,234.89,39.64,383.86,62.1,15.32,2.31,25.4,11.68,33.8,24.7,40.73,63.15-52.75,290.48-129.22,382.59,71.16,58.17,213.31,119.55,325.79,152.49,42.75,12.52,33.85,75.42-10.7,75.4-78.57,0-165.08-2.85-192.34,46.79-22.05,40.13,25.38,129.28,71.15,127.68,355.67-12.39,223.94,634.14,769.84,592.06,225.35-17.37,540-138.12,932.39-406.55l1705,2309.35C-245.09,3703.36,76,2701.83,39.14,2082.66,21.23,1781.46-17,1512.29-61.09,1213.81-132.94,727.89-333.63,169.55-679.37-179.36-1044.48-547.82-993.07-915.8-1507.15-985c-2102.3-283.18-1908.34,3053.73-1908.34,3053.73" style="fill: #f26539"/>
        <path d="M1167.49,3938.82l-2086.93-2805C-1844.68,636.56-1950.72-576-1950.72-576-2258.51-55.9-3774.34,96.08-3774.34,96.08c29.89-372.57,286.67-995.28,802.15-1426.4h0c1464.45-1097.45,2604.77-716.74,3525.66,530L4284.49,4251,2043.73,4354.1a1032.93,1032.93,0,0,1-876.24-415.28" style="fill: #1e3ba7"/>
      </g>
      <g style="clip-path: url(#clip-path-4)">
        <path d="M-1207.76,493c1.47,19.65,23.68,34.41,37.61,48.35,44.24,44.27,68.71,71.22,113,115.5,4.55,4.55,5.6,10.17,5.19,16.6-2,31.15-89.32,84-137.61,95.95,9.42,37,41.77,92.6,71.23,131.37,11.19,14.74-7.3,33.56-22.19,22.56-26.25-19.41-54.46-41.7-75.82-31.84-17.27,8-23.43,49.47-7.74,60.23,121.91,83.65-81.69,267.19,111.12,387.87,79.6,49.82,214.56,87.14,411.93,94.28l-.25,1192.57c149.55-804.63,504.05-1060.07,644.57-1276.07,68.36-105.07,122-204.44,181-315.08,95.93-180.12,166.68-416.24,137.26-618.17-31.06-213.25,77-323.53-77.75-473.56C-448.93-670-1207.76,493-1207.76,493" style="fill: #f26539"/>
      </g>
      <g style="clip-path: url(#clip-path-5)">
        <path d="M-1745.13,2542.28l-2290.22-3122C-5056.31-1137.35-5164.68-2481-5164.68-2481c-344.75,573.67-2024.6,730.66-2024.6,730.66,35.89-412.38,324.9-1100.09,899-1573.69h0c1630-1204.44,2890-774.29,3900.56,613.32l4094.2,5622-2482.31,97.46a1144,1144,0,0,1-967.31-466.45" style="fill: #1e3ba7"/>
      </g>
      <g style="clip-path: url(#clip-path-6)">
        <path d="M-1219.94,4118.15l-1021.17-2833.6C-2880,643.7-2665-382.62-2665-382.62c-383.54,352.08-1671.41,99.28-1671.41,99.28,117.59-299.76,484.66-749.2,1017.28-976.12h0C-1837.78-1799.11-992.44-1200.71-544.08,57.08l1816.56,5096L-601,4679.18a889.89,889.89,0,0,1-619-561" style="fill: #1e3ba7"/>
      </g>
    </g>
  </g>
  <path d="M0,0V265.84H493V0ZM433,132.82c-114.54.41-254.59.4-373.08,0l-58-.2L60,132.43c110.63-.4,251.6-.41,373.08,0l58,.19Z" style="fill: #edd1d1"/>
</svg>
