<svg id="Layer_1" data-name="Layer 1" xmlns="http://www.w3.org/2000/svg" xmlns:xlink="http://www.w3.org/1999/xlink" width="603.36" height="937.11" viewBox="0 0 603.36 937.11">
  <defs>
    <clipPath id="clip-path">
      <rect x="-6183.21" y="-1119.37" width="1920" height="1080" style="fill: none"/>
    </clipPath>
    <clipPath id="clip-path-3">
      <rect x="-6601.55" y="1080.63" width="1917.34" height="1080" style="fill: none"/>
    </clipPath>
    <clipPath id="clip-path-4">
      <rect x="-3707.95" y="-1199.99" width="1920" height="1080" style="fill: none"/>
    </clipPath>
    <clipPath id="clip-path-6">
      <rect x="-2186.29" y="1000.01" width="1917.34" height="1080" style="fill: none"/>
    </clipPath>
  </defs>
  <g style="clip-path: url(#clip-path)">
    <g style="clip-path: url(#clip-path)">
      <g style="clip-path: url(#clip-path-3)">
        <path d="M-2191.41,4335.82l-2086.92-2805C-5203.58,1033.56-5309.62-179-5309.62-179-5617.4,341.1-7133.23,493.08-7133.23,493.08c29.89-372.56,286.66-995.28,802.15-1426.4h0c1464.45-1097.45,2604.77-716.74,3525.66,530L925.59,4648l-2240.75,103.13a1033,1033,0,0,1-876.25-415.29" style="fill: #1e3ba7"/>
      </g>
    </g>
  </g>
  <g style="clip-path: url(#clip-path-4)">
    <g style="clip-path: url(#clip-path-4)">
      <g style="clip-path: url(#clip-path-6)">
        <path d="M-1870.25,753.31c34,40,105,37,156.93,45.17,164.81,26,259.84,45.65,424.65,71.64,17,2.67,27.73,13.33,37.25,27.61,42.92,64.44-56.36,324.56-141.74,426,78.36,65,231.11,130.72,355.43,168,47.25,14.19,36.93,83.78-12.41,83.43-87-.63-182.8-4.4-213.36,50.37-24.72,44.29,27.14,143.37,77.84,141.94,394-11.07,243.26,704,848.15,661.43C-87.82,2411.39,261.58,2280,698.11,1985.67l1871,2570.25c-940.44-1968.58-577.41-3075.33-613.56-3761.31-17.58-333.7-57.86-632.08-104.51-963-75.93-538.67-294-1158.51-674.3-1547.5C775.1-2126.64,834.78-2533.78,266-2614.31-2060.11-2943.63-1870.25,753.31-1870.25,753.31" style="fill: #f26539"/>
        <path d="M3191.24,2858.66,901-263.36C-119.94-821-228.31-2164.61-228.31-2164.61c-344.75,573.67-2024.6,730.66-2024.6,730.66,35.89-412.38,324.9-1100.09,899-1573.69h0c1630-1204.43,2890-774.29,3900.56,613.32l4094.2,5622-2482.31,97.47a1144,1144,0,0,1-967.31-466.46" style="fill: #1e3ba7"/>
      </g>
    </g>
  </g>
  <path d="M.69,0C58.15,15.62,116.11,53.13,142.11,121.13c33.81,88.42,59,137,73.61,234.54,4.2,28,5.71,56,15.93,83.94-16.53,23.14-26.47,46.24-25.93,88.61,1.21,93.56-7.27,190.84-64.88,264.57C108.89,833.68,56.76,862.43,1.11,880.7Z" style="fill: #1d1d1d"/>
  <path d="M231.3,439.34c-16.53,23.14-26.81,46.5-26.26,88.88,1.2,93.56-53.32,125.17-110.93,198.91C62.16,768,56.07,862.43.42,880.7c-.13,0-.07,55.87-.07,55.87l603,.54c-3.83-18.3-14.66-75.12-18.25-95-17-94-50-123.5-121-178-40.24-30.9-40-31-117-86-41.29-29.49-75-54-104.6-102.69" style="fill: #1e3ba7"/>
</svg>
